<svg width="24" height="24" viewBox="0 0 24 24" fill="none" xmlns="http://www.w3.org/2000/svg">
<g clip-path="url(#clip0_885_8404)">
<path fill-rule="evenodd" clip-rule="evenodd" d="M21.4589 5.64773C21.4589 4.1894 20.4133 3.14208 18.9509 3.13742C18.8073 3.13701 18.6637 3.13606 18.5201 3.13511C18.0621 3.13209 17.604 3.12906 17.1462 3.14325C16.9203 3.15023 16.872 3.07397 16.8888 2.87196C16.9007 2.73092 16.8978 2.58834 16.8948 2.44601C16.8937 2.3927 16.8927 2.33943 16.8923 2.2863C16.89 1.96028 16.7538 1.78912 16.4412 1.7344C16.3341 1.71578 16.2235 1.71519 16.1141 1.71461L16.114 1.71461L15.9603 1.714C15.5504 1.71233 15.1406 1.71066 14.7313 1.71635C14.6091 1.7181 14.538 1.69307 14.4839 1.56732C14.0141 0.478664 13.1397 0.0100192 11.9963 0.000122309C10.8564 -0.00919238 10.028 0.513594 9.53665 1.54461C9.47028 1.68433 9.39751 1.71868 9.25604 1.71694C8.74839 1.71111 8.24016 1.70646 7.73251 1.72217C7.33081 1.7344 7.17304 1.91429 7.17188 2.31075C7.17171 2.36782 7.1705 2.42495 7.16929 2.48205C7.16635 2.62065 7.16342 2.75911 7.17537 2.89641C7.19167 3.08387 7.14685 3.1479 6.94134 3.14325C6.27767 3.12869 5.61283 3.12403 4.94916 3.14325C3.65151 3.18051 2.60827 4.24296 2.60768 5.53072C2.60497 9.14091 2.60536 12.7508 2.60574 16.3609C2.60594 18.1659 2.60613 19.971 2.60594 21.7761C2.60594 22.5603 2.95931 23.1454 3.59562 23.5814C3.88984 23.7831 4.22346 23.8755 4.55775 23.9681L4.55807 23.9682L4.55835 23.9683L4.55853 23.9684C4.59638 23.9789 4.63424 23.9893 4.67205 24H19.3927C19.4012 23.9959 19.4096 23.9912 19.4179 23.9864L19.4179 23.9864L19.418 23.9864L19.418 23.9864L19.418 23.9864C19.436 23.9761 19.454 23.9659 19.4731 23.9627C20.7288 23.7467 21.4589 22.884 21.4589 21.6125L21.459 16.2905C21.4591 12.7428 21.4592 9.1954 21.4589 5.64773ZM8.31817 3.05883C8.31584 2.90106 8.34728 2.84459 8.51785 2.85042C8.81298 2.86058 9.10841 2.85842 9.40371 2.85627H9.40372C9.51442 2.85546 9.62511 2.85465 9.73575 2.85449C10.1374 2.85391 10.3307 2.70371 10.4396 2.31016C10.6602 1.51201 11.3617 0.999704 12.1418 1.06782C12.7816 1.12371 13.3463 1.60807 13.528 2.25777C13.659 2.72583 13.8266 2.85449 14.3093 2.85449C14.4271 2.85449 14.5451 2.85481 14.663 2.85513H14.6631H14.6632H14.6632H14.6633H14.6634H14.6634H14.6634H14.6635H14.6635H14.6635C14.9671 2.85595 15.2709 2.85677 15.5743 2.85216C15.6995 2.84983 15.749 2.87487 15.7472 3.01517C15.7396 3.66312 15.7379 4.31166 15.7478 4.95961C15.7507 5.12495 15.6878 5.14707 15.5458 5.14649C14.6256 5.14283 13.7055 5.14312 12.7851 5.14341H12.785H12.7849H12.7849H12.7848H12.7847L12.0312 5.14358C11.7519 5.14358 11.4726 5.14337 11.1932 5.14317C10.3088 5.14254 9.42453 5.1419 8.54056 5.14765C8.37173 5.14881 8.31351 5.11621 8.317 4.93341C8.32981 4.30816 8.32748 3.6835 8.31817 3.05883ZM20.3225 21.584C20.3225 22.3542 19.9557 22.764 19.1867 22.8485C19.1025 22.858 19.0169 22.8579 18.9316 22.8578L18.9061 22.8578C17.07 22.858 15.234 22.8581 13.398 22.8581H13.3979H13.3979H13.3979H13.3979H13.3978C10.6482 22.8582 7.89873 22.8582 5.14943 22.8589C4.79896 22.8589 4.46655 22.8065 4.17255 22.5981C3.89893 22.4043 3.75281 22.1435 3.74349 21.8081C3.74225 21.7636 3.74248 21.7188 3.74272 21.6741L3.74291 21.6207V5.68324C3.74291 4.81116 4.26686 4.2843 5.14011 4.28138C5.36294 4.28075 5.58577 4.28111 5.8086 4.28147H5.8087C6.20294 4.2821 6.59717 4.28273 6.99141 4.27789C7.13637 4.27614 7.17945 4.31748 7.17595 4.46244C7.16645 4.82962 7.16983 5.19733 7.17321 5.56507L7.17363 5.61106C7.17712 6.04535 7.40708 6.27938 7.83846 6.27997C10.627 6.28171 13.4162 6.28171 16.2048 6.27997C16.6519 6.27997 16.8918 6.0308 16.8935 5.57845L16.8943 5.4251V5.42499C16.896 5.10123 16.8977 4.77747 16.8912 4.45371C16.8888 4.32388 16.9238 4.27731 17.0606 4.27906C17.3394 4.28178 17.6183 4.28092 17.8972 4.28007H17.8973C18.2747 4.27891 18.652 4.27776 19.0289 4.28546C19.7968 4.3006 20.3225 4.85307 20.3225 5.62386C20.3229 7.41541 20.3227 9.20721 20.3226 10.9989L20.3225 13.6863V21.584ZM14.7434 9.42417C15.0604 9.42417 15.3774 9.42391 15.6943 9.42366H15.6944H15.6944H15.6945H15.6945H15.6946C16.455 9.42306 17.2155 9.42245 17.9756 9.42533C18.464 9.42708 18.7522 9.87418 18.5298 10.273C18.411 10.486 18.2183 10.5687 17.9831 10.5693C17.7137 10.5702 17.4444 10.5701 17.175 10.5699L16.9056 10.5699L15.5706 10.57H15.5706H15.5706H15.5705H15.5705H15.5705C14.2353 10.5702 12.9001 10.5705 11.5653 10.5687C11.152 10.5681 10.9034 10.3568 10.8958 10.0122C10.8883 9.66111 11.1392 9.42533 11.5339 9.42475C12.2829 9.42312 13.0315 9.42348 13.7803 9.42385C14.1013 9.42401 14.4223 9.42417 14.7434 9.42417ZM15.6779 18.5663L14.7675 18.5665L13.8856 18.5663H13.8855H13.8854H13.8854H13.8853C13.1018 18.5659 12.3185 18.5656 11.5359 18.5677C11.1324 18.5688 10.8803 18.818 10.9007 19.1813C10.9188 19.5055 11.1604 19.7151 11.5457 19.7157C13.464 19.7189 15.3827 19.7178 17.301 19.7167H17.3033L17.9403 19.7163C18.0177 19.7157 18.0969 19.707 18.172 19.6895C18.5038 19.6115 18.6878 19.2593 18.5661 18.942C18.4706 18.694 18.2704 18.5677 17.9531 18.5671C17.1947 18.5658 16.4363 18.5661 15.6779 18.5663ZM14.7539 14.0005L15.6287 14.0002H15.6296C16.4071 13.9999 17.1848 13.9996 17.9628 14.0017C18.3354 14.0028 18.5729 14.2019 18.5974 14.5175C18.6224 14.8452 18.3953 15.1107 18.067 15.1369C18.0361 15.1392 18.0047 15.1392 17.9733 15.1392L16.3583 15.1394C14.742 15.1396 13.1256 15.1398 11.5089 15.1381C11.1805 15.1381 10.9453 14.9489 10.9034 14.6677C10.8487 14.2992 11.0885 14.0092 11.4751 14.004C11.9267 13.9978 12.3783 13.999 12.83 14.0001C13.0108 14.0006 13.1916 14.0011 13.3724 14.0011C13.8329 14.0005 14.2934 14.0005 14.7539 14.0005ZM5.78001 8.99152C5.56287 9.08816 5.48194 9.27445 5.47205 9.42931C5.46739 9.68488 5.55297 9.82809 5.67813 9.95617C5.81519 10.0958 5.95169 10.236 6.08818 10.3762L6.08822 10.3762L6.08825 10.3762C6.32223 10.6165 6.55621 10.8568 6.79299 11.0943C7.03808 11.34 7.33382 11.3604 7.58415 11.1269C8.3433 10.4184 9.09721 9.70409 9.84355 8.9822C10.1038 8.73012 10.0607 8.36976 9.77427 8.14621C9.53034 7.95584 9.24217 7.97505 8.99242 8.21083L8.72953 8.4583L8.72953 8.4583C8.27683 8.88412 7.82399 9.31007 7.38505 9.7495C7.22787 9.90668 7.15277 9.87525 7.02702 9.73203C6.83141 9.50906 6.62183 9.29774 6.40817 9.09223C6.22712 8.91816 6.00822 8.89022 5.78001 8.99152ZM7.18674 15.8475C7.02839 15.858 6.90322 15.7835 6.7961 15.674C6.70879 15.5848 6.62136 15.4958 6.53393 15.4067L6.53362 15.4064C6.23815 15.1055 5.94272 14.8046 5.65214 14.4992C5.40938 14.2436 5.40938 13.8774 5.63584 13.6574C5.86813 13.4321 6.20171 13.4554 6.46776 13.7214L6.54554 13.799C6.72432 13.9772 6.90318 14.1555 7.06739 14.3467C7.18092 14.4782 7.24496 14.4549 7.35615 14.3461C7.89291 13.8227 8.43491 13.3052 8.98098 12.7917C9.32912 12.4645 9.82047 12.5652 9.97358 12.9861C10.051 13.1998 10.0079 13.3948 9.85016 13.5462C9.09567 14.271 8.33536 14.99 7.57505 15.7084C7.46967 15.8079 7.3381 15.8574 7.18674 15.8475ZM5.77381 18.1377C5.55899 18.2366 5.47865 18.4241 5.46992 18.6069C5.47167 18.8345 5.55725 18.9777 5.68125 19.1035C5.76373 19.1875 5.847 19.2708 5.93025 19.354C6.13434 19.5581 6.33836 19.7621 6.53063 19.9767C7.05866 20.5659 7.29967 20.5752 7.86612 20.0146C8.25512 19.6295 8.65381 19.2542 9.05257 18.8788C9.30191 18.644 9.55129 18.4092 9.79834 18.172C10.0958 17.8868 10.0784 17.5229 9.76865 17.286C9.52123 17.0973 9.23771 17.12 8.9868 17.3576C8.94893 17.3935 8.91105 17.4294 8.87318 17.4653C8.36144 17.9504 7.84969 18.4355 7.3445 18.9277C7.23447 19.0354 7.17393 19.0354 7.07146 18.9213C6.85723 18.6837 6.63309 18.4544 6.40255 18.2326C6.22092 18.0579 6.00028 18.034 5.77381 18.1377Z" fill="#52C142"/>
</g>
<defs>
<clipPath id="clip0_885_8404">
<rect width="24" height="24" fill="white"/>
</clipPath>
</defs>
</svg>
