<svg width="25" height="24" viewBox="0 0 25 24" fill="none" xmlns="http://www.w3.org/2000/svg">
<g clip-path="url(#clip0_885_8398)">
<path fill-rule="evenodd" clip-rule="evenodd" d="M19.605 3.13742C21.1178 3.14208 22.1994 4.1894 22.1994 5.64773C22.2 10.9676 22.1994 16.2869 22.1988 21.6073V21.609V21.6108V21.6125C22.1988 22.884 21.4436 23.7467 20.1446 23.9627C20.1248 23.9659 20.1062 23.9761 20.0876 23.9864C20.0789 23.9912 20.0702 23.9959 20.0615 24H4.83316C4.79396 23.9893 4.75471 23.9788 4.71548 23.9683L4.71522 23.9682L4.71491 23.9681C4.3691 23.8755 4.02397 23.7831 3.71961 23.5814C3.06136 23.1454 2.6958 22.5603 2.6958 21.7761C2.696 19.971 2.6958 18.1659 2.6956 16.3609C2.69519 12.7508 2.69479 9.14091 2.6976 5.53072C2.69821 4.24296 3.77743 3.18051 5.11982 3.14325C5.80638 3.12403 6.49414 3.12869 7.1807 3.14325C7.39329 3.1479 7.43966 3.08387 7.4228 2.89641C7.41043 2.75912 7.41347 2.62067 7.4165 2.48208V2.48206C7.41776 2.42496 7.41901 2.36783 7.41919 2.31075C7.42039 1.91429 7.5836 1.7344 7.99915 1.72217C8.5243 1.70646 9.05006 1.71111 9.57521 1.71694C9.72156 1.71868 9.79684 1.68433 9.86549 1.54461C10.3744 0.513594 11.2314 -0.00919238 12.4106 0.000122309C13.5934 0.0100192 14.4979 0.478664 14.984 1.56732C15.04 1.69307 15.1134 1.7181 15.2399 1.71635C15.6633 1.71066 16.0872 1.71233 16.5112 1.714L16.6702 1.71461L16.6703 1.71461C16.7835 1.71519 16.8979 1.71578 17.0087 1.7344C17.3321 1.78912 17.473 1.96028 17.4754 2.2863C17.4758 2.33943 17.4769 2.3927 17.478 2.44601V2.44602V2.44603C17.4811 2.58835 17.4841 2.73092 17.4718 2.87196C17.4544 3.07397 17.5043 3.15023 17.738 3.14325C18.2116 3.12906 18.6855 3.13209 19.1593 3.13511C19.3079 3.13606 19.4564 3.13701 19.605 3.13742ZM8.81217 2.85042C8.63572 2.84459 8.60319 2.90106 8.6056 3.05883C8.61524 3.6835 8.61765 4.30816 8.6044 4.93341C8.60079 5.11621 8.66101 5.14881 8.83566 5.14765C9.75012 5.1419 10.6649 5.14254 11.5798 5.14317C11.8688 5.14337 12.1577 5.14358 12.4467 5.14358L13.2262 5.14341H13.2263H13.2263C14.1786 5.14312 15.1305 5.14283 16.0824 5.14649C16.2294 5.14707 16.2944 5.12495 16.2914 4.95961C16.2812 4.31166 16.283 3.66312 16.2908 3.01517C16.2926 2.87487 16.2414 2.84983 16.112 2.85216C15.798 2.85677 15.4838 2.85595 15.1697 2.85513H15.1697H15.1696H15.1695H15.1695C15.0474 2.85481 14.9253 2.85449 14.8033 2.85449C14.304 2.85449 14.1306 2.72583 13.9951 2.25777C13.8072 1.60807 13.223 1.12371 12.5611 1.06782C11.7541 0.999704 11.0284 1.51201 10.8002 2.31016C10.6876 2.70371 10.4876 2.85391 10.0721 2.85449C9.95761 2.85465 9.84311 2.85546 9.72859 2.85627H9.72857C9.4231 2.85842 9.11748 2.86058 8.81217 2.85042ZM19.8489 22.8485C20.6444 22.764 21.0238 22.3542 21.0238 21.584V13.6863L21.024 10.9989V10.98C21.0241 9.19459 21.0242 7.4091 21.0238 5.62386C21.0238 4.85307 20.48 4.3006 19.6857 4.28546C19.2957 4.27776 18.9054 4.27891 18.5151 4.28007H18.515C18.2265 4.28092 17.9379 4.28178 17.6495 4.27906C17.508 4.27731 17.4718 4.32388 17.4742 4.45371C17.481 4.77749 17.4792 5.10127 17.4774 5.42505L17.4766 5.57845C17.4748 6.0308 17.2267 6.27997 16.7642 6.27997C13.8794 6.28171 10.9941 6.28171 8.10936 6.27997C7.66309 6.27938 7.42521 6.04535 7.4216 5.61106L7.42116 5.56504C7.41767 5.19731 7.41418 4.82961 7.424 4.46244C7.42762 4.31748 7.38305 4.27614 7.23309 4.27789C6.82526 4.28273 6.41744 4.2821 6.00961 4.28147H6.0095C5.77899 4.28111 5.54847 4.28075 5.31796 4.28138C4.4146 4.2843 3.87258 4.81116 3.87258 5.68324V21.6207L3.87238 21.6741C3.87214 21.7188 3.87189 21.7636 3.87318 21.8081C3.88282 22.1435 4.03398 22.4043 4.31703 22.5981C4.62117 22.8065 4.96505 22.8589 5.3276 22.8589C8.1717 22.8582 11.016 22.8582 13.8604 22.8581H13.8605H13.8605C15.7598 22.8581 17.6592 22.858 19.5586 22.8578L19.5851 22.8578C19.6733 22.8579 19.7618 22.858 19.8489 22.8485ZM16.2365 9.42366C17.0232 9.42306 17.8101 9.42245 18.5969 9.42533C19.1022 9.42766 19.4003 9.87418 19.1715 10.273C19.048 10.486 18.8487 10.5687 18.606 10.5693C18.3273 10.5702 18.0487 10.5701 17.77 10.5699L17.4912 10.5699L16.2696 10.5699C13.5196 10.57 8.15119 10.5702 6.59845 10.5687C6.17086 10.5681 5.9137 10.3568 5.90588 10.0122C5.89744 9.66111 6.15761 9.42533 6.56593 9.42475C7.43633 9.42292 11.6297 9.42361 13.9173 9.42398H13.9243L15.2533 9.42417C15.5809 9.42417 15.9086 9.42391 16.2363 9.42366H16.2364H16.2365ZM18.5714 18.5671C17.7869 18.5658 17.0023 18.5661 16.2177 18.5663L15.276 18.5665L14.1157 18.5664H14.1144C11.8674 18.566 7.46439 18.5653 6.56391 18.5677C6.14656 18.5688 5.88579 18.818 5.90687 19.1813C5.92614 19.5056 6.17547 19.7151 6.57415 19.7157C8.77896 19.7192 16.3522 19.7175 18.5576 19.7163C18.6377 19.7163 18.7196 19.7076 18.7973 19.6895C19.1406 19.6121 19.3309 19.2599 19.205 18.942C19.1068 18.6946 18.8991 18.5677 18.5714 18.5671ZM17.1338 15.1396C14.045 15.1397 8.40499 15.1399 6.53672 15.1384C6.19766 15.1378 5.95375 14.9492 5.90979 14.6674C5.85318 14.2989 6.1019 14.009 6.50119 14.0038C7.04186 13.997 11.2512 13.9994 13.0636 14.0005C13.4437 14.0007 13.7183 14.0008 13.8317 14.0008H15.2614C15.5632 14.0008 15.865 14.0007 16.1668 14.0006C16.9717 14.0002 17.7763 13.9999 18.581 14.002C18.967 14.0032 19.2127 14.2023 19.2374 14.5178C19.2627 14.8456 19.0284 15.111 18.6888 15.1372C18.6562 15.1396 18.6243 15.1396 18.5918 15.1396C18.2312 15.1396 17.73 15.1396 17.1338 15.1396Z" fill="#C17FE9"/>
</g>
<defs>
<clipPath id="clip0_885_8398">
<rect width="24.8276" height="24" fill="white"/>
</clipPath>
</defs>
</svg>
