<svg width="24" height="24" viewBox="0 0 24 24" fill="none" xmlns="http://www.w3.org/2000/svg">
<path d="M20.7789 17.6844C20.1976 17.7064 19.6149 17.6824 19.0331 17.694C18.8757 17.6968 18.8123 17.645 18.7629 17.502C18.5829 16.9812 18.256 16.5578 17.8206 16.2285C16.3144 15.0895 14.1491 15.7048 13.4718 17.464C13.4042 17.6402 13.3221 17.6949 13.1315 17.6944C9.80559 17.6872 6.47919 17.6896 3.15327 17.6882C2.86143 17.6882 2.59695 17.7429 2.39103 17.9728C2.29599 18.0789 2.26335 18.2157 2.18799 18.3304C2.18799 18.4581 2.18799 18.5858 2.18799 18.7135C2.24415 18.9981 2.40351 19.1935 2.67519 19.3058C2.84031 19.374 3.00927 19.3831 3.18255 19.3831C6.46959 19.3826 9.75663 19.3845 13.0432 19.3788C13.252 19.3783 13.3557 19.4445 13.4454 19.6384C13.9782 20.7885 14.8739 21.4068 16.1603 21.412C17.2893 21.4168 18.3837 20.67 18.7849 19.6178C18.8541 19.4359 18.9539 19.3773 19.1402 19.3797C19.7282 19.3879 20.3166 19.384 20.9051 19.3826C21.4293 19.3812 21.6866 19.1964 21.8421 18.714C21.8421 18.5863 21.8421 18.4586 21.8421 18.3309C21.6573 17.836 21.2896 17.6652 20.7789 17.6844ZM16.1037 19.7359C15.4345 19.7301 14.8883 19.1824 14.8849 18.5143C14.8816 17.8432 15.4197 17.2975 16.0936 17.2888C16.769 17.2802 17.3339 17.8317 17.3373 18.5042C17.3406 19.1719 16.7694 19.7421 16.1037 19.7359Z" fill="#EE6B6B"/>
<path d="M21.2267 4.5915C21.1211 4.55934 21.0121 4.55982 20.9036 4.55982C20.3152 4.55934 19.7272 4.55454 19.1387 4.5627C18.9524 4.5651 18.855 4.50414 18.783 4.32414C18.3246 3.17886 17.1193 2.35854 15.7379 2.54718C14.6776 2.69214 13.9105 3.27822 13.4689 4.25262C13.3619 4.48878 13.24 4.56606 12.9846 4.56558C9.69757 4.55646 6.41101 4.55934 3.12397 4.55982C2.59981 4.55982 2.34253 4.74606 2.18701 5.22846C2.18701 5.35614 2.18701 5.48382 2.18701 5.6115C2.37037 6.10638 2.73853 6.26046 3.24877 6.25854C6.53005 6.24702 9.81133 6.25518 13.0931 6.24702C13.3134 6.24654 13.407 6.30942 13.4843 6.51438C13.863 7.52334 14.9195 8.26062 15.9956 8.29086C17.2331 8.32542 18.3203 7.60302 18.7628 6.44046C18.8166 6.29982 18.8756 6.24606 19.0331 6.24846C19.6662 6.2595 20.2993 6.25278 20.9329 6.25278C21.184 6.25278 21.411 6.19086 21.5992 6.01182C21.7172 5.89902 21.7633 5.74686 21.8411 5.6115C21.8411 5.49678 21.8411 5.38158 21.8411 5.26686C21.7974 4.89582 21.5665 4.69422 21.2267 4.5915ZM16.1003 6.65406C15.4273 6.64926 14.8859 6.10542 14.8849 5.43438C14.8844 4.7595 15.4489 4.19694 16.1166 4.20702C16.7857 4.2171 17.3377 4.77102 17.3368 5.4315C17.3358 6.1059 16.7761 6.65886 16.1003 6.65406Z" fill="#EE6B6B"/>
<path d="M21.6846 11.493C21.484 11.23 21.2123 11.1542 20.8926 11.1542C17.5408 11.158 14.1889 11.1556 10.8371 11.1594C10.7051 11.1594 10.6269 11.134 10.5875 10.9953C10.5289 10.786 10.4137 10.6002 10.3009 10.415C9.73309 9.4828 8.48941 8.93463 7.42045 9.15784C6.37213 9.37672 5.64541 9.98488 5.25805 10.9838C5.20573 11.1182 5.14045 11.1623 4.99645 11.1604C4.36957 11.1518 3.74269 11.1561 3.11581 11.1575C3.00157 11.158 2.88781 11.158 2.77453 11.1911C2.45245 11.2852 2.29069 11.5233 2.18701 11.818C2.18701 11.9202 2.18701 12.0225 2.18701 12.1247C2.34877 12.623 2.69917 12.8097 3.21181 12.791C3.79933 12.7698 4.38877 12.7919 4.97725 12.7823C5.13469 12.7799 5.20669 12.8246 5.26477 12.9772C5.58781 13.8263 6.18877 14.4066 7.05085 14.6898C8.47933 15.1593 10.0153 14.4215 10.5573 13.0175C10.623 12.8471 10.6979 12.7799 10.8947 12.7804C14.2144 12.7886 17.5345 12.7862 20.8542 12.7857C20.9814 12.7857 21.1096 12.7919 21.2349 12.7574C21.5641 12.6671 21.7374 12.4295 21.8406 12.1247C21.8406 12.0225 21.8406 11.9202 21.8406 11.818C21.783 11.7129 21.7595 11.5914 21.6846 11.493ZM7.92157 13.197C7.25101 13.198 6.68173 12.6278 6.69133 11.9639C6.70093 11.2958 7.25293 10.7481 7.91773 10.7462C8.59165 10.7442 9.14701 11.3034 9.14269 11.9793C9.13789 12.6479 8.58877 13.1956 7.92157 13.197Z" fill="#EE6B6B"/>
</svg>
