<svg width="24" height="24" viewBox="0 0 24 24" fill="none" xmlns="http://www.w3.org/2000/svg">
<path d="M11.3169 3.97361C11.2943 2.81087 10.7186 1.9755 9.68 1.46185C9.42036 1.33203 9.13814 1.29817 8.86721 1.2135C7.08922 1.2135 5.31123 1.2135 3.53325 1.2135C2.77125 1.30946 2.1673 1.68199 1.69317 2.28029C1.39402 2.66411 1.2134 3.09873 1.1626 3.58415C1.1626 5.39036 1.1626 7.19657 1.1626 9.00278C1.23597 9.03664 1.20775 9.11566 1.22469 9.17211C1.55206 10.5042 2.64143 11.3734 4.00738 11.3734C5.52572 11.3734 7.03842 11.3791 8.55676 11.3734C10.0751 11.3678 11.3112 10.126 11.3225 8.61331C11.3282 7.0611 11.3451 5.52018 11.3169 3.97361ZM8.46645 10.0188C6.98762 10.0188 5.50314 10.0188 4.02431 10.0188C3.13814 10.0188 2.5229 9.40353 2.5229 8.51736C2.5229 7.7723 2.5229 7.02159 2.5229 6.27653C2.5229 5.54276 2.5229 4.80899 2.5229 4.07521C2.5229 3.18904 3.13814 2.5738 4.02431 2.5738C5.50314 2.5738 6.98762 2.5738 8.46645 2.5738C9.35262 2.5738 9.96786 3.18904 9.96786 4.07521C9.96786 5.55405 9.96786 7.03852 9.96786 8.51736C9.96786 9.39788 9.35262 10.0188 8.46645 10.0188Z" fill="#FFA50C"/>
<path d="M11.3225 15.5108C11.3169 13.9699 10.0751 12.7338 8.53419 12.7281C7.00455 12.7225 5.47492 12.7225 3.94529 12.7281C2.69223 12.7338 1.58593 13.5804 1.25855 14.7883C1.23033 14.8956 1.23033 15.0084 1.1626 15.0988C1.1626 16.905 1.1626 18.7112 1.1626 20.5174C1.23597 20.5513 1.20775 20.6303 1.22469 20.6867C1.55206 22.0188 2.64143 22.888 4.00738 22.888C5.51443 22.888 7.02713 22.8937 8.53419 22.888C10.0751 22.8824 11.3169 21.6406 11.3225 20.1053C11.3282 18.5701 11.3282 17.0404 11.3225 15.5108ZM8.46645 21.5334C6.98762 21.5334 5.50314 21.5334 4.02431 21.5334C3.13814 21.5334 2.5229 20.9181 2.5229 20.032C2.5229 19.2869 2.5229 18.5362 2.5229 17.7911C2.5229 17.0574 2.5229 16.3236 2.5229 15.5898C2.5229 14.7037 3.13814 14.0884 4.02431 14.0884C5.50314 14.0884 6.98762 14.0884 8.46645 14.0884C9.35263 14.0884 9.96787 14.7037 9.96787 15.5898C9.96787 17.0687 9.96787 18.5531 9.96787 20.032C9.96787 20.9125 9.35263 21.5334 8.46645 21.5334Z" fill="#FFA50C"/>
<path d="M22.8318 3.97364C22.8149 2.82218 22.2448 1.98681 21.2175 1.46753C20.9522 1.33206 20.6644 1.29255 20.3878 1.20789C18.6098 1.20789 16.8318 1.20789 15.0538 1.20789C15.02 1.28126 14.9409 1.25304 14.8845 1.26997C13.5468 1.59171 12.6832 2.68672 12.6832 4.05266C12.6832 5.55972 12.6775 7.07242 12.6832 8.57948C12.6888 10.1091 13.9193 11.3565 15.4433 11.3678C16.9899 11.3735 18.5308 11.3735 20.0773 11.3678C21.5957 11.3622 22.8318 10.1204 22.8375 8.60205C22.8431 7.06113 22.86 5.51456 22.8318 3.97364ZM21.4828 8.51174C21.4828 9.39791 20.8676 10.0132 19.9814 10.0132C18.5026 10.0132 17.0181 10.0132 15.5392 10.0132C14.6531 10.0132 14.0378 9.39227 14.0378 8.51174C14.0378 7.77233 14.0378 7.03291 14.0378 6.28785C14.0378 5.54843 14.0378 4.80901 14.0378 4.06395C14.0378 3.17778 14.6531 2.56254 15.5392 2.56254C17.0181 2.56254 18.5026 2.56254 19.9814 2.56254C20.8676 2.56254 21.4828 3.17778 21.4828 4.06395C21.4884 5.55408 21.4884 7.03291 21.4828 8.51174Z" fill="#FFA50C"/>
<path d="M17.7687 12.7282C14.9691 12.7225 12.6831 15.0029 12.6831 17.8025C12.6831 20.5965 14.9521 22.8768 17.7461 22.8881C20.5457 22.8994 22.8374 20.619 22.843 17.8194C22.843 15.0198 20.5683 12.7338 17.7687 12.7282ZM17.7574 21.5334C15.7085 21.5334 14.0321 19.857 14.0321 17.8081C14.0321 15.7536 15.7085 14.0828 17.7574 14.0828C19.812 14.0828 21.4827 15.7536 21.4827 17.8081C21.4827 19.8627 19.812 21.5334 17.7574 21.5334Z" fill="#FFA50C"/>
</svg>
