<svg width="24" height="24" viewBox="0 0 24 24" fill="none" xmlns="http://www.w3.org/2000/svg">
<path d="M21.4543 3.39233C17.6388 3.39233 13.8232 3.39233 10.0016 3.39233C7.49817 3.39233 5.00082 3.39233 2.49741 3.39233C1.53596 3.39233 0.768011 3.97888 0.495902 4.89196C0.477762 4.95242 0.495902 5.03103 0.42334 5.06732C0.42334 9.84434 0.42334 14.6214 0.42334 19.3984C0.435434 19.4165 0.459621 19.4286 0.465668 19.4468C0.810339 20.5715 1.49363 21.0794 2.66068 21.0794C8.92523 21.0794 15.1898 21.0794 21.4604 21.0794C22.7846 21.0794 23.6493 20.2208 23.6493 18.9025C23.6493 14.4581 23.6493 10.0136 23.6493 5.5692C23.6433 4.24494 22.7786 3.39233 21.4543 3.39233ZM22.2828 18.9267C22.2828 19.4528 22.0167 19.7189 21.4906 19.7189C18.3402 19.7189 15.1898 19.7189 12.0394 19.7189C8.895 19.7189 5.75063 19.7189 2.60626 19.7189C2.0439 19.7189 1.78993 19.4649 1.78993 18.9086C1.78993 14.4581 1.78993 10.0076 1.78993 5.55711C1.78993 5.01289 2.04995 4.75892 2.59416 4.75892C8.88895 4.75892 15.1837 4.75892 21.4785 4.75892C22.0227 4.75892 22.2888 5.01894 22.2888 5.55711C22.2828 10.0076 22.2828 14.4702 22.2828 18.9267ZM20.9222 8.15726C20.9162 8.55031 20.6138 8.82846 20.1724 8.83451C19.737 8.83451 19.2956 8.83451 18.8602 8.83451C18.4128 8.83451 17.9713 8.83451 17.5239 8.83451C17.1066 8.83451 16.7982 8.55031 16.7982 8.16331C16.7922 7.77026 17.1006 7.48001 17.536 7.48001C18.4188 7.48001 19.3016 7.48001 20.1845 7.48001C20.6138 7.47397 20.9222 7.75817 20.9222 8.15726ZM20.9222 10.8723C20.9222 11.2593 20.6199 11.5496 20.2026 11.5496C19.3016 11.5496 18.4067 11.5556 17.5057 11.5496C17.0945 11.5496 16.7922 11.2472 16.7982 10.8602C16.8043 10.4853 17.1066 10.1951 17.5057 10.1951C17.9592 10.189 18.4128 10.1951 18.8663 10.1951C19.3137 10.1951 19.7552 10.1951 20.2026 10.1951C20.6138 10.1951 20.9222 10.4853 20.9222 10.8723ZM20.9222 13.5873C20.9222 13.9743 20.6199 14.2706 20.2026 14.2706C19.3016 14.2767 18.4067 14.2767 17.5057 14.2706C17.0885 14.2706 16.7862 13.9743 16.7922 13.5873C16.7982 13.2003 17.1006 12.9161 17.5178 12.9161C17.9713 12.9161 18.4249 12.9161 18.8784 12.9161C19.3137 12.9161 19.7552 12.9161 20.1905 12.9161C20.6138 12.9161 20.9162 13.2003 20.9222 13.5873ZM20.9222 16.3084C20.9222 16.6954 20.6199 16.9917 20.2026 16.9917C19.3016 16.9917 18.4067 16.9978 17.5057 16.9917C17.0945 16.9917 16.7862 16.6894 16.7922 16.3024C16.7982 15.9275 17.1006 15.6372 17.4997 15.6312C17.9532 15.6251 18.4067 15.6312 18.8602 15.6312C19.3077 15.6312 19.7491 15.6312 20.1966 15.6312C20.6138 15.6372 20.9162 15.9214 20.9222 16.3084ZM9.31828 6.11342C5.93203 6.10738 3.15048 8.8587 3.14443 12.2208C3.13838 15.5889 5.91389 18.3583 9.30618 18.3583C12.6803 18.3583 15.4317 15.613 15.4317 12.2389C15.4377 8.86474 12.6864 6.11342 9.31828 6.11342ZM12.0998 16.0968C11.2896 16.6773 10.31 16.9978 9.10059 16.9978C8.29031 16.9857 7.36514 16.6954 6.52463 16.1149C6.39764 16.0303 6.36136 15.9698 6.45811 15.8186C7.77028 13.7748 10.836 13.7627 12.1603 15.8005C12.2389 15.9335 12.2329 16 12.0998 16.0968ZM7.95168 11.5737C7.94564 10.8179 8.55032 10.1951 9.30618 10.1951C10.062 10.189 10.6788 10.8058 10.6728 11.5556C10.6728 12.2994 10.062 12.9101 9.31828 12.9161C8.57451 12.9161 7.95773 12.3115 7.95168 11.5737ZM13.2125 14.9358C12.9645 14.6032 12.6985 14.3009 12.384 14.0409C12.0696 13.7748 11.731 13.5632 11.344 13.3697C11.6463 13.0008 11.858 12.6017 11.9608 12.1482C12.2994 10.6909 11.3319 9.19732 9.84435 8.88893C8.35682 8.58054 6.86325 9.60246 6.62138 11.09C6.49439 11.8882 6.6758 12.6017 7.16559 13.2366C7.22001 13.3031 7.31072 13.3515 7.1535 13.4301C6.43392 13.7869 5.85342 14.3009 5.38177 14.9721C4.08774 13.2306 4.14216 10.5458 5.96831 8.81637C7.8247 7.05673 10.6728 7.03255 12.5171 8.73776C14.4037 10.4611 14.4883 13.1762 13.2125 14.9358Z" fill="#0F60B5"/>
</svg>
