<svg width="24" height="24" viewBox="0 0 24 24" fill="none" xmlns="http://www.w3.org/2000/svg">
<path d="M12.0114 2.00002C6.45464 2.0057 1.97173 6.48989 2.00013 12.0596C2.03422 17.5781 6.44896 21.9657 11.9091 21.9998C17.5227 22.0339 22.0113 17.544 22 11.98C21.9943 6.49557 17.4887 1.98865 12.0114 2.00002ZM11.966 20.1868C7.45464 20.1754 3.81262 16.4983 3.8183 11.9573C3.82398 7.47311 7.50009 3.8187 12.0114 3.8187C16.5057 3.8187 20.1761 7.48448 20.1818 11.98C20.1875 16.521 16.5057 20.1982 11.966 20.1868ZM11.108 15.6344C10.8353 15.6344 10.6251 15.5492 10.4546 15.373C9.53985 14.458 8.62508 13.5486 7.716 12.6279C7.35237 12.2585 7.35805 11.7072 7.71032 11.3492C8.06827 10.9854 8.63076 10.9854 9.00576 11.3605C9.66485 12.0141 10.3239 12.6677 10.9773 13.3327C11.0967 13.4577 11.1648 13.435 11.2728 13.3327C12.7955 11.9289 14.3239 10.5308 15.8523 9.12697C15.9887 9.00194 16.1364 8.88827 16.3182 8.8428C16.7273 8.74618 17.1307 8.91668 17.3352 9.28042C17.5455 9.64984 17.483 10.0818 17.1591 10.3887C16.6137 10.9002 16.0625 11.4003 15.5114 11.9005C14.2671 13.0428 13.0228 14.1852 11.7785 15.3275C11.5853 15.5151 11.3637 15.6458 11.108 15.6344Z" fill="orange"/>
</svg>
