<svg width="24" height="24" viewBox="0 0 24 24" fill="none" xmlns="http://www.w3.org/2000/svg">
<path fill-rule="evenodd" clip-rule="evenodd" d="M12 3C7.02944 3 3 7.02944 3 12C3 16.9706 7.02944 21 12 21C16.9706 21 21 16.9706 21 12C20.9856 7.03542 16.9646 3.01442 12 3Z" fill="orange"/>
<path fill-rule="evenodd" clip-rule="evenodd" d="M10.5402 16.0203C10.518 16.0425 10.482 16.0425 10.4598 16.0203L6.9697 12.5302C6.67685 12.2374 6.67685 11.7626 6.9697 11.4697C7.26255 11.1769 7.73735 11.1769 8.0302 11.4697L10.5 13.9395L15.9697 8.4697C16.2626 8.17685 16.7374 8.17685 17.0302 8.4697C17.3231 8.76255 17.3231 9.23735 17.0302 9.5302L10.5402 16.0203Z" fill="white"/>
</svg>
