<svg width="24" height="24" viewBox="0 0 24 24" fill="none" xmlns="http://www.w3.org/2000/svg">
<path fill-rule="evenodd" clip-rule="evenodd" d="M12 3C7.02944 3 3 7.02944 3 12C3 16.9706 7.02944 21 12 21C16.9706 21 21 16.9706 21 12C20.9856 7.03542 16.9646 3.01442 12 3Z" fill="#C4C4C4"/>
<path fill-rule="evenodd" clip-rule="evenodd" d="M10.9515 14.9687C10.9347 14.9858 10.9072 14.9858 10.8905 14.9687L8.37126 12.3813C8.16463 12.1691 8.16463 11.8309 8.37126 11.6187C8.58583 11.3983 8.93993 11.3983 9.1545 11.6187L10.921 13.433L14.8455 9.40222C15.0601 9.18184 15.4142 9.18184 15.6287 9.40222C15.8354 9.61443 15.8354 9.95261 15.6287 10.1648L10.9515 14.9687Z" fill="white"/>
<path d="M18.9925 12.3107C18.906 12.5494 18.7668 12.7275 18.4997 12.7616C18.1913 12.8033 17.8941 12.5684 17.8753 12.2538C17.864 12.1022 17.8641 11.9507 17.8716 11.7991C17.8791 11.4997 18.0822 11.2799 18.3756 11.242C18.6314 11.2079 18.8834 11.3784 18.9699 11.6475C18.9774 11.6664 18.9699 11.693 19 11.7005C18.9925 11.9052 18.9925 12.1098 18.9925 12.3107ZM15.1558 7.07731C15.2311 7.12278 15.2423 7.1531 15.1897 7.22889C15.0543 7.41837 14.9189 7.60784 14.7947 7.8049C14.6969 7.95648 14.7609 8.06259 14.9414 8.06638C14.9828 8.06638 15.0242 8.06259 15.0656 8.0588C15.3439 8.03227 15.6185 8.00953 15.8968 7.98301C16.2203 7.95269 16.54 7.92995 16.8635 7.89585C17.1005 7.86932 17.2321 7.70637 17.172 7.49037C17.0064 6.8613 16.8297 6.23603 16.6566 5.61076C16.6378 5.53875 16.6115 5.46675 16.5287 5.44781C16.4385 5.42886 16.3858 5.48949 16.3369 5.55391C16.2316 5.7017 16.13 5.85329 16.0247 6.00487C15.8893 6.19813 15.8931 6.19434 15.6975 6.07687C13.9334 4.99306 12.0489 4.724 10.0629 5.28485C8.43794 5.74718 7.14777 6.70214 6.20365 8.10427C5.30091 9.44577 4.90596 10.9351 5.01881 12.557C5.10156 13.7204 5.43632 14.808 6.06448 15.7895C7.16658 17.5175 8.72757 18.5861 10.7324 18.9878C11.007 19.0447 11.274 18.8969 11.3756 18.643C11.511 18.2981 11.3079 17.9495 10.9129 17.8699C9.95003 17.6804 9.07738 17.2825 8.31757 16.6611C7.09511 15.6682 6.39172 14.3798 6.17732 12.8147C6.08329 12.1212 6.10962 11.4315 6.2676 10.7494C6.5986 9.31693 7.35465 8.16112 8.52445 7.28952C9.55132 6.52403 10.7174 6.16403 11.9473 6.14508C13.1924 6.16782 14.1553 6.45582 15.1558 7.07731ZM16.7695 15.5318C16.6303 15.6682 16.5024 15.8236 16.4046 15.9941C16.2654 16.229 16.3369 16.5436 16.5476 16.7103C16.7657 16.8846 17.0854 16.8695 17.281 16.6686C17.4089 16.5398 17.5255 16.3958 17.6196 16.2404C17.8415 15.8653 17.5707 15.3953 17.1268 15.3953C16.9989 15.3878 16.871 15.4295 16.7695 15.5318ZM13.4557 17.7941C13.2939 17.8169 13.1322 17.8548 12.978 17.9002C12.7109 17.9836 12.5492 18.2678 12.6093 18.5407C12.6695 18.8325 12.9328 19.0333 13.2187 18.9954C13.388 18.9727 13.561 18.9348 13.7227 18.8817C13.9559 18.8097 14.1026 18.5937 14.1026 18.3512C14.1026 18.0026 13.813 17.7487 13.4557 17.7941ZM18.2628 13.4399C17.9957 13.3831 17.7362 13.5082 17.6308 13.7545C17.5669 13.9061 17.5105 14.0614 17.4691 14.2206C17.3939 14.4934 17.518 14.7511 17.77 14.8724C18.0032 14.9861 18.2929 14.9292 18.4433 14.717C18.5938 14.501 18.6539 14.2471 18.6991 14.0387C18.6916 13.7242 18.511 13.493 18.2628 13.4399ZM18.6577 9.94599C18.6201 9.74135 18.5449 9.54051 18.4433 9.35482C18.3079 9.11608 18.007 9.02134 17.755 9.12745C17.4954 9.23735 17.3525 9.52156 17.4315 9.79062C17.4766 9.9422 17.5293 10.0938 17.5932 10.2416C17.6835 10.4614 17.8603 10.5675 18.0446 10.5788C18.4358 10.594 18.7179 10.2833 18.6577 9.94599ZM16.0398 17.7335C16.1526 17.5213 16.1225 17.2598 15.9608 17.0817C15.799 16.9036 15.5357 16.8392 15.3251 16.9453C15.1634 17.0286 15.0091 17.1234 14.8624 17.2333C14.6706 17.3773 14.6029 17.6388 14.6857 17.8623C14.7684 18.0859 14.9866 18.2337 15.2273 18.2299C15.453 18.2299 15.9307 17.9343 16.0398 17.7335Z" fill="white"/>
</svg>
