<svg width="24" height="24" viewBox="0 0 24 24" fill="none" xmlns="http://www.w3.org/2000/svg">
<circle cx="12" cy="12" r="9" fill="white"/>
<path fill-rule="evenodd" clip-rule="evenodd" d="M12 21C16.9706 21 21 16.9706 21 12C21 7.02944 16.9706 3 12 3C7.02944 3 3 7.02944 3 12C3 16.9706 7.02944 21 12 21ZM14.175 15.225C14.4649 15.5149 14.9351 15.5149 15.225 15.225C15.5149 14.9351 15.5149 14.4649 15.225 14.175L13.05 12L15.225 9.825C15.5149 9.53505 15.5149 9.06495 15.225 8.775C14.9351 8.48505 14.4649 8.48505 14.175 8.775L12 10.95L9.825 8.775C9.53505 8.48505 9.06495 8.48505 8.775 8.775C8.48505 9.06495 8.48505 9.53505 8.775 9.825L10.95 12L8.775 14.175C8.48505 14.4649 8.48505 14.9351 8.775 15.225C9.06495 15.5149 9.53505 15.5149 9.825 15.225L12 13.05L14.175 15.225Z" fill="#EE6B6B"/>
</svg>
