<svg width="15" height="15" viewBox="0 0 15 15" fill="none" xmlns="http://www.w3.org/2000/svg">
<circle cx="7.5" cy="7.5" r="5.625" fill="#EE6B6B" stroke="#EE6B6B" stroke-width="2"/>
<path fill-rule="evenodd" clip-rule="evenodd" d="M7.5 13.125C10.6066 13.125 13.125 10.6066 13.125 7.5C13.125 4.3934 10.6066 1.875 7.5 1.875C4.3934 1.875 1.875 4.3934 1.875 7.5C1.875 10.6066 4.3934 13.125 7.5 13.125ZM8.85938 9.51562C9.04059 9.69684 9.33441 9.69684 9.51562 9.51562C9.69684 9.33441 9.69684 9.04059 9.51562 8.85937L8.15625 7.5L9.51562 6.14062C9.69684 5.95941 9.69684 5.66559 9.51562 5.48438C9.33441 5.30316 9.04059 5.30316 8.85937 5.48438L7.5 6.84375L6.14062 5.48438C5.95941 5.30316 5.66559 5.30316 5.48438 5.48438C5.30316 5.66559 5.30316 5.95941 5.48438 6.14063L6.84375 7.5L5.48438 8.85938C5.30316 9.04059 5.30316 9.33441 5.48438 9.51562C5.66559 9.69684 5.95941 9.69684 6.14063 9.51562L7.5 8.15625L8.85938 9.51562Z" fill="white"/>
</svg>
