<svg width="15" height="15" viewBox="0 0 15 15" fill="none" xmlns="http://www.w3.org/2000/svg">
<path d="M7.50145 1.375H7.5C4.11726 1.375 1.375 4.11726 1.375 7.5C1.375 10.8827 4.11726 13.625 7.5 13.625C10.8827 13.625 13.625 10.8827 13.625 7.5L13.625 7.49855C13.6152 4.12068 10.8793 1.38481 7.50145 1.375Z" fill="white" stroke="#53C305"/>
<path fill-rule="evenodd" clip-rule="evenodd" d="M6.58784 10.0124C6.57396 10.0263 6.55147 10.0263 6.53759 10.0124L4.35631 7.83113C4.17328 7.6481 4.17328 7.35135 4.35631 7.16832C4.53934 6.98529 4.83609 6.98529 5.01912 7.16832L6.56271 8.71191L9.98131 5.29332C10.1643 5.11029 10.4611 5.11029 10.6441 5.29332C10.8272 5.47635 10.8272 5.7731 10.6441 5.95613L6.58784 10.0124Z" fill="#53C305"/>
</svg>
