<svg width="64" height="64" viewBox="0 0 64 64" fill="none" xmlns="http://www.w3.org/2000/svg">
<path fill-rule="evenodd" clip-rule="evenodd" d="M56 32C56 45.2548 45.2548 56 32 56C18.7452 56 8 45.2548 8 32C8 18.7452 18.7452 8 32 8C45.2548 8 56 18.7452 56 32ZM33.9588 21.7872C33.9588 22.9153 33.0443 23.8298 31.9163 23.8298C30.7882 23.8298 29.8737 22.9153 29.8737 21.7872C29.8737 20.6591 30.7882 19.7446 31.9163 19.7446C33.0443 19.7446 33.9588 20.6591 33.9588 21.7872ZM30.3843 29.9574V42.2127C30.3843 43.0588 31.0702 43.7446 31.9163 43.7446C32.7623 43.7446 33.4482 43.0588 33.4482 42.2127V29.9574C33.4482 29.1113 32.7623 28.4255 31.9163 28.4255C31.0702 28.4255 30.3843 29.1113 30.3843 29.9574Z" fill="white"/>
</svg>
