<svg width="64" height="64" viewBox="0 0 64 64" fill="none" xmlns="http://www.w3.org/2000/svg">
<path fill-rule="evenodd" clip-rule="evenodd" d="M32 8C18.7452 8 8 18.7452 8 32C8 45.2548 18.7452 56 32 56C45.2548 56 56 45.2548 56 32C55.9616 18.7611 45.2389 8.03845 32 8Z" fill="white"/>
<path fill-rule="evenodd" clip-rule="evenodd" d="M28.1071 42.7208C28.0479 42.78 27.9519 42.78 27.8927 42.7208L18.5859 33.414C17.8049 32.6331 17.8049 31.3669 18.5859 30.586C19.3668 29.8051 20.6329 29.8051 21.4139 30.586L27.9999 37.172L42.5859 22.586C43.3668 21.8051 44.6329 21.8051 45.4139 22.586C46.1948 23.3669 46.1948 24.6331 45.4139 25.414L28.1071 42.7208Z" fill="#53C305"/>
</svg>
