<svg width="64" height="64" viewBox="0 0 64 64" fill="none" xmlns="http://www.w3.org/2000/svg">
<circle cx="32" cy="32" r="24" fill="white"/>
<path fill-rule="evenodd" clip-rule="evenodd" d="M40.6 40.6C39.8268 41.3732 38.5732 41.3732 37.8 40.6L32 34.8L26.2 40.6C25.4268 41.3732 24.1732 41.3732 23.4 40.6C22.6268 39.8268 22.6268 38.5732 23.4 37.8L29.2 32L23.4 26.2C22.6268 25.4268 22.6268 24.1732 23.4 23.4C24.1732 22.6268 25.4268 22.6268 26.2 23.4L32 29.2L37.8 23.4C38.5732 22.6268 39.8268 22.6268 40.6 23.4C41.3732 24.1732 41.3732 25.4268 40.6 26.2L34.8 32L40.6 37.8C41.3732 38.5732 41.3732 39.8268 40.6 40.6Z" fill="#EB2101"/>
</svg>
