<svg width="83" height="72" viewBox="0 0 83 72" fill="none" xmlns="http://www.w3.org/2000/svg">
<rect width="83" height="72" rx="10" fill="#0465B0"/>
<g clip-path="url(#clip0_804_3009)">
<path fill-rule="evenodd" clip-rule="evenodd" d="M26.762 35.1941V24.9992C26.762 24.1847 26.762 23.3421 26.9305 22.5277C27.2113 21.0672 27.9135 20.3932 29.402 20.1404C30.1041 20.0281 30.8343 20 31.5645 20H47.7136C48.5842 20 49.4829 20.0281 50.3255 20.2247C51.477 20.5055 52.0949 21.2638 52.3195 22.4153C52.4881 23.2298 52.4881 24.0443 52.4881 24.8587C52.5068 26.3378 52.5005 27.8168 52.4943 29.2959V29.2962C52.4912 30.0358 52.4881 30.7754 52.4881 31.5149C52.4881 31.7958 52.4319 31.852 52.1791 31.7677C52.1492 31.7578 52.1184 31.7469 52.0869 31.7358L52.0869 31.7358C51.9408 31.6843 51.7791 31.6273 51.6174 31.6273C51.3085 31.5992 51.2242 31.4869 51.2242 31.1779V23.8477C51.2242 23.4264 51.1961 23.0332 51.1119 22.64C50.9434 21.8817 50.5783 21.5166 49.7919 21.4043C49.1178 21.2919 48.4157 21.2919 47.7416 21.2919H31.5084C30.8343 21.2919 30.1884 21.2919 29.5143 21.4043C28.6156 21.5447 28.1943 21.9941 28.082 22.8928C27.9977 23.5107 27.9977 24.1004 27.9977 24.7183C27.9977 31.9924 27.9977 39.2946 28.0258 46.5686C28.0258 46.9337 28.0539 47.2989 28.1101 47.664C28.2224 48.5346 28.6718 48.984 29.5705 49.0963C30.2726 49.1806 31.0028 49.2087 31.7331 49.2087H46.8991C47.208 49.2087 48.0787 49.2087 48.3314 49.2367C48.2053 49.3944 48.026 49.6053 47.8184 49.8494L47.8183 49.8494C47.6563 50.04 47.477 50.2509 47.2923 50.4725H46.3936H31.705C30.9748 50.4725 30.2445 50.4444 29.5143 50.3601C27.8573 50.1355 27.099 49.3491 26.9024 47.692C26.8181 46.9899 26.79 46.2597 26.79 45.5295C26.762 42.0188 26.762 38.5924 26.762 35.1941ZM56.1671 52.9719C55.7458 52.8034 55.3246 52.6349 55.0437 52.2417C54.9594 52.1293 54.9314 52.0732 55.0999 51.9889L57.8803 50.388C58.0207 50.3038 58.0769 50.3319 58.1331 50.4723C58.5824 51.4272 58.0207 52.6068 56.9816 52.9157C56.9629 52.9251 56.941 52.9282 56.9192 52.9313C56.8755 52.9376 56.8318 52.9438 56.8131 53C56.5884 52.9719 56.3918 52.9719 56.1671 52.9719ZM57.6086 49.7777C57.6429 49.7628 57.6839 49.745 57.6839 49.6862C57.6558 49.6581 57.6558 49.602 57.6558 49.5739C57.2771 48.9287 56.9054 48.2835 56.5338 47.6384L56.5333 47.6375L56.5331 47.6372L56.5329 47.6369L56.5328 47.6366L56.5326 47.6363L56.5324 47.636L56.5322 47.6357L56.532 47.6354L56.5319 47.6351L56.5317 47.6348L56.5315 47.6345L56.5313 47.6342C56.1596 46.9888 55.7878 46.3435 55.409 45.6981C55.3528 45.5858 55.2686 45.6139 55.1843 45.67L52.4039 47.2709C52.2634 47.3271 52.2354 47.3832 52.3196 47.5237C53.0498 48.8156 53.78 50.0794 54.5103 51.3433C54.5945 51.4837 54.6788 51.4837 54.7911 51.3994L57.5716 49.7986C57.5801 49.7901 57.5937 49.7841 57.6086 49.7777ZM36.5074 30.3068H42.1806C42.4053 30.3068 42.4896 30.363 42.4615 30.6158L42.4585 30.6999V30.6999C42.4465 31.0369 42.4405 31.2054 42.3532 31.2897C42.2658 31.3741 42.097 31.3741 41.7594 31.3741H30.8061C30.5253 31.3741 30.4691 31.2898 30.4691 31.009L30.4722 30.928C30.484 30.6216 30.4899 30.4664 30.5706 30.3877C30.6535 30.3068 30.8152 30.3068 31.1431 30.3068H36.5074ZM48.1068 25.6174H39.5689H31.5084C30.9475 25.6174 30.7064 25.6174 30.5981 25.7373C30.5165 25.8277 30.5103 25.9862 30.4995 26.2642L30.4973 26.3196C30.4973 26.6004 30.5816 26.6847 31.0029 26.6847H47.4889C48.0774 26.6847 48.3329 26.6847 48.4483 26.5575C48.5369 26.46 48.5431 26.2877 48.5541 25.9832L48.5562 25.9264C48.5562 25.6736 48.4438 25.6174 48.1068 25.6174ZM35.9741 45.5016H30.7222C30.5256 45.5016 30.4413 45.4736 30.4694 45.2208C30.4795 45.1296 30.4714 45.0275 30.4634 44.9277C30.4493 44.7505 30.4358 44.5804 30.5256 44.4906C30.6037 44.4125 30.7633 44.4294 30.9288 44.447C31.0013 44.4547 31.075 44.4625 31.1434 44.4625H41.1699C41.4226 44.4625 41.5069 44.5187 41.5069 44.8276L41.5034 44.9191C41.4914 45.2329 41.4856 45.3854 41.4064 45.4596C41.3314 45.5297 41.1908 45.5297 40.9171 45.5297C39.2601 45.5016 37.6311 45.5016 35.9741 45.5016ZM30.7499 36.0924H35.1032H39.0351C39.3587 36.0924 39.5205 36.0924 39.6043 36.0116C39.6881 35.9308 39.6941 35.7693 39.706 35.4464L39.7091 35.3622C39.7372 35.0814 39.6811 34.9971 39.4002 34.9971H31.1993C30.4691 34.9971 30.4691 34.9971 30.4691 35.7835C30.4691 36.0082 30.5253 36.0924 30.7499 36.0924ZM35.1032 39.7439H39.4002C39.6249 39.7439 39.7091 39.8001 39.7091 40.0528C39.7091 40.8111 39.7091 40.8111 39.007 40.8111H30.778C30.5253 40.8111 30.4691 40.755 30.4691 40.4741C30.4702 40.445 30.4712 40.4169 30.4721 40.3899C30.4841 40.053 30.4901 39.8844 30.5774 39.8002C30.6648 39.7158 30.8336 39.7158 31.1712 39.7158C32.4912 39.7439 33.8112 39.7439 35.1032 39.7439ZM42.6859 39.8286C42.6578 35.7 45.9999 32.4983 49.988 32.5545C54.0042 32.6387 57.0936 35.8405 57.0936 39.66C57.0936 43.8447 53.8357 47.0184 49.7353 46.9622C45.8595 46.906 42.6297 43.6482 42.6859 39.8286ZM43.8935 39.8286C43.9216 43.1145 46.5616 45.8107 49.988 45.8107C53.2178 45.8107 55.8859 43.0864 55.914 39.7443C55.9421 36.4302 53.2459 33.7902 49.8476 33.7621C46.5897 33.7341 43.8654 36.4583 43.8935 39.8286Z" fill="white"/>
</g>
<defs>
<clipPath id="clip0_804_3009">
<rect width="33" height="33" fill="white" transform="translate(26 20)"/>
</clipPath>
</defs>
</svg>
