<svg width="16" height="16" viewBox="0 0 16 16" fill="none" xmlns="http://www.w3.org/2000/svg">
<circle cx="8" cy="8" r="7.5" fill="white" stroke="#979797"/>
<path d="M8.78223 11.9727L8.60544 6.55659L7.31973 6.55659L7.13758 11.9727L8.78223 11.9727ZM7.09473 4.8798C7.09473 5.10837 7.1733 5.29766 7.33044 5.44766C7.49116 5.60123 7.70187 5.67801 7.96258 5.67801C8.22687 5.67801 8.43758 5.60123 8.59473 5.44766C8.75187 5.29766 8.83044 5.10837 8.83044 4.8798C8.83044 4.65837 8.75187 4.47087 8.59473 4.3173C8.43759 4.16373 8.22687 4.08694 7.96259 4.08694C7.70187 4.08694 7.49116 4.16373 7.33044 4.3173C7.1733 4.47087 7.09473 4.65837 7.09473 4.8798Z" fill="#979797"/>
</svg>
