<svg width="94" height="84" viewBox="0 0 94 84" fill="none" xmlns="http://www.w3.org/2000/svg">
<path fill-rule="evenodd" clip-rule="evenodd" d="M12.2026 65.0187L11.1663 60.9316C9.3289 60.1529 7.449 59.4785 5.53553 58.9114L5.40475 60.8109L4.87417 58.7183C2.50122 58.0407 0.886963 57.7422 0.886963 57.7422C0.886963 57.7422 3.06747 66.0342 7.64109 72.3735L12.9703 73.3096L8.83013 73.9065C9.40571 74.5989 10.0242 75.2543 10.6821 75.8691C17.3352 82.0447 24.7457 84.8782 27.2337 82.1977C29.7217 79.5173 26.3452 72.338 19.692 66.1624C17.6294 64.2479 15.0384 62.7115 12.4448 61.5023L12.2026 65.0187Z" fill="#E6E6E6"/>
<path fill-rule="evenodd" clip-rule="evenodd" d="M22.0582 60.5782L23.2838 56.5438C22.1133 54.9274 20.8527 53.3782 19.5079 51.9038L18.4139 53.4622L19.0415 51.3965C17.3604 49.59 16.1328 48.5 16.1328 48.5C16.1328 48.5 13.7133 56.7255 14.3517 64.5163L18.4298 68.0724L14.5771 66.4432C14.7119 67.3335 14.9026 68.2143 15.148 69.0805C17.6513 77.8063 22.5304 84.0623 26.0458 83.0537C29.5611 82.0452 30.3816 74.1542 27.8783 65.4284C27.1023 62.7234 25.6784 60.0689 24.0832 57.6932L22.0582 60.5782Z" fill="#E6E6E6"/>
<path fill-rule="evenodd" clip-rule="evenodd" d="M58.3668 2.34375H54.9659C55.4925 3.63505 54.8727 5.10905 53.5813 5.63578C53.2786 5.75922 52.9547 5.82277 52.6278 5.82277H37.7016C36.3069 5.82267 35.1764 4.69197 35.1765 3.29736C35.1765 2.97023 35.2401 2.64654 35.3635 2.34375H32.1871C29.2515 2.34375 26.8717 4.72353 26.8717 7.65902V75.0258C26.8717 77.9614 29.2515 80.3411 32.1871 80.3411H58.3668C61.3023 80.3411 63.6821 77.9614 63.6821 75.0258V7.65902C63.6821 4.72353 61.3023 2.34375 58.3668 2.34375Z" fill="#3F3D56"/>
<path fill-rule="evenodd" clip-rule="evenodd" d="M47.0379 11.1592H46.552V11.1616H46.0662V13.8389H46.5524V11.6272H47.0379V13.8368H47.5289L47.5263 11.6272H48.2146L48.674 11.1592H47.5375C47.5375 11.1368 47.5374 11.1142 47.5372 11.0915C47.5346 10.7434 47.5319 10.3786 48.1386 10.3786L48.3244 10.3779L48.7636 9.94922L48.3072 9.94987C47.9795 9.95532 47.7301 9.98929 47.583 10.0289C47.4306 10.0797 47.3121 10.1534 47.2274 10.2548C47.154 10.3281 47.1031 10.4243 47.0806 10.5372C47.0522 10.6502 47.0436 10.8986 47.0379 11.1592ZM54.5998 11.495C54.6828 11.5907 54.738 11.7012 54.7685 11.8326C54.7955 11.9476 54.8077 12.1397 54.8077 12.4549V13.8434H54.3259V12.2263C54.3259 11.8043 53.8905 11.6375 53.4607 11.6375H53.2452C52.8157 11.6375 52.3843 11.8043 52.3843 12.2263V13.8434H51.8961V11.2975H52.3821V11.4238C52.4436 11.3662 52.5265 11.3064 52.6031 11.2785C52.7749 11.2133 53.0166 11.1692 53.3924 11.1692C53.7368 11.1692 53.9875 11.1912 54.1575 11.2361C54.3414 11.2828 54.4858 11.3672 54.5993 11.4943L54.5998 11.495ZM46.0662 10.8241H46.5524V10.3252H46.0662V10.8241ZM41.4532 11.6976C41.5744 11.7396 41.6528 11.8108 41.698 11.9208C41.7341 12.0049 41.7747 12.2101 41.7747 12.5058C41.7747 12.8015 41.7341 13.0065 41.698 13.0908C41.6528 13.2008 41.5744 13.2719 41.4532 13.314C41.3275 13.3544 41.1066 13.3778 40.7203 13.3833C40.3342 13.3778 40.1132 13.3544 39.9875 13.314C39.8664 13.2719 39.7878 13.2008 39.7427 13.0908C39.7068 13.0065 39.666 12.8015 39.666 12.5058C39.666 12.2101 39.7068 12.0049 39.7427 11.9208C39.7878 11.8108 39.8664 11.7396 39.9875 11.6976C40.1132 11.6572 40.3342 11.6338 40.7203 11.6282C41.1066 11.6338 41.3275 11.6572 41.4532 11.6976ZM42.2072 13.2437C42.2773 13.0575 42.3126 12.8086 42.3126 12.506C42.3126 12.2034 42.2773 11.9546 42.2072 11.7683C42.1365 11.5744 41.8946 11.1371 40.7203 11.1371C39.5462 11.1371 39.3043 11.5744 39.2336 11.7683C39.1636 11.9546 39.1282 12.2034 39.1282 12.506C39.1282 12.8086 39.1636 13.0575 39.2336 13.2437C39.3043 13.4376 39.5462 13.8749 40.7203 13.8749C41.8946 13.8749 42.1365 13.4376 42.2072 13.2437ZM50.9246 11.9208C50.8794 11.8108 50.8009 11.7396 50.6798 11.6976C50.5541 11.6572 50.3332 11.6338 49.947 11.6282C49.5608 11.6338 49.3398 11.6572 49.2141 11.6976C49.093 11.7396 49.0144 11.8108 48.9694 11.9208C48.9333 12.0049 48.8926 12.2101 48.8926 12.5058C48.8926 12.8015 48.9333 13.0065 48.9694 13.0908C49.0144 13.2008 49.093 13.2719 49.2141 13.314C49.3398 13.3544 49.5608 13.3778 49.947 13.3833C50.3332 13.3778 50.5541 13.3544 50.6798 13.314C50.8009 13.2719 50.8794 13.2008 50.9246 13.0908C50.9606 13.0065 51.0013 12.8015 51.0013 12.5058C51.0013 12.2101 50.9606 12.0049 50.9246 11.9208ZM51.5392 12.506C51.5392 12.8086 51.5038 13.0575 51.4338 13.2437C51.363 13.4376 51.1211 13.8749 49.9469 13.8749C48.7727 13.8749 48.5308 13.4376 48.4601 13.2437C48.3901 13.0575 48.3547 12.8086 48.3547 12.506C48.3547 12.2034 48.3901 11.9546 48.4601 11.7683C48.5308 11.5744 48.7727 11.1371 49.9469 11.1371C51.1211 11.1371 51.363 11.5744 51.4338 11.7683C51.5038 11.9546 51.5392 12.2034 51.5392 12.506ZM42.1745 13.6904L42.1747 13.6902L42.1749 13.6901L42.1745 13.6904ZM42.1749 13.6901L42.1754 13.6896L42.1751 13.69L42.1749 13.6901ZM38.7386 11.8287C38.7078 11.6974 38.6521 11.5869 38.5686 11.4911L38.5679 11.4903C38.4537 11.3633 38.308 11.2789 38.1226 11.2323C37.9513 11.1873 37.7038 11.1654 37.3565 11.1654C36.9776 11.1654 36.7204 11.1958 36.547 11.2611L36.5469 11.2612L36.5462 11.2614C36.4029 11.3131 36.2839 11.4091 36.1961 11.5407C36.0938 11.4029 35.9665 11.3086 35.8083 11.2553C35.6286 11.1947 35.2946 11.1654 34.8729 11.1654C34.5564 11.1654 34.339 11.1879 34.2083 11.2341L34.2071 11.2345C34.1086 11.2717 34.0143 11.3347 33.9215 11.4242V11.2937H33.4344V13.8394H33.9201V12.2224C33.9201 11.8003 34.3488 11.6336 34.782 11.6336H34.9993C35.4326 11.6336 35.8657 11.8003 35.8657 12.2224V13.8394H36.351V12.2224C36.351 11.8003 36.7748 11.6336 37.208 11.6336H37.4254C37.8586 11.6336 38.293 11.8003 38.293 12.2224V13.8394H38.778V12.451C38.778 12.1357 38.7658 11.9437 38.7386 11.8287ZM56.7091 11.632C56.3229 11.6376 56.1019 11.661 55.9762 11.7014C55.855 11.7433 55.7765 11.8146 55.7313 11.9246C55.7079 11.9796 55.6823 12.0869 55.6674 12.2373H57.7507C57.7357 12.0869 57.7103 11.9796 57.6867 11.9246C57.6415 11.8146 57.563 11.7433 57.4419 11.7014C57.3161 11.661 57.0952 11.6376 56.7091 11.632ZM58.2959 12.6921H58.0473V12.6949H55.6607C55.6732 12.8894 55.7037 13.0262 55.7313 13.091C55.7765 13.2011 55.855 13.2722 55.9761 13.3143C56.1018 13.3547 56.3229 13.3781 56.7091 13.3837C57.0951 13.3781 57.3161 13.3547 57.4418 13.3143C57.5213 13.2867 57.5819 13.2464 57.6273 13.1911H58.2137C58.2079 13.209 58.2021 13.2268 58.1958 13.2437C58.125 13.4376 57.8831 13.8749 56.7091 13.8749C55.5349 13.8749 55.2929 13.4376 55.2222 13.2437C55.1522 13.0575 55.1167 12.8086 55.1167 12.506C55.1167 12.2034 55.1522 11.9546 55.2222 11.7683C55.2929 11.5745 55.5349 11.1371 56.7091 11.1371C57.8831 11.1371 58.125 11.5745 58.1958 11.7683C58.2659 11.9546 58.3012 12.2034 58.3012 12.506C58.3012 12.5707 58.2991 12.6325 58.2959 12.6921ZM44.8647 13.3122C44.9858 13.2701 45.0642 13.1989 45.1094 13.0891C45.1455 13.0048 45.1861 12.7997 45.1861 12.504C45.1861 12.2083 45.1455 12.0032 45.1094 11.9189C45.0642 11.809 44.9858 11.7378 44.8647 11.6958C44.7388 11.6555 44.5179 11.632 44.1318 11.6265C43.7457 11.632 43.5935 11.6555 43.4678 11.6958C43.3466 11.7378 43.2681 11.809 43.223 11.9189C43.1946 11.9855 43.1632 12.1278 43.1514 12.3303V12.6776C43.1632 12.8802 43.1946 13.0225 43.223 13.0891C43.2681 13.1989 43.3466 13.2701 43.4678 13.3122C43.5935 13.3527 43.7457 13.376 44.1318 13.3816C44.5179 13.376 44.7388 13.3527 44.8647 13.3122ZM44.1318 11.1371C45.306 11.1371 45.5478 11.5745 45.6186 11.7684C45.6887 11.9545 45.724 12.2034 45.724 12.506C45.724 12.8086 45.6887 13.0575 45.6186 13.2438C45.5478 13.4376 45.306 13.8748 44.1318 13.8748C43.6822 13.8748 43.3701 13.8105 43.1513 13.7206V13.8436H42.6658V9.94992H43.1513V11.2913C43.3701 11.2014 43.6822 11.1371 44.1318 11.1371Z" fill="white"/>
<path fill-rule="evenodd" clip-rule="evenodd" d="M32.0255 0.597656C28.1559 0.602073 25.02 3.73781 25.0156 7.60752V75.0732C25.0199 78.9429 28.1558 82.0788 32.0255 82.0832H58.0796C61.9493 82.0787 65.085 78.9428 65.0894 75.0732V28.5511H65.5384V20.0129H65.0894V7.60752C65.085 3.73791 61.9492 0.602073 58.0796 0.597656H32.0255ZM58.0796 82.2992H32.0255C28.0369 82.2947 24.8047 79.0624 24.8002 75.0738V7.60811C24.8047 3.61958 28.0369 0.387337 32.0255 0.382812H58.0796C62.0681 0.387337 65.3004 3.61958 65.3048 7.60811V19.798H65.7538V28.7672H65.3048V75.0738C65.3004 79.0624 62.0681 82.2947 58.0796 82.2992Z" fill="#9BABFA"/>
<path fill-rule="evenodd" clip-rule="evenodd" d="M80.4025 77.0782L81.1736 76.2454C81.0802 75.7165 80.9571 75.1931 80.8049 74.678L80.3567 74.9267L80.7516 74.5004C80.557 73.8653 80.3879 73.457 80.3879 73.457C80.3879 73.457 78.8349 75.1642 78.0735 77.1257L78.6428 78.4662L77.9015 77.6188C77.8295 77.8502 77.7721 78.086 77.7297 78.3245C77.31 80.7317 77.7558 82.8201 78.7256 82.9893C79.6954 83.1583 80.8218 81.3441 81.2416 78.9369C81.357 78.168 81.3538 77.3858 81.2321 76.6178L80.4025 77.0782Z" fill="#E6E6E6"/>
<path fill-rule="evenodd" clip-rule="evenodd" d="M91.8104 78.7247L92.901 78.4105C93.0946 77.9092 93.2596 77.3977 93.3955 76.8779L92.8834 76.8593L93.4417 76.6983C93.6034 76.0541 93.6697 75.6172 93.6697 75.6172C93.6697 75.6172 91.4578 76.2759 89.7922 77.5615L89.5865 79.0034L89.39 77.8947C89.2088 78.0556 89.0378 78.2277 88.8781 78.41C87.2746 80.2536 86.5767 82.272 87.3194 82.918C88.0622 83.5641 89.9643 82.5931 91.5678 80.7495C92.0642 80.1508 92.4657 79.4797 92.7585 78.7593L91.8104 78.7247Z" fill="#E6E6E6"/>
<g opacity="0.503627">
<path fill-rule="evenodd" clip-rule="evenodd" d="M32.4523 60.0847H57.3455V59.8516H32.4523V60.0847Z" fill="white"/>
<path fill-rule="evenodd" clip-rule="evenodd" d="M33.2385 56.8242C33.6727 56.8242 34.0246 57.1762 34.0246 57.6103C34.0246 58.0445 33.6727 58.3964 33.2385 58.3964C32.8043 58.3964 32.4524 58.0445 32.4524 57.6103C32.4524 57.1762 32.8043 56.8242 33.2385 56.8242Z" fill="#8CCDFF"/>
<path fill-rule="evenodd" clip-rule="evenodd" d="M32.4523 67.9441H57.3455V67.7109H32.4523V67.9441Z" fill="white"/>
<path fill-rule="evenodd" clip-rule="evenodd" d="M33.2385 64.6836C33.6727 64.6836 34.0246 65.0356 34.0246 65.4697C34.0246 65.9039 33.6727 66.2558 33.2385 66.2558C32.8043 66.2558 32.4524 65.9039 32.4524 65.4697C32.4524 65.0356 32.8043 64.6836 33.2385 64.6836Z" fill="#8CCDFF"/>
<path fill-rule="evenodd" clip-rule="evenodd" d="M49.0339 72.9375H56.8796C57.1371 72.9375 57.3458 73.1463 57.3458 73.4037V76.1398C57.3458 76.3973 57.1371 76.606 56.8796 76.606H49.0339C48.7764 76.606 48.5676 76.3973 48.5676 76.1398V73.4037C48.5676 73.1463 48.7764 72.9375 49.0339 72.9375Z" fill="#8CCDFF"/>
</g>
<g clip-path="url(#clip0_4284_11915)">
<path d="M33.077 41.5061H34.637V44.1061H37.397V41.5061H38.957V47.9961H37.397V45.2161H34.637V47.9961H33.077V41.5061ZM40.3524 41.5061H43.1124C43.8724 41.5061 44.4724 41.5661 44.9124 41.6861C45.3524 41.7994 45.6757 41.9994 45.8824 42.2861C46.089 42.5728 46.1924 42.9694 46.1924 43.4761V46.1161C46.1924 46.6094 46.0957 46.9928 45.9024 47.2661C45.709 47.5328 45.3924 47.7228 44.9524 47.8361C44.5124 47.9428 43.9024 47.9961 43.1224 47.9961H40.3524V41.5061ZM43.0524 46.8861C43.479 46.8861 43.799 46.8694 44.0124 46.8361C44.2324 46.7961 44.389 46.7228 44.4824 46.6161C44.5824 46.5094 44.6324 46.3428 44.6324 46.1161V43.4461C44.6324 43.1394 44.509 42.9261 44.2624 42.8061C44.0224 42.6794 43.6357 42.6161 43.1024 42.6161H41.9124V46.8861H43.0524ZM47.332 46.5161C47.332 46.1561 47.432 45.8428 47.632 45.5761C47.832 45.3094 48.092 45.1061 48.412 44.9661C48.6653 44.8528 48.962 44.7394 49.302 44.6261C49.642 44.5128 49.9053 44.3928 50.092 44.2661C50.2786 44.1394 50.372 43.9894 50.372 43.8161V42.9861C50.372 42.7794 50.2886 42.6428 50.122 42.5761C49.942 42.5028 49.662 42.4661 49.282 42.4661C48.822 42.4661 48.2153 42.5494 47.462 42.7161V41.6161C48.1286 41.4761 48.8253 41.4061 49.552 41.4061C50.3386 41.4061 50.922 41.5261 51.302 41.7661C51.6886 42.0061 51.882 42.4061 51.882 42.9661V43.8661C51.882 44.2061 51.7786 44.5028 51.572 44.7561C51.372 45.0028 51.112 45.1894 50.792 45.3161C50.492 45.4428 50.1853 45.5561 49.872 45.6561C49.532 45.7761 49.262 45.9094 49.062 46.0561C48.8686 46.2028 48.772 46.3761 48.772 46.5761V46.9061H51.892V47.9961H47.332V46.5161ZM55.4428 48.0961C55.1494 48.0961 54.9094 48.0861 54.7228 48.0661C54.5361 48.0461 54.3328 48.0061 54.1128 47.9461C53.8861 47.8794 53.7028 47.7861 53.5628 47.6661C53.4228 47.5394 53.3061 47.3594 53.2128 47.1261C53.1128 46.8994 53.0628 46.6261 53.0628 46.3061V43.1961C53.0628 42.8894 53.1094 42.6194 53.2028 42.3861C53.2961 42.1528 53.4161 41.9694 53.5628 41.8361C53.6894 41.7228 53.8628 41.6328 54.0828 41.5661C54.3028 41.4928 54.5228 41.4461 54.7428 41.4261C54.9961 41.4128 55.2294 41.4061 55.4428 41.4061C55.7428 41.4061 55.9828 41.4161 56.1628 41.4361C56.3428 41.4494 56.5428 41.4894 56.7628 41.5561C57.0028 41.6294 57.1928 41.7261 57.3328 41.8461C57.4728 41.9661 57.5928 42.1394 57.6928 42.3661C57.7928 42.5928 57.8428 42.8694 57.8428 43.1961V46.3061C57.8428 46.6128 57.7928 46.8828 57.6928 47.1161C57.5994 47.3494 57.4794 47.5294 57.3328 47.6561C57.1994 47.7694 57.0161 47.8628 56.7828 47.9361C56.5561 48.0094 56.3394 48.0528 56.1328 48.0661C55.9461 48.0861 55.7161 48.0961 55.4428 48.0961ZM55.4628 47.1561C55.7428 47.1561 55.9428 47.1394 56.0628 47.1061C56.1828 47.0661 56.2628 46.9961 56.3028 46.8961C56.3428 46.7961 56.3628 46.6328 56.3628 46.4061V43.0961C56.3628 42.8694 56.3428 42.7061 56.3028 42.6061C56.2628 42.5061 56.1828 42.4394 56.0628 42.4061C55.9428 42.3661 55.7428 42.3461 55.4628 42.3461C55.1761 42.3461 54.9694 42.3661 54.8428 42.4061C54.7228 42.4394 54.6428 42.5061 54.6028 42.6061C54.5628 42.7061 54.5428 42.8694 54.5428 43.0961V46.4061C54.5428 46.6328 54.5628 46.7961 54.6028 46.8961C54.6428 46.9961 54.7228 47.0661 54.8428 47.1061C54.9694 47.1394 55.1761 47.1561 55.4628 47.1561ZM45.3549 60.0961C45.0615 60.0961 44.8215 60.0861 44.6349 60.0661C44.4482 60.0461 44.2449 60.0061 44.0249 59.9461C43.7982 59.8794 43.6149 59.7861 43.4749 59.6661C43.3349 59.5394 43.2182 59.3594 43.1249 59.1261C43.0249 58.8994 42.9749 58.6261 42.9749 58.3061V55.1961C42.9749 54.8894 43.0215 54.6194 43.1149 54.3861C43.2082 54.1528 43.3282 53.9694 43.4749 53.8361C43.6015 53.7228 43.7749 53.6328 43.9949 53.5661C44.2149 53.4928 44.4349 53.4461 44.6549 53.4261C44.9082 53.4128 45.1415 53.4061 45.3549 53.4061C45.6549 53.4061 45.8949 53.4161 46.0749 53.4361C46.2549 53.4494 46.4549 53.4894 46.6749 53.5561C46.9149 53.6294 47.1049 53.7261 47.2449 53.8461C47.3849 53.9661 47.5049 54.1394 47.6049 54.3661C47.7049 54.5928 47.7549 54.8694 47.7549 55.1961V58.3061C47.7549 58.6128 47.7049 58.8828 47.6049 59.1161C47.5115 59.3494 47.3915 59.5294 47.2449 59.6561C47.1115 59.7694 46.9282 59.8628 46.6949 59.9361C46.4682 60.0094 46.2515 60.0528 46.0449 60.0661C45.8582 60.0861 45.6282 60.0961 45.3549 60.0961ZM45.3749 59.1561C45.6549 59.1561 45.8549 59.1394 45.9749 59.1061C46.0949 59.0661 46.1749 58.9961 46.2149 58.8961C46.2549 58.7961 46.2749 58.6328 46.2749 58.4061V55.0961C46.2749 54.8694 46.2549 54.7061 46.2149 54.6061C46.1749 54.5061 46.0949 54.4394 45.9749 54.4061C45.8549 54.3661 45.6549 54.3461 45.3749 54.3461C45.0882 54.3461 44.8815 54.3661 44.7549 54.4061C44.6349 54.4394 44.5549 54.5061 44.5149 54.6061C44.4749 54.7061 44.4549 54.8694 44.4549 55.0961V58.4061C44.4549 58.6328 44.4749 58.7961 44.5149 58.8961C44.5549 58.9961 44.6349 59.0661 44.7549 59.1061C44.8815 59.1394 45.0882 59.1561 45.3749 59.1561Z" fill="#8CCDFF"/>
<path opacity="0.646275" d="M38.3189 36.2492C38.1656 36.2492 38.0289 36.2426 37.9089 36.2292C37.7922 36.2159 37.6689 36.1909 37.5389 36.1542C37.3922 36.1142 37.2689 36.0642 37.1689 36.0042C37.0689 35.9409 36.9872 35.8559 36.9239 35.7492C36.8572 35.6359 36.8239 35.5092 36.8239 35.3692V33.8342C36.8239 33.6476 36.8722 33.4876 36.9689 33.3542C37.0656 33.2209 37.1989 33.1242 37.3689 33.0642C37.5322 33.0076 37.6872 32.9676 37.8339 32.9442C37.9839 32.9176 38.1456 32.9042 38.3189 32.9042C38.7322 32.9042 39.1056 32.9309 39.4389 32.9842V33.3592C39.3122 33.3292 39.1306 33.3026 38.8939 33.2792C38.6606 33.2526 38.4722 33.2392 38.3289 33.2392C37.6456 33.2392 37.3039 33.4359 37.3039 33.8292V35.3592C37.3039 35.4659 37.3356 35.5592 37.3989 35.6392C37.4656 35.7192 37.5556 35.7776 37.6689 35.8142C37.7756 35.8542 37.8822 35.8826 37.9889 35.8992C38.0956 35.9126 38.2156 35.9192 38.3489 35.9192C38.5722 35.9192 38.8106 35.8892 39.0639 35.8292V34.6942H38.3039V34.3542H39.5139V36.0992C39.0806 36.1992 38.6822 36.2492 38.3189 36.2492ZM41.249 36.2492C41.0356 36.2492 40.8756 36.2409 40.769 36.2242C40.6623 36.2109 40.5556 36.1792 40.449 36.1292C40.339 36.0792 40.259 35.9992 40.209 35.8892C40.159 35.7759 40.134 35.6242 40.134 35.4342V34.5942C40.134 34.4442 40.1523 34.3126 40.189 34.1992C40.2256 34.0859 40.274 33.9976 40.334 33.9342C40.384 33.8776 40.459 33.8342 40.559 33.8042C40.6623 33.7709 40.7673 33.7492 40.874 33.7392C40.994 33.7326 41.119 33.7292 41.249 33.7292C41.4223 33.7292 41.5523 33.7342 41.639 33.7442C41.729 33.7509 41.824 33.7676 41.924 33.7942C42.0273 33.8242 42.1073 33.8692 42.164 33.9292C42.2206 33.9892 42.269 34.0759 42.309 34.1892C42.3456 34.3059 42.364 34.4409 42.364 34.5942V35.4342C42.364 35.7176 42.299 35.9242 42.169 36.0542C42.1156 36.1076 42.039 36.1492 41.939 36.1792C41.839 36.2092 41.7356 36.2292 41.629 36.2392C41.5023 36.2459 41.3756 36.2492 41.249 36.2492ZM41.249 35.9542C41.389 35.9542 41.4906 35.9509 41.554 35.9442C41.6173 35.9376 41.679 35.9192 41.739 35.8892C41.799 35.8626 41.8406 35.8192 41.864 35.7592C41.8906 35.6959 41.904 35.6092 41.904 35.4992V34.5192C41.904 34.3692 41.8856 34.2609 41.849 34.1942C41.8123 34.1242 41.749 34.0792 41.659 34.0592C41.5723 34.0359 41.4356 34.0242 41.249 34.0242C41.0623 34.0242 40.924 34.0359 40.834 34.0592C40.7473 34.0792 40.6856 34.1242 40.649 34.1942C40.6123 34.2609 40.594 34.3692 40.594 34.5192V35.4992C40.594 35.6092 40.6056 35.6959 40.629 35.7592C40.6556 35.8192 40.699 35.8626 40.759 35.8892C40.819 35.9192 40.8806 35.9376 40.944 35.9442C41.0073 35.9509 41.109 35.9542 41.249 35.9542ZM41.454 32.7992H41.999L41.374 33.4342H41.004L41.454 32.7992ZM43.0658 32.9042H43.5158V33.3742H43.0658V32.9042ZM43.0658 33.7792H43.5158V36.1992H43.0658V33.7792ZM46.4236 36.2492C46.2569 36.2492 46.1352 36.2459 46.0586 36.2392C45.9852 36.2326 45.9002 36.2159 45.8036 36.1892C45.7002 36.1626 45.6202 36.1226 45.5636 36.0692C45.5069 36.0159 45.4586 35.9376 45.4186 35.8342C45.3786 35.7342 45.3586 35.6092 45.3586 35.4592V34.5692C45.3586 34.2992 45.4102 34.1059 45.5136 33.9892C45.5702 33.9226 45.6269 33.8726 45.6836 33.8392C45.7436 33.8026 45.8202 33.7776 45.9136 33.7642C46.0069 33.7509 46.0902 33.7426 46.1636 33.7392C46.2369 33.7326 46.3402 33.7292 46.4736 33.7292C46.7036 33.7292 46.9336 33.7542 47.1636 33.8042V34.1342C46.8969 34.0676 46.6486 34.0342 46.4186 34.0342C46.2452 34.0342 46.1169 34.0476 46.0336 34.0742C45.9536 34.0976 45.8969 34.1426 45.8636 34.2092C45.8336 34.2726 45.8186 34.3709 45.8186 34.5042V35.4942C45.8186 35.6176 45.8352 35.7092 45.8686 35.7692C45.9052 35.8292 45.9686 35.8726 46.0586 35.8992C46.1519 35.9226 46.2886 35.9342 46.4686 35.9342C46.7119 35.9342 46.9552 35.9026 47.1986 35.8392V36.1792C46.9719 36.2259 46.7136 36.2492 46.4236 36.2492ZM50.3779 33.3442C50.3779 33.5109 50.3629 33.6426 50.3329 33.7392C50.3062 33.8359 50.2546 33.9126 50.1779 33.9692C50.1046 34.0259 49.9962 34.0642 49.8529 34.0842V36.1992H49.4029V35.9042C49.3596 36.1342 49.0946 36.2492 48.6079 36.2492C48.2979 36.2492 48.0796 36.1942 47.9529 36.0842C47.8296 35.9709 47.7679 35.7942 47.7679 35.5542V33.7792H48.2179V35.5292C48.2179 35.5926 48.2229 35.6442 48.2329 35.6842C48.2462 35.7209 48.2679 35.7592 48.2979 35.7992C48.3579 35.8859 48.5046 35.9292 48.7379 35.9292C48.9846 35.9292 49.1579 35.9059 49.2579 35.8592C49.3546 35.8126 49.4029 35.7276 49.4029 35.6042V33.7792H49.4829C49.6329 33.7792 49.7379 33.7709 49.7979 33.7542C49.8612 33.7342 49.9046 33.6959 49.9279 33.6392C49.9512 33.5792 49.9629 33.4792 49.9629 33.3392L50.3779 33.3442ZM53.0991 33.3442C53.0991 33.5709 53.0691 33.7376 53.0091 33.8442C52.9491 33.9509 52.8341 34.0242 52.6641 34.0642C52.6908 34.1176 52.7091 34.1592 52.7191 34.1892C52.7558 34.3059 52.7741 34.4409 52.7741 34.5942V35.4342C52.7741 35.7176 52.7091 35.9242 52.5791 36.0542C52.5258 36.1076 52.4491 36.1492 52.3491 36.1792C52.2491 36.2092 52.1458 36.2292 52.0391 36.2392C51.9125 36.2459 51.7858 36.2492 51.6591 36.2492C51.4458 36.2492 51.2858 36.2409 51.1791 36.2242C51.0725 36.2109 50.9658 36.1792 50.8591 36.1292C50.7491 36.0792 50.6691 35.9992 50.6191 35.8892C50.5691 35.7759 50.5441 35.6242 50.5441 35.4342V34.5942C50.5441 34.4442 50.5625 34.3126 50.5991 34.1992C50.6358 34.0859 50.6841 33.9976 50.7441 33.9342C50.7941 33.8776 50.8691 33.8342 50.9691 33.8042C51.0725 33.7709 51.1775 33.7492 51.2841 33.7392C51.4041 33.7326 51.5291 33.7292 51.6591 33.7292C51.8158 33.7292 51.9358 33.7326 52.0191 33.7392C52.1025 33.7459 52.1875 33.7592 52.2741 33.7792C52.3975 33.7759 52.4858 33.7642 52.5391 33.7442C52.5958 33.7242 52.6341 33.6842 52.6541 33.6242C52.6741 33.5642 52.6841 33.4692 52.6841 33.3392L53.0991 33.3442ZM52.3141 34.5192C52.3141 34.3692 52.2958 34.2609 52.2591 34.1942C52.2225 34.1242 52.1591 34.0792 52.0691 34.0592C51.9825 34.0359 51.8458 34.0242 51.6591 34.0242C51.4725 34.0242 51.3341 34.0359 51.2441 34.0592C51.1575 34.0792 51.0958 34.1242 51.0591 34.1942C51.0225 34.2609 51.0041 34.3692 51.0041 34.5192V35.4992C51.0041 35.6092 51.0158 35.6959 51.0391 35.7592C51.0658 35.8192 51.1091 35.8626 51.1691 35.8892C51.2291 35.9192 51.2908 35.9376 51.3541 35.9442C51.4175 35.9509 51.5191 35.9542 51.6591 35.9542C51.7991 35.9542 51.9008 35.9509 51.9641 35.9442C52.0275 35.9376 52.0891 35.9192 52.1491 35.8892C52.2091 35.8626 52.2508 35.8192 52.2741 35.7592C52.3008 35.6959 52.3141 35.6092 52.3141 35.4992V34.5192ZM51.8641 32.7992H52.4091L51.7841 33.4342H51.4141L51.8641 32.7992ZM54.4509 36.2492C54.2843 36.2492 54.1626 36.2459 54.0859 36.2392C54.0126 36.2326 53.9276 36.2159 53.8309 36.1892C53.7276 36.1626 53.6476 36.1226 53.5909 36.0692C53.5343 36.0159 53.4859 35.9376 53.4459 35.8342C53.4059 35.7342 53.3859 35.6092 53.3859 35.4592V34.5692C53.3859 34.2992 53.4376 34.1059 53.5409 33.9892C53.5976 33.9226 53.6543 33.8726 53.7109 33.8392C53.7709 33.8026 53.8476 33.7776 53.9409 33.7642C54.0343 33.7509 54.1176 33.7426 54.1909 33.7392C54.2643 33.7326 54.3676 33.7292 54.5009 33.7292C54.7309 33.7292 54.9609 33.7542 55.1909 33.8042V34.1342C54.9243 34.0676 54.6759 34.0342 54.4459 34.0342C54.2726 34.0342 54.1443 34.0476 54.0609 34.0742C53.9809 34.0976 53.9243 34.1426 53.8909 34.2092C53.8609 34.2726 53.8459 34.3709 53.8459 34.5042V35.4942C53.8459 35.6176 53.8626 35.7092 53.8959 35.7692C53.9326 35.8292 53.9959 35.8726 54.0859 35.8992C54.1793 35.9226 54.3159 35.9342 54.4959 35.9342C54.7393 35.9342 54.9826 35.9026 55.2259 35.8392V36.1792C54.9993 36.2259 54.7409 36.2492 54.4509 36.2492Z" fill="white"/>
</g>
<path fill-rule="evenodd" clip-rule="evenodd" d="M0.979492 83.1198H93.6694V82.8867H0.979492V83.1198Z" fill="#3F3D56"/>
<path fill-rule="evenodd" clip-rule="evenodd" d="M76.0131 38.2773C76.0131 38.2773 75.6903 40.3209 76.0131 40.6436C76.3357 40.9663 73.9694 43.6554 73.9694 43.6554L72.0332 40.9663C72.0332 40.9663 72.8938 39.568 72.5711 38.3848L76.0131 38.2773Z" fill="#FFB8B8"/>
<path fill-rule="evenodd" clip-rule="evenodd" d="M68.9145 53.6606L67.5156 68.6115L68.053 80.2281L70.6344 79.4752L70.7425 69.0418L73.7546 60.0068L75.5827 69.7949L75.3672 79.6905L78.5941 79.7982L78.8096 68.827L79.1876 53.5039L68.9145 53.6606Z" fill="#2F2E41"/>
<path fill-rule="evenodd" clip-rule="evenodd" d="M75.4751 79.3711V81.7374C75.4751 81.7374 74.9373 83.4583 76.6583 83.3508C78.3793 83.2433 78.2717 82.4904 78.2717 82.4904L77.6263 79.5861L75.4751 79.3711Z" fill="#2F2E41"/>
<path fill-rule="evenodd" clip-rule="evenodd" d="M70.5274 79.3711V81.7374C70.5274 81.7374 71.0652 83.4583 69.3443 83.3508C67.6232 83.2433 67.7308 82.4904 67.7308 82.4904L68.3761 79.5861L70.5274 79.3711Z" fill="#2F2E41"/>
<path fill-rule="evenodd" clip-rule="evenodd" d="M74.1845 34.5195C75.5508 34.5195 76.6584 35.6271 76.6584 36.9934C76.6584 38.3596 75.5508 39.4673 74.1845 39.4673C72.8181 39.4673 71.7106 38.3596 71.7106 36.9934C71.7106 35.6271 72.8181 34.5195 74.1845 34.5195Z" fill="#FFB8B8"/>
<path fill-rule="evenodd" clip-rule="evenodd" d="M74.0768 42.4778L74.292 41.4022H74.8297L75.8698 39.9062L76.7659 40.7568L76.981 45.8122H71.1726L71.7105 40.4342L72.4937 39.9062C72.4937 39.9062 72.3558 41.7248 73.8617 41.7248L74.0768 42.4778Z" fill="#575A89"/>
<path fill-rule="evenodd" clip-rule="evenodd" d="M71.8181 41.2912C71.8181 41.2912 72.7089 42.4188 74.0383 42.3389C75.3677 42.2592 76.6583 41.1836 76.6583 41.1836L78.4869 55.1665C78.4869 55.1665 76.4433 55.3817 75.7979 54.306L70.8501 54.1985L70.9577 41.1836L71.8181 41.2912Z" fill="#D0CDE1"/>
<path fill-rule="evenodd" clip-rule="evenodd" d="M72.5443 39.7188L67.8384 42.0457L69.0216 48.7145C69.0216 48.7145 69.4518 51.1884 69.0216 52.1564C68.5914 53.1246 68.1611 59.5782 68.1611 59.5782C68.1611 59.5782 73.0013 60.1159 72.3559 52.4792C71.7107 44.8423 72.5443 39.7188 72.5443 39.7188Z" fill="#2F2E41"/>
<path fill-rule="evenodd" clip-rule="evenodd" d="M69.6669 55.8141L70.3123 56.4595C70.3123 56.4595 72.2483 59.794 73.1088 58.6107C73.9694 57.4276 71.6029 55.3839 71.6029 55.3839L70.5273 54.5234L69.6669 55.8141Z" fill="#FFB8B8"/>
<path fill-rule="evenodd" clip-rule="evenodd" d="M75.8722 39.7188L80.5304 42.0457L78.9171 50.0051C78.9171 50.0051 79.0246 52.5866 79.5624 53.985C80.1002 55.3833 79.8852 59.4706 79.8852 59.4706C79.8852 59.4706 79.2398 61.9445 77.8415 55.8135C76.4431 49.6825 75.8722 39.7188 75.8722 39.7188Z" fill="#2F2E41"/>
<path fill-rule="evenodd" clip-rule="evenodd" d="M79.4549 51.9438H78.4869C78.4869 51.9438 75.26 51.5137 75.4751 52.8044C75.6903 54.095 78.702 53.7724 78.702 53.7724L79.8851 53.6648L79.4549 51.9438Z" fill="#FFB8B8"/>
<path fill-rule="evenodd" clip-rule="evenodd" d="M68.4837 41.7188L67.7309 42.0415C67.7309 42.0415 66.9779 43.6548 66.8703 44.1928C66.7627 44.7306 65.472 51.1842 65.7947 51.9371C66.1174 52.6901 69.3442 56.6698 69.3442 56.6698L71.1727 54.7337L68.4837 51.0766L69.2366 46.4516L68.4837 41.7188Z" fill="#2F2E41"/>
<path fill-rule="evenodd" clip-rule="evenodd" d="M78.9172 41.832L80.3403 41.9521L80.6382 42.0472C80.6382 42.0472 83.6499 50.2219 83.0045 51.5127C82.3591 52.8033 79.5626 55.1696 79.5626 55.1696L78.8096 51.8352L80.2078 50.5445L78.8096 46.2421L78.9172 41.832Z" fill="#2F2E41"/>
<path fill-rule="evenodd" clip-rule="evenodd" d="M76.2775 35.0832C76.2775 35.0832 76.9247 33.8687 75.5009 33.7583C75.5009 33.7583 74.2065 32.9854 73.1709 33.8687C73.1709 33.8687 72.2648 33.6479 72.006 34.3104C72.006 34.3104 71.8765 33.9791 72.2648 33.7583C72.2648 33.7583 71.3588 33.5374 71.3588 34.6415C71.3588 34.6415 70.9704 35.7457 71.3588 36.7393C71.747 37.7328 71.8765 37.8433 71.8765 37.8433C71.8765 37.8433 71.2384 35.76 72.7917 35.6496C74.3449 35.5393 76.0833 34.5863 76.2128 35.8008C76.3422 37.0153 76.6011 37.3465 76.6011 37.3465C76.6011 37.3465 77.7661 35.5801 76.2775 35.0832Z" fill="#2F2E41"/>
<defs>
<clipPath id="clip0_4284_11915">
<rect width="31.5652" height="17.2174" fill="white" transform="translate(29.5826 30.9961)"/>
</clipPath>
</defs>
</svg>
