<svg width="48" height="48" viewBox="0 0 48 48" fill="none" xmlns="http://www.w3.org/2000/svg">
<path d="M23.4757 40.9953C19.4159 40.9953 15.3561 41.0059 11.2854 40.9953C8.77948 40.9846 6.73317 39.422 6.14226 37.1047C6.04377 36.7326 6 36.3499 6 35.9566C6 32.555 6 29.1534 6 25.7518C6 24.9545 6.44866 24.3273 7.15994 24.0935C7.86028 23.8596 8.64816 24.0722 9.1187 24.6462C9.41416 25.0076 9.49076 25.4222 9.49076 25.8793C9.47982 29.1109 9.49076 32.3318 9.49076 35.5633C9.49076 36.9665 10.1473 37.6149 11.5918 37.6149C19.5363 37.6149 27.4808 37.6149 35.4362 37.6149C36.8478 37.6149 37.5153 36.9665 37.5153 35.5952C37.5153 32.3424 37.5153 29.0896 37.5153 25.8262C37.5153 24.8057 38.1828 24.0722 39.1239 24.0084C40.1744 23.934 40.9951 24.6994 40.9951 25.773C41.0061 29.164 40.9951 32.5444 40.9951 35.9354C40.9951 36.4456 40.9185 36.9346 40.7653 37.4236C40.065 39.5708 38.0953 40.9846 35.7316 40.9953C31.65 41.0059 27.5683 40.9953 23.4757 40.9953Z" fill="#0465B0"/>
<path d="M25.7829 28.249C27.197 26.9212 28.5213 25.6672 29.8568 24.4238C30.3618 23.9496 30.9454 23.7388 31.6524 23.9179C32.9206 24.2341 33.4144 25.6251 32.6064 26.584C32.5166 26.6999 32.4044 26.8053 32.2921 26.9001C30.0251 29.0288 27.7469 31.168 25.4799 33.2966C24.4811 34.2345 23.516 34.2345 22.5284 33.2966C20.2277 31.1363 17.927 28.9761 15.6264 26.8158C15.155 26.3838 14.9081 25.8674 15.0316 25.2457C15.155 24.6029 15.559 24.1498 16.2212 23.9285C16.8833 23.7177 17.4894 23.8547 18.0168 24.2868C18.1066 24.3605 18.1964 24.4554 18.2862 24.5397C19.4758 25.6567 20.6654 26.7737 21.855 27.8907C21.9448 27.975 22.0121 28.1015 22.2029 28.1331C22.2029 27.9855 22.2029 27.8485 22.2029 27.701C22.2029 21.4205 22.2029 15.1399 22.2029 8.85938C22.2029 7.87937 22.6855 7.2471 23.5945 7.04688C24.6382 6.80451 25.6932 7.53162 25.7717 8.54325C25.783 8.71185 25.783 8.88046 25.783 9.05961C25.783 15.2769 25.7829 21.4837 25.7829 27.701C25.7829 27.8485 25.7829 27.9855 25.7829 28.249Z" fill="#0465B0"/>
</svg>
