<svg width="18" height="18" viewBox="0 0 18 18" fill="none" xmlns="http://www.w3.org/2000/svg">
<circle cx="9" cy="9" r="9" fill="#FFA50C"/>
<path d="M9.8457 4.5L9.65234 10.4238H8.24609L8.04688 4.5H9.8457ZM8 12.2578C8 12.0078 8.08594 11.8008 8.25781 11.6367C8.43359 11.4688 8.66406 11.3848 8.94922 11.3848C9.23828 11.3848 9.46875 11.4688 9.64062 11.6367C9.8125 11.8008 9.89844 12.0078 9.89844 12.2578C9.89844 12.5 9.8125 12.7051 9.64062 12.873C9.46875 13.041 9.23828 13.125 8.94922 13.125C8.66406 13.125 8.43359 13.041 8.25781 12.873C8.08594 12.7051 8 12.5 8 12.2578Z" fill="white"/>
</svg>
