<svg width="66" height="66" viewBox="0 0 66 66" fill="none" xmlns="http://www.w3.org/2000/svg">
<path d="M61.496 41.7465C59.5147 35.0682 55.0597 30.8387 48.3526 29.0331C47.9465 28.9218 47.8235 28.7734 47.8235 28.3405C47.8481 24.6675 47.8235 21.0068 47.8358 17.3338C47.8358 16.6907 47.6389 16.1837 47.2081 15.7261C42.9624 11.2615 38.7166 6.77229 34.4832 2.29539C34.1755 1.96148 33.8432 1.67704 33.4371 1.4668C25.8932 1.4668 18.337 1.4668 10.7931 1.4668C10.3008 1.6152 9.78392 1.59047 9.30397 1.78834C6.49807 2.93848 4.70132 5.58505 4.70132 8.63972C4.70132 15.0459 4.70132 21.4644 4.70132 27.8706C4.70132 34.8827 4.68901 41.8825 4.71363 48.8947C4.72593 51.2568 5.68584 53.2108 7.54413 54.6701C8.94708 55.7708 10.5715 56.1913 12.3191 56.1913C17.4017 56.2036 22.4966 56.2036 27.5792 56.1789C28.293 56.1789 28.736 56.4139 29.1421 57.0075C31.0496 59.8396 33.5725 61.942 36.686 63.3518C38.4705 64.1681 40.3411 64.6875 42.2978 64.7864C43.4423 64.7864 44.5991 64.7864 45.7436 64.7864C45.8052 64.6256 45.9406 64.6875 46.0513 64.6751C47.2943 64.5391 48.5249 64.3041 49.7064 63.896C54.0629 62.4119 57.4718 59.7035 59.7731 55.6718C62.2836 51.2939 62.9359 46.5944 61.496 41.7465ZM34.4462 6.11683C37.449 9.29518 40.3657 12.3746 43.3685 15.5529C41.2271 15.5529 39.1966 15.6148 37.1783 15.5282C35.7261 15.4664 34.5078 14.1431 34.4585 12.5848C34.397 10.4824 34.4462 8.36765 34.4462 6.11683ZM27.5053 39.5699C27.3946 39.8543 27.1238 39.7554 26.9146 39.7554C23.3088 39.7554 19.6907 39.7554 16.0849 39.7554C15.8141 39.7554 15.5557 39.7554 15.2849 39.8048C14.6819 39.9038 14.2635 40.3737 14.2143 40.9797C14.1774 41.5981 14.5096 42.1051 15.088 42.303C15.3711 42.4019 15.6541 42.4019 15.9372 42.4019C19.2353 42.4019 22.5458 42.4019 25.844 42.4019C26.0655 42.4019 26.287 42.4019 26.5454 42.4019C26.1762 44.1704 25.9793 45.8895 26.1024 47.658C26.2255 49.4388 26.5331 51.1702 27.1731 52.8274C27.3331 53.2355 27.2961 53.3468 26.8285 53.3468C21.9428 53.3345 17.0694 53.3592 12.1837 53.3345C9.84545 53.3221 8.25791 52.1101 7.6672 49.9953C7.53182 49.513 7.50721 49.0183 7.50721 48.5237C7.50721 35.328 7.50721 22.1446 7.50721 8.9489C7.50721 6.54968 8.70095 4.89249 10.83 4.27413C11.3222 4.12573 11.8391 4.10099 12.3437 4.10099C18.62 4.10099 24.8964 4.10099 31.1727 4.08862C31.665 4.08862 31.8249 4.18756 31.8249 4.71935C31.8003 7.2175 31.8003 9.70329 31.8126 12.2014C31.8373 15.1448 33.474 17.2967 36.243 18.0511C36.8214 18.2119 37.4121 18.2242 38.0151 18.2242C40.2303 18.2366 42.4455 18.2366 44.6607 18.2242C45.0914 18.2242 45.2145 18.3355 45.2145 18.7684C45.2022 21.8602 45.2022 24.9519 45.2145 28.0437C45.2145 28.39 45.1652 28.5508 44.7468 28.526C40.218 28.3653 36.2184 29.7875 32.6864 32.6072C32.3295 32.8916 31.9726 33.0153 31.5173 33.0153C26.3239 33.0029 21.1429 33.0029 15.9495 33.0029C15.6418 33.0029 15.3342 33.0153 15.0388 33.1142C14.4973 33.2997 14.1651 33.8192 14.202 34.4128C14.2389 34.994 14.6327 35.4764 15.1988 35.5877C15.4819 35.6371 15.7649 35.6495 16.0603 35.6495C20.3429 35.6495 24.6379 35.6495 28.9206 35.6495C29.1421 35.6495 29.3636 35.6495 29.7328 35.6495C28.8714 37.0099 28.0591 38.2219 27.5053 39.5699ZM44.07 62.1646C35.2339 62.0285 28.6499 54.8433 28.7237 46.5449C28.7975 37.8508 35.8492 31.0613 44.2792 31.1602C52.8445 31.2592 59.6623 38.2961 59.5639 46.7552C59.4654 55.2885 52.623 62.1522 44.07 62.1646Z" fill="#0465B0"/>
<path d="M15.7405 29.0457C17.8695 29.0457 20.0109 29.0457 22.1399 29.0457C24.2689 29.0457 26.4103 29.0457 28.5393 29.0457C29.4869 29.0457 30.0899 28.551 30.1145 27.7595C30.1392 26.968 29.5115 26.4362 28.5393 26.4238C28.4778 26.4238 28.4162 26.4238 28.3547 26.4238C24.2074 26.4238 20.0724 26.4238 15.9251 26.4238C15.7405 26.4238 15.5559 26.4238 15.3713 26.4486C14.6083 26.5475 14.1406 27.1535 14.2391 27.9203C14.3252 28.6252 14.8667 29.0457 15.7405 29.0457Z" fill="#0465B0"/>
<path d="M49.3127 45.4073C48.2297 45.3949 47.1344 45.3825 46.0514 45.4073C45.6207 45.4196 45.4238 45.3454 45.473 44.8508C45.5222 44.319 45.4853 43.7872 45.4853 43.1194C45.4361 42.5134 45.5838 41.759 45.4115 41.0293C45.2269 40.2378 44.4516 39.805 43.7132 40.077C43.1717 40.2749 42.8517 40.7943 42.8394 41.5735C42.8271 42.6247 42.8025 43.6759 42.8517 44.7271C42.8763 45.3083 42.704 45.432 42.1503 45.4196C40.9442 45.4073 39.7259 45.296 38.5321 45.4815C37.6953 45.6175 37.2399 46.4461 37.5476 47.2005C37.8183 47.8683 38.3721 48.0662 39.0367 48.0662C40.1197 48.0662 41.215 48.0909 42.2979 48.0538C42.7779 48.0291 42.864 48.2022 42.8517 48.6351C42.8148 49.6863 42.8394 50.7375 42.8394 51.7887C42.8394 52.3947 42.9871 52.9388 43.5655 53.248C44.4885 53.7427 45.4607 53.0501 45.4853 51.8753C45.5099 50.7375 45.4976 49.6121 45.4853 48.4743C45.4853 48.1528 45.5715 48.0538 45.8914 48.0538C46.999 48.0786 48.1066 48.0662 49.2142 48.0538C49.6942 48.0538 50.1618 47.9673 50.4818 47.5715C50.8018 47.1758 50.9002 46.7306 50.691 46.2482C50.4326 45.6299 49.9157 45.4196 49.3127 45.4073Z" fill="#0465B0"/>
</svg>
