<svg width="19" height="23" viewBox="0 0 19 23" fill="none" xmlns="http://www.w3.org/2000/svg">
<path d="M6.54315 14.8626V14.0548C6.79234 14.0548 7.01294 14.0119 7.20698 13.9251C7.4 13.8383 7.56749 13.7177 7.70843 13.5635C7.97906 13.2663 8.11489 12.8507 8.11489 12.3176C8.11489 11.8846 8.00051 11.522 7.77175 11.2299C7.54298 10.9378 7.12323 10.6345 6.51149 10.321V8.65936C6.6657 8.65936 6.78724 8.72779 6.87711 8.86464C6.96596 9.00149 7.01089 9.18226 7.01089 9.40694V9.4917H7.97294V9.37426C7.97294 8.88711 7.85141 8.51741 7.60732 8.26617C7.35609 8.00677 7.00068 7.87605 6.54417 7.87605V7.31128H6.08562V7.86787C5.864 7.86787 5.66383 7.90668 5.48715 7.98532C5.30945 8.06396 5.15524 8.17528 5.02247 8.31826C4.76817 8.59707 4.64051 8.97085 4.64051 9.4386C4.64051 9.842 4.7549 10.1933 4.98366 10.4926C5.21243 10.7918 5.59234 11.0869 6.12238 11.38V13.2234C5.92528 13.1887 5.78026 13.0927 5.69038 12.9375C5.59949 12.7823 5.55455 12.5617 5.55455 12.2777L5.55864 12.1848L5.56272 12.0878H4.57617V12.2461C4.57617 12.82 4.70179 13.2572 4.95404 13.5574C5.08987 13.7167 5.25124 13.8403 5.43915 13.9271C5.62707 14.0139 5.84358 14.0568 6.08664 14.0568V14.8646H6.54315V14.8626ZM6.51047 11.5782C6.71881 11.716 6.86383 11.8519 6.94451 11.9846C7.02621 12.1174 7.06604 12.2839 7.06604 12.484C7.06604 12.6924 7.01804 12.8599 6.92204 12.9855C6.82604 13.1111 6.68817 13.1908 6.50945 13.2234V11.5782H6.51047ZM5.74962 9.73681C5.66996 9.60813 5.63013 9.46822 5.63013 9.31707C5.63013 9.11996 5.672 8.96268 5.75575 8.84626C5.8017 8.78396 5.85481 8.73596 5.91609 8.70226C5.97736 8.66856 6.04375 8.65119 6.11728 8.65119L6.12136 10.0963C5.95285 9.98498 5.82928 9.86549 5.74962 9.73681Z" fill="#9F55CC"/>
<path d="M13.7536 19.0376H10.6928C10.318 19.0376 10.0137 19.3419 10.0137 19.7167C10.0137 20.0916 10.318 20.3959 10.6928 20.3959H13.7536C14.1284 20.3959 14.4327 20.0916 14.4327 19.7167C14.4327 19.3419 14.1284 19.0376 13.7536 19.0376Z" fill="#9F55CC"/>
<path d="M16.3833 0H7.96902C6.71592 0 5.69668 1.01923 5.69668 2.27234V4.6223C2.49498 4.992 0 7.71779 0 11.0165C0 14.3152 2.49498 17.042 5.69668 17.4107V19.8536C5.69668 21.1067 6.71592 22.126 7.96902 22.126H16.3833C17.6364 22.126 18.6557 21.1067 18.6557 19.8536V2.27234C18.6557 1.01923 17.6364 0 16.3833 0ZM7.968 1.35728H16.3823C16.8868 1.35728 17.2974 1.76783 17.2974 2.27234V2.90043H7.05396V2.27234C7.05396 1.76783 7.46349 1.35728 7.968 1.35728ZM11.474 15.026L11.6221 14.8402V7.19285L11.474 7.00698C11.3321 6.82928 11.1799 6.66077 11.0206 6.4994C11.1493 6.41362 11.3117 6.36153 11.4883 6.36153C11.904 6.36153 12.242 6.64443 12.242 6.99268V15.1343C12.242 15.4826 11.904 15.7654 11.4883 15.7654C11.2872 15.7654 11.1043 15.6991 10.9685 15.5898C11.1462 15.4131 11.3147 15.2252 11.474 15.026ZM9.8737 16.463C10.2853 16.8133 10.8562 17.0318 11.4873 17.0318C12.7363 17.0318 13.7525 16.1801 13.7525 15.1333V6.99268C13.7525 5.94587 12.7363 5.09413 11.4873 5.09413C10.8858 5.09413 10.3394 5.29226 9.93294 5.61396C9.67558 5.44647 9.408 5.29532 9.13021 5.16766C8.46945 4.8623 7.77294 4.67643 7.05294 4.60902V4.2577H17.2974V17.2943H7.86996C8.58281 17.134 9.25992 16.8521 9.8737 16.463ZM1.35728 11.0165C1.35728 8.21515 3.63677 5.93566 6.43813 5.93566C7.17957 5.93566 7.89447 6.09192 8.56238 6.40034C9.20885 6.69855 9.79302 7.1377 10.2638 7.67592V14.3571C9.29668 15.4662 7.91489 16.0974 6.43813 16.0974C3.63677 16.0974 1.35728 13.8179 1.35728 11.0165ZM16.3833 20.7687H7.96902C7.46451 20.7687 7.05396 20.3581 7.05396 19.8536V18.6526H17.2984V19.8536C17.2974 20.3581 16.8868 20.7687 16.3833 20.7687Z" fill="#9F55CC"/>
</svg>
