<svg width="24" height="23" viewBox="0 0 24 23" fill="none" xmlns="http://www.w3.org/2000/svg">
<path d="M7.79927 9.20142C5.60097 9.20142 3.40266 9.20142 1.1971 9.20142C1.09553 9.20142 0.993954 9.20883 0.892382 9.23107C0.413543 9.33488 0.159613 9.67595 0 10.1134C0 14.1024 0 18.0914 0 22.0804C0.23942 22.77 0.725514 23.0072 1.42201 22.9998C3.54051 22.9776 5.66626 22.9924 7.78476 22.9924C8.51028 22.9924 8.98912 22.5105 8.98912 21.769C8.98912 17.9876 8.98912 14.2136 8.98912 10.4322C8.99637 9.67594 8.52479 9.20142 7.79927 9.20142ZM8.24909 21.7023C8.24909 22.0953 8.12575 22.2213 7.74849 22.2213C5.5792 22.2213 3.40991 22.2213 1.24063 22.2213C0.877872 22.2213 0.754534 22.0953 0.754534 21.7171C0.754534 19.8338 0.754534 17.9505 0.754534 16.0747C0.754534 14.2136 0.754534 12.36 0.754534 10.499C0.754534 10.0912 0.870617 9.97252 1.26965 9.97252C3.43168 9.97252 5.59371 9.97252 7.75574 9.97252C8.13301 9.97252 8.25635 10.0986 8.25635 10.4915C8.24909 14.221 8.24909 17.9654 8.24909 21.7023ZM22.5635 9.194C20.445 9.21624 18.3192 9.20142 16.2007 9.20142C15.468 9.20142 14.9964 9.68336 14.9964 10.4248C14.9964 14.2062 14.9964 17.9802 14.9964 21.7616C14.9964 22.5031 15.468 22.985 16.2007 22.985C18.399 22.985 20.5973 22.985 22.8029 22.985C22.9045 22.985 23.006 22.9776 23.1076 22.9553C23.5865 22.859 23.8331 22.5105 24 22.073C24 18.084 24 14.095 24 10.106C23.7461 9.41644 23.26 9.17917 22.5635 9.194ZM22.7086 22.2213C20.5611 22.2213 18.4208 22.2213 16.2733 22.2213C15.8597 22.2213 15.7437 22.1101 15.7437 21.6875C15.7437 19.819 15.7437 17.958 15.7437 16.0895C15.7437 14.221 15.7437 12.36 15.7437 10.4915C15.7437 10.0912 15.8597 9.97252 16.2588 9.97252C18.4135 9.97252 20.5683 9.97252 22.7158 9.97252C23.1149 9.97252 23.231 10.0912 23.231 10.499C23.231 14.2285 23.231 17.9654 23.231 21.6949C23.2382 22.1027 23.1221 22.2213 22.7086 22.2213ZM16.8682 6.42839C16.8682 5.87971 16.8755 5.33104 16.8682 4.77495C16.8682 4.64149 16.8972 4.597 17.0351 4.60441C17.4268 4.61183 17.8186 4.61183 18.2031 4.60441C18.3337 4.60441 18.3773 4.63407 18.37 4.77495C18.3628 5.10119 18.37 5.42743 18.37 5.75367C18.37 6.12439 18.37 6.12439 18.0218 6.13922C17.8476 6.14663 17.7243 6.22078 17.6518 6.3839C17.5865 6.5396 17.6227 6.68789 17.7388 6.79911C18.2322 7.31071 18.7255 7.8149 19.2261 8.31909C19.3785 8.47479 19.5744 8.49704 19.734 8.34133C20.2563 7.82232 20.7642 7.29588 21.2721 6.76945C21.3809 6.65824 21.4027 6.51736 21.3301 6.36907C21.2648 6.22819 21.156 6.14663 21.0036 6.13922C20.9383 6.13181 20.8803 6.13181 20.815 6.13922C20.6481 6.16888 20.6118 6.10215 20.6118 5.93161C20.6191 5.20499 20.5828 4.47837 20.6264 3.75175C20.6844 2.79527 20.1112 2.23918 19.2116 2.29109C18.4861 2.33557 17.7606 2.2985 17.0351 2.30591C16.9045 2.30591 16.8682 2.26884 16.8682 2.13538C16.8755 1.58671 16.8755 1.03803 16.8682 0.481944C16.8682 0.140876 16.7376 0 16.4039 0C13.4728 0 10.5345 0 7.60338 0C7.26239 0 7.1318 0.133461 7.1318 0.474529C7.1318 1.00096 7.12455 1.52739 7.13906 2.05382C7.14631 2.2466 7.11004 2.30591 6.90689 2.30591C6.10883 2.29109 5.31802 2.2985 4.51995 2.2985C3.86699 2.31333 3.38089 2.8101 3.38089 3.46258C3.37364 4.96773 3.38089 6.48029 3.38089 7.98543C3.38089 8.29684 3.51874 8.43031 3.83071 8.43031C4.25877 8.43031 4.68682 8.43031 5.11487 8.43031C5.50665 8.43031 5.62273 8.31167 5.62273 7.90388C5.62273 6.87326 5.62999 5.84264 5.61548 4.81944C5.61548 4.63407 5.66626 4.597 5.83313 4.60441C6.2104 4.61924 6.58041 4.61183 6.95768 4.60441C7.09553 4.60441 7.12455 4.6489 7.12455 4.77495C7.11729 5.31621 7.12455 5.85747 7.12455 6.39873C7.12455 6.76945 7.24788 6.8955 7.61789 6.8955C9.07618 6.8955 10.5345 6.8955 11.9927 6.8955C13.4583 6.8955 14.9238 6.8955 16.3966 6.8955C16.7303 6.90292 16.8682 6.76945 16.8682 6.42839ZM17.4123 3.07702C18.0725 3.07702 18.74 3.07702 19.4002 3.07702C19.734 3.07702 19.8646 3.21049 19.8646 3.55897C19.8646 4.50803 19.8718 5.45709 19.8646 6.40614C19.8646 6.61375 19.9081 6.77687 20.1258 6.90292C19.9371 7.08828 19.7557 7.2514 19.5816 7.42935C19.5091 7.51091 19.4583 7.49608 19.393 7.42193C19.3132 7.33296 19.2261 7.2514 19.1463 7.16984C19.0157 7.03638 18.7908 6.91774 19.0665 6.70272C19.1318 6.65082 19.1173 6.5396 19.1173 6.45063C19.1173 5.73884 19.1173 5.03446 19.1173 4.32266C19.1173 3.9816 18.9867 3.85555 18.6457 3.85555C18.1233 3.85555 17.601 3.84813 17.0786 3.85555C16.9262 3.85555 16.8682 3.83331 16.8682 3.65536C16.8682 3.07702 16.8609 3.07702 17.4123 3.07702ZM6.55865 3.84072C6.1451 3.84072 5.73156 3.84072 5.31802 3.84072C5.0133 3.84072 4.88271 3.9816 4.87545 4.30042C4.87545 5.35328 4.8682 6.40614 4.87545 7.45159C4.87545 7.62212 4.84643 7.68144 4.66505 7.67403C4.12092 7.6592 4.12092 7.67403 4.12092 7.12535C4.12092 6.58409 4.12092 6.04283 4.12092 5.50157C4.12092 4.84909 4.12092 4.19662 4.12092 3.54414C4.12092 3.2179 4.25877 3.08444 4.57799 3.07702C5.36155 3.07702 6.15236 3.07702 6.93591 3.06961C7.07376 3.06961 7.11729 3.09185 7.11729 3.24756C7.1318 3.84072 7.13906 3.84072 6.55865 3.84072ZM16.1209 5.91678C16.1209 6.08732 16.0919 6.13922 15.9105 6.13922C14.5973 6.13181 13.2914 6.1318 11.9782 6.1318C10.6796 6.1318 9.38815 6.13181 8.08948 6.13922C7.92261 6.13922 7.87182 6.10956 7.87182 5.9242C7.87908 4.27818 7.87908 2.63957 7.87182 0.993545C7.87182 0.823011 7.90085 0.77111 8.08222 0.77111C10.6868 0.778524 13.2987 0.778524 15.9033 0.77111C16.0701 0.77111 16.1209 0.800768 16.1209 0.986131C16.1137 2.63215 16.1137 4.27818 16.1209 5.91678ZM13.1173 4.0854C13.1753 4.52286 12.9432 4.98997 12.5586 5.21241C12.4571 5.27172 12.3773 5.31621 12.3555 5.4645C12.3337 5.64245 12.1886 5.75367 12.0073 5.75367C11.8114 5.75367 11.6735 5.64245 11.6372 5.44967C11.6155 5.33104 11.5719 5.27914 11.4776 5.22723C11.1439 5.04929 10.9553 4.76012 10.89 4.38939C10.8392 4.10764 10.9625 3.89262 11.1874 3.84813C11.4123 3.80365 11.5792 3.95194 11.63 4.24852C11.6663 4.47837 11.8259 4.61924 12.029 4.60441C12.2249 4.58959 12.3773 4.41905 12.3773 4.22627C12.3773 4.01125 12.2249 3.86296 11.9855 3.84072C11.4631 3.79623 11.0713 3.49965 10.9335 3.03995C10.7956 2.58767 10.9335 2.11314 11.2963 1.81656C11.4559 1.68309 11.659 1.61636 11.6953 1.34944C11.717 1.20857 11.8912 1.14925 12.0435 1.17149C12.2031 1.19374 12.3337 1.29013 12.3555 1.44583C12.3773 1.60154 12.4571 1.65344 12.5659 1.71275C12.8996 1.89812 13.1173 2.29109 13.1245 2.6544C13.1245 2.89166 12.9794 3.06961 12.769 3.07702C12.5659 3.09185 12.4135 2.94356 12.3773 2.72113C12.37 2.69147 12.3773 2.6544 12.37 2.62474C12.3265 2.42455 12.1451 2.29109 11.9565 2.31333C11.7751 2.33557 11.6227 2.50611 11.63 2.69147C11.6372 2.90649 11.7533 3.03254 11.9492 3.06961C12.058 3.09185 12.1669 3.09185 12.2684 3.1141C12.7255 3.23273 13.052 3.61087 13.1173 4.0854ZM9.74365 1.52739C9.75091 1.735 9.59855 1.89812 9.38089 1.92036C9.25756 1.92777 9.09794 1.8907 9.02539 1.95002C8.93833 2.01675 9.00363 2.18728 8.99637 2.31333C8.97461 2.53576 8.82225 2.69147 8.6191 2.69147C8.41596 2.69147 8.2636 2.53576 8.24909 2.30591C8.24184 2.17245 8.24909 2.03899 8.24909 1.89812C8.24909 1.19374 8.28537 1.15666 8.96735 1.15666C9.1052 1.15666 9.2503 1.14925 9.38815 1.15666C9.59129 1.17891 9.74365 1.33461 9.74365 1.52739ZM15.7437 1.53481C15.7509 1.66827 15.7437 1.80173 15.7437 1.9426C15.7437 2.06865 15.7509 2.1947 15.7437 2.32074C15.7291 2.54318 15.5623 2.69888 15.3591 2.69147C15.1705 2.68406 15.0181 2.53576 14.9964 2.32816C14.9819 2.1947 15.0544 2.02416 14.9601 1.9426C14.8803 1.88329 14.7207 1.93519 14.5973 1.92036C14.3942 1.89812 14.2491 1.735 14.2491 1.54222C14.2491 1.34203 14.3942 1.17149 14.5973 1.16408C14.8585 1.14925 15.127 1.14925 15.3881 1.16408C15.5985 1.17891 15.7219 1.31237 15.7437 1.53481ZM9.74365 5.37552C9.73639 5.58313 9.58404 5.73884 9.36638 5.75367C9.24305 5.76108 9.11971 5.75367 8.99637 5.75367C8.27811 5.75367 8.24909 5.72401 8.24909 4.98997C8.24909 4.86392 8.24184 4.73788 8.24909 4.61183C8.2636 4.38939 8.40871 4.22627 8.61185 4.22627C8.81499 4.21886 8.97461 4.37456 8.99637 4.597C9.00363 4.72305 8.96735 4.88617 9.02539 4.96031C9.09069 5.04929 9.25756 4.97514 9.38089 4.98997C9.59855 5.01221 9.75091 5.16792 9.74365 5.37552ZM15.7437 4.60441C15.7509 4.73046 15.7437 4.85651 15.7437 4.98255C15.7437 5.71659 15.7146 5.75367 15.0036 5.75367C14.873 5.75367 14.7352 5.76108 14.6046 5.75367C14.3869 5.73884 14.2418 5.5683 14.2491 5.3607C14.2563 5.1605 14.4014 5.01221 14.6046 4.98997C14.7279 4.98256 14.8875 5.02704 14.9674 4.96031C15.0544 4.89358 14.9891 4.72305 14.9964 4.597C15.0181 4.37456 15.1705 4.21886 15.3736 4.21886C15.5695 4.22627 15.7291 4.38198 15.7437 4.60441ZM7.40024 11.1144C5.47037 11.1144 3.54776 11.1144 1.6179 11.1144C1.25514 11.1144 1.1318 11.2404 1.1318 11.6185C1.1318 13.1089 1.1318 14.5992 1.1318 16.0895C1.1318 17.5872 1.1318 19.085 1.1318 20.5827C1.1318 20.9238 1.26239 21.0646 1.59613 21.0646C3.53325 21.0646 5.46312 21.0646 7.40024 21.0646C7.74849 21.0646 7.87908 20.9312 7.87908 20.5679C7.87908 17.5798 7.87908 14.5918 7.87908 11.5963C7.87183 11.2478 7.74849 11.1144 7.40024 11.1144ZM6.9214 20.3084C5.30351 20.3009 3.69287 20.3009 2.07497 20.3084C1.92987 20.3084 1.87908 20.2787 1.87908 20.1156C1.88634 17.4389 1.88634 14.7549 1.87908 12.0782C1.87908 11.93 1.9081 11.8781 2.06771 11.8781C3.69287 11.8855 5.31802 11.8855 6.93591 11.8781C7.11004 11.8781 7.1318 11.9448 7.1318 12.0931C7.12455 13.4351 7.1318 14.7697 7.1318 16.1117C7.1318 17.4389 7.1318 18.7587 7.13906 20.0859C7.1318 20.2565 7.10278 20.3084 6.9214 20.3084ZM22.3603 11.1144C20.4522 11.1144 18.5369 11.1144 16.6288 11.1144C16.2443 11.1144 16.1209 11.233 16.1209 11.626C16.1209 13.1163 16.1209 14.6066 16.1209 16.0969C16.1209 17.5798 16.1209 19.0627 16.1209 20.5456C16.1209 20.9534 16.237 21.0721 16.636 21.0721C18.5369 21.0721 20.445 21.0721 22.3458 21.0721C22.7449 21.0721 22.8609 20.9534 22.8609 20.553C22.8609 17.5798 22.8609 14.6066 22.8609 11.6334C22.8609 11.233 22.7376 11.1144 22.3603 11.1144ZM21.9033 20.3084C20.2926 20.3009 18.6892 20.3009 17.0786 20.3084C16.9045 20.3084 16.8609 20.2639 16.8609 20.0859C16.8682 18.7439 16.8682 17.4093 16.8682 16.0673C16.8682 14.7401 16.8755 13.4203 16.8609 12.0931C16.8609 11.9151 16.9045 11.8706 17.0786 11.8706C18.6892 11.8781 20.2926 11.8781 21.9033 11.8706C22.0774 11.8706 22.1209 11.9151 22.1209 12.0931C22.1137 14.7549 22.1137 17.4241 22.1209 20.0859C22.1137 20.2639 22.0774 20.3084 21.9033 20.3084ZM5.70254 16.1636C5.57195 16.0524 5.5792 16.0005 5.67352 15.8745C6.19589 15.1923 6.0653 14.2359 5.39057 13.7094C4.72309 13.1978 3.77267 13.3461 3.27932 14.0505C2.88754 14.6066 2.90931 15.3332 3.33011 15.8967C3.36638 15.9486 3.50423 16.0005 3.37364 16.0969C2.77872 16.564 2.58283 17.1943 2.62636 17.9283C2.64087 18.2397 2.77146 18.3806 3.06892 18.3806C3.54776 18.3806 4.01935 18.3806 4.49819 18.3806C4.98428 18.3806 5.46312 18.3806 5.94921 18.3806C6.18863 18.3806 6.34825 18.262 6.37001 18.0543C6.43531 17.3277 6.29021 16.6604 5.70254 16.1636ZM4.50544 14.1766C4.91898 14.1766 5.25998 14.5325 5.25272 14.9551C5.24547 15.3703 4.90447 15.7114 4.50544 15.7114C4.0919 15.7114 3.75091 15.3555 3.75816 14.9328C3.75816 14.5176 4.09915 14.1766 4.50544 14.1766ZM5.48488 17.6243C5.1584 17.6169 4.83192 17.6243 4.50544 17.6243C4.17896 17.6243 3.85248 17.6169 3.526 17.6243C3.3954 17.6317 3.37364 17.5798 3.38815 17.4612C3.4607 16.9051 3.95405 16.4751 4.50544 16.4751C5.05683 16.4751 5.54293 16.9051 5.62273 17.4612C5.63724 17.5798 5.62273 17.6317 5.48488 17.6243ZM20.6989 16.1711C20.5538 16.045 20.5756 15.9931 20.6771 15.8671C21.0907 15.3332 21.0907 14.5918 20.6989 14.0431C20.2999 13.487 19.6034 13.272 18.9722 13.5092C18.0145 13.8726 17.688 15.0589 18.312 15.8893C18.3555 15.9486 18.4933 16.0005 18.3482 16.1117C17.7606 16.5714 17.5719 17.2017 17.6082 17.9283C17.6227 18.2545 17.7461 18.388 18.0653 18.388C18.5296 18.388 19.0012 18.388 19.4655 18.388C19.9516 18.388 20.4305 18.388 20.9166 18.388C21.156 18.388 21.3229 18.2768 21.3446 18.0692C21.4244 17.3351 21.2793 16.6604 20.6989 16.1711ZM19.4946 14.1766C19.9081 14.1766 20.2491 14.5325 20.2418 14.9551C20.2346 15.3629 19.8936 15.7039 19.4873 15.7039C19.0738 15.7039 18.7328 15.3481 18.74 14.9254C18.7473 14.5102 19.0883 14.1766 19.4946 14.1766ZM20.4595 17.6243C20.133 17.6095 19.8065 17.6243 19.48 17.6243C19.1608 17.6243 18.8416 17.6169 18.5224 17.6243C18.3918 17.6317 18.3482 17.5946 18.37 17.4538C18.4571 16.9051 18.9287 16.4825 19.4728 16.4751C20.0314 16.4676 20.5103 16.8829 20.6046 17.4464C20.6264 17.5724 20.6118 17.6317 20.4595 17.6243Z" fill="#52C142"/>
</svg>
