<svg width="24" height="23" viewBox="0 0 24 23" fill="none" xmlns="http://www.w3.org/2000/svg">
<path d="M7.05469 22.4066C5.94507 22.4066 4.83545 22.4066 3.72582 22.4066C2.62204 22.4066 1.87451 21.6657 1.87451 20.5718C1.87451 19.2578 1.87451 17.9381 1.87451 16.6241C1.87451 16.572 1.86867 16.52 1.88035 16.4736C1.90371 16.2826 2.04971 16.1553 2.23659 16.1611C2.42348 16.1669 2.56948 16.2942 2.57532 16.491C2.587 16.7515 2.58116 17.012 2.58116 17.2724C2.58116 18.378 2.58116 19.4836 2.58116 20.5949C2.58116 21.3011 3.00749 21.7236 3.72582 21.7236C5.97427 21.7236 8.22272 21.7236 10.4712 21.7236C10.5354 21.7236 10.6055 21.7178 10.6697 21.7236C10.8624 21.741 10.9909 21.8799 10.9968 22.0651C10.9968 22.2504 10.8683 22.3951 10.6756 22.4124C10.5296 22.424 10.3836 22.4182 10.2376 22.4182C9.16881 22.4066 8.11175 22.4066 7.05469 22.4066Z" fill="#EE6B6B"/>
<path d="M14.9041 4.34703C15.5699 4.34703 16.2298 4.34703 16.8956 4.34703C17.9293 4.35281 18.6885 5.10529 18.6885 6.12982C18.6943 7.4727 18.6885 8.82137 18.6885 10.1643C18.6885 10.4479 18.5717 10.5926 18.3439 10.5984C18.1103 10.6042 17.9877 10.4479 17.9877 10.1527C17.9877 8.82716 17.9877 7.50743 17.9877 6.18191C17.9877 5.45259 17.5672 5.03583 16.8372 5.03583C15.4939 5.03583 14.1507 5.03583 12.8075 5.03583C12.6031 5.03583 12.4396 4.98953 12.3812 4.77536C12.3111 4.52646 12.4863 4.34124 12.7724 4.33545C13.4908 4.34124 14.1974 4.34703 14.9041 4.34703Z" fill="#EE6B6B"/>
<path d="M9.20403 1.23869C9.20403 0.468851 8.72514 0 7.9484 0C5.71748 0 3.49239 0 1.26147 0C0.47889 0 0 0.468852 0 1.23291C0 4.71746 0 8.202 0 11.6866C0 12.4506 0.48473 12.9252 1.25563 12.9252C3.48655 12.9252 5.71163 12.9252 7.94256 12.9252C8.73098 12.9252 9.20403 12.4506 9.20403 11.6634C9.20403 9.93849 9.20403 8.21358 9.20403 6.48288C9.20987 4.74061 9.20987 2.99255 9.20403 1.23869ZM8.22289 10.6562C5.81092 10.6505 3.39895 10.6505 0.98114 10.6562C0.800096 10.6562 0.759215 10.6157 0.759215 10.4363C0.765055 7.79104 0.765055 5.14579 0.759215 2.50054C0.759215 2.3211 0.800096 2.28059 0.98114 2.28059C3.39311 2.28637 5.80508 2.28637 8.22289 2.28059C8.40393 2.28059 8.44481 2.3211 8.44481 2.50054C8.43897 3.83185 8.43897 5.16315 8.43897 6.49446C8.43897 7.8084 8.43313 9.12234 8.44481 10.4363C8.44481 10.6157 8.40393 10.6562 8.22289 10.6562Z" fill="#EE6B6B"/>
<path d="M6.13787 5.23253C6.13203 5.52194 5.98603 5.6898 5.76994 5.70138C5.54802 5.71296 5.39617 5.55667 5.36697 5.29041C5.33777 4.96048 5.17425 4.72316 4.85888 4.60739C4.54936 4.49741 4.27487 4.56109 4.04711 4.79262C3.81934 5.02415 3.76678 5.30778 3.88942 5.60298C4.02959 5.92712 4.29239 6.06604 4.64864 6.07762C5.33777 6.10077 5.92762 6.5812 6.08531 7.22949C6.24883 7.90093 5.95682 8.61289 5.32609 8.90809C5.03409 9.04122 4.95233 9.19172 4.97569 9.48692C4.99321 9.73003 4.82384 9.88052 4.59608 9.87473C4.37999 9.87473 4.19895 9.72424 4.22815 9.4985C4.26319 9.17435 4.13471 9.03543 3.8427 8.89073C3.36381 8.65919 3.11269 8.21928 3.06597 7.68676C3.04261 7.4205 3.19445 7.22949 3.42806 7.21791C3.64414 7.20633 3.80766 7.36841 3.83102 7.62309C3.87774 8.07458 4.21647 8.37557 4.64864 8.34663C5.05745 8.32347 5.37281 7.97618 5.36697 7.571C5.36113 7.15424 5.03993 6.84746 4.59608 6.82431C3.80766 6.78958 3.21197 6.28021 3.08349 5.52194C2.96669 4.84471 3.36965 4.15591 4.07047 3.88964C4.19311 3.84334 4.23399 3.79124 4.22231 3.66969C4.21647 3.57708 4.21647 3.47868 4.22231 3.38606C4.23983 3.16611 4.40335 3.01561 4.6136 3.0214C4.818 3.02719 4.99905 3.17769 4.97569 3.38028C4.93481 3.716 5.06913 3.8607 5.36697 4.00541C5.86922 4.27746 6.10283 4.73473 6.13787 5.23253Z" fill="#EE6B6B"/>
<path fill-rule="evenodd" clip-rule="evenodd" d="M23.2864 19.1286C23.329 19.1286 23.3621 19.0977 23.3621 19.0578V17.7134C23.3621 17.6735 23.3266 17.6425 23.2864 17.6425H20.508C20.4654 17.6425 20.4323 17.6757 20.4323 17.7134V19.0578C20.4323 19.0977 20.4654 19.1286 20.508 19.1286H23.2864ZM13.3939 13.6116C13.1549 13.6116 12.9608 13.7954 12.9608 14.0191C12.9608 14.2428 13.1549 14.4245 13.3939 14.4245H20.9694L20.9718 13.8486C20.9718 13.7179 20.8558 13.6116 20.7162 13.6116H13.3939ZM23.012 17.111H23.2865C23.6415 17.111 23.9303 17.3812 23.9326 17.7135V19.0579C23.9326 19.3901 23.6439 19.6603 23.2889 19.6603H23.0144V21.2062C23.0144 21.8352 22.4677 22.3491 21.7932 22.3491H13.2166C12.7623 22.3491 12.3931 22.0035 12.3931 21.5783V14.0169V14.0037C12.4002 13.492 12.8475 13.0801 13.3941 13.0801H20.7164C21.1708 13.0801 21.54 13.4256 21.54 13.8508L21.5376 14.4245H21.7909C22.463 14.4245 23.012 14.9361 23.012 15.5673V17.111Z" fill="#EE6B6B"/>
</svg>
