<svg width="23" height="22" viewBox="0 0 23 22" fill="none" xmlns="http://www.w3.org/2000/svg">
<path d="M7.159 19.7513C6.06196 19.7513 4.96493 19.7513 3.86789 19.7513C2.77663 19.7513 2.03758 19.0188 2.03758 17.9372C2.03758 16.6382 2.03758 15.3335 2.03758 14.0344C2.03758 13.9829 2.0318 13.9314 2.04335 13.8856C2.06645 13.6968 2.21079 13.5709 2.39556 13.5766C2.58032 13.5823 2.72467 13.7082 2.73044 13.9028C2.74199 14.1603 2.73621 14.4178 2.73621 14.6753C2.73621 15.7684 2.73621 16.8614 2.73621 17.9601C2.73621 18.6583 3.15771 19.0761 3.86789 19.0761C6.09083 19.0761 8.31377 19.0761 10.5367 19.0761C10.6002 19.0761 10.6695 19.0703 10.733 19.0761C10.9236 19.0932 11.0506 19.2306 11.0564 19.4137C11.0564 19.5968 10.9293 19.7399 10.7388 19.757C10.5945 19.7685 10.4501 19.7628 10.3058 19.7628C9.24914 19.7513 8.20407 19.7513 7.159 19.7513Z" fill="#698DE1"/>
<path d="M14.9195 1.89645C15.5777 1.89645 16.2302 1.89645 16.8884 1.89645C17.9104 1.90218 18.661 2.64612 18.661 3.65902C18.6667 4.98667 18.661 6.32005 18.661 7.6477C18.661 7.92811 18.5455 8.07117 18.3203 8.07689C18.0893 8.08262 17.9681 7.92811 17.9681 7.63625C17.9681 6.32577 17.9681 5.02101 17.9681 3.71053C17.9681 2.98948 17.5524 2.57745 16.8306 2.57745C15.5026 2.57745 14.1747 2.57745 12.8467 2.57745C12.6446 2.57745 12.4829 2.53167 12.4252 2.31993C12.3559 2.07386 12.5291 1.89073 12.812 1.88501C13.5222 1.89073 14.2208 1.89645 14.9195 1.89645Z" fill="#698DE1"/>
<path d="M22.5923 10.4461C22.5923 9.68497 22.1188 9.22144 21.3509 9.22144C19.1453 9.22144 16.9455 9.22144 14.7398 9.22144C13.9661 9.22144 13.4927 9.68497 13.4927 10.4404C13.4927 13.8854 13.4927 17.3304 13.4927 20.7754C13.4927 21.5308 13.9719 22.0001 14.7341 22.0001C16.9397 22.0001 19.1395 22.0001 21.3451 22.0001C22.1246 22.0001 22.5923 21.5308 22.5923 20.7525C22.5923 19.0472 22.5923 17.3418 22.5923 15.6308C22.5923 13.9083 22.5923 12.1743 22.5923 10.4461ZM21.6223 19.7511C19.2377 19.7453 16.8531 19.7453 14.4627 19.7511C14.2837 19.7511 14.2433 19.711 14.2433 19.5336C14.2491 16.9184 14.2491 14.3031 14.2433 11.6879C14.2433 11.5105 14.2837 11.4704 14.4627 11.4704C16.8473 11.4762 19.2319 11.4762 21.6223 11.4704C21.8013 11.4704 21.8417 11.5105 21.8417 11.6879C21.8359 13.0041 21.8359 14.3203 21.8359 15.6365C21.8359 16.9355 21.8301 18.2346 21.8417 19.5336C21.8417 19.711 21.8013 19.7511 21.6223 19.7511Z" fill="#698DE1"/>
<path d="M19.5612 14.3952C19.5555 14.6813 19.4111 14.8473 19.1975 14.8587C18.9781 14.8702 18.828 14.7157 18.7991 14.4524C18.7702 14.1262 18.6086 13.8916 18.2968 13.7771C17.9908 13.6684 17.7194 13.7314 17.4942 13.9603C17.269 14.1892 17.2171 14.4696 17.3383 14.7614C17.4769 15.0819 17.7367 15.2192 18.0889 15.2307C18.7702 15.2536 19.3534 15.7286 19.5093 16.3695C19.671 17.0333 19.3823 17.7372 18.7587 18.0291C18.47 18.1607 18.3892 18.3095 18.4122 18.6013C18.4296 18.8417 18.2621 18.9905 18.0369 18.9847C17.8233 18.9847 17.6443 18.8359 17.6732 18.6128C17.7078 18.2923 17.5808 18.155 17.2921 18.0119C16.8187 17.783 16.5704 17.3481 16.5242 16.8216C16.5011 16.5583 16.6512 16.3695 16.8822 16.358C17.0958 16.3466 17.2575 16.5068 17.2806 16.7586C17.3268 17.205 17.6616 17.5026 18.0889 17.474C18.4931 17.4511 18.8049 17.1077 18.7991 16.7071C18.7933 16.2951 18.4758 15.9918 18.0369 15.9689C17.2575 15.9346 16.6685 15.431 16.5415 14.6813C16.426 14.0118 16.8244 13.3308 17.5173 13.0675C17.6385 13.0218 17.679 12.9703 17.6674 12.8501C17.6616 12.7585 17.6616 12.6612 17.6674 12.5697C17.6847 12.3522 17.8464 12.2034 18.0543 12.2091C18.2564 12.2149 18.4353 12.3637 18.4122 12.5639C18.3718 12.8959 18.5046 13.0389 18.7991 13.182C19.2957 13.4452 19.5266 13.8973 19.5612 14.3952Z" fill="#698DE1"/>
<path fill-rule="evenodd" clip-rule="evenodd" d="M10.77 6.03742C10.8121 6.03742 10.8449 6.00679 10.8449 5.96738V4.63824C10.8449 4.59882 10.8098 4.56817 10.77 4.56817H8.02312C7.98101 4.56817 7.94825 4.60101 7.94825 4.63824V5.96738C7.94825 6.00679 7.98101 6.03742 8.02312 6.03742H10.77ZM0.989327 0.583059C0.753011 0.583059 0.561151 0.764781 0.561151 0.985961C0.561151 1.20712 0.753011 1.38667 0.989327 1.38667H8.47889L8.48123 0.817355C8.48123 0.688142 8.36659 0.583059 8.22854 0.583059H0.989327ZM10.4985 4.04285H10.7699C11.1209 4.04285 11.4063 4.30999 11.4087 4.63844V5.96758C11.4087 6.29603 11.1232 6.56315 10.7723 6.56315H10.5008V8.09158C10.5008 8.71342 9.96035 9.22145 9.29352 9.22145H0.814236C0.365002 9.22145 0 8.87986 0 8.45944V0.983833V0.970716C0.00701928 0.464877 0.449234 0.0576172 0.989718 0.0576172H8.22893C8.67817 0.0576172 9.04317 0.399186 9.04317 0.819606L9.04083 1.38676H9.29118C9.95567 1.38676 10.4985 1.89255 10.4985 2.51661V4.04285Z" fill="#698DE1"/>
</svg>
