<svg width="96" height="97" viewBox="0 0 96 97" fill="none" xmlns="http://www.w3.org/2000/svg">
<g clip-path="url(#clip0_804_3750)">
<g filter="url(#filter0_d_804_3750)">
<path d="M11.6362 40.8433C11.6362 24.7769 24.6607 11.7524 40.7271 11.7524H55.2726C71.3391 11.7524 84.3635 24.7769 84.3635 40.8433V55.3888C84.3635 71.4553 71.3391 84.4797 55.2726 84.4797H40.7271C24.6607 84.4797 11.6362 71.4553 11.6362 55.3888V40.8433Z" fill="url(#paint0_linear_804_3750)"/>
</g>
<path fill-rule="evenodd" clip-rule="evenodd" d="M30.4641 43.4155H33.9231C34.4742 43.4155 34.9209 42.9688 34.9209 42.4177V29.1138C34.9209 28.5627 34.4742 28.116 33.9231 28.116H30.4641C29.9131 28.116 29.4663 28.5627 29.4663 29.1138V42.4177C29.4663 42.9688 29.9131 43.4155 30.4641 43.4155ZM56.075 36.3347L59.8491 41.2701C61.0389 42.8261 63.5244 41.9847 63.5244 40.0259C63.5244 39.6332 63.4115 39.2487 63.1991 38.9183L59.3051 32.861C58.2035 31.1474 56.3062 30.1116 54.2691 30.1116H44.8989H43.5685H36.9165V41.4199L37.6681 41.9568C39.9319 43.5738 43.0266 43.3481 45.0319 41.4199H52.0165C53.2872 41.4199 54.3201 40.4021 54.3443 39.1372C54.3692 37.8319 53.276 36.7636 51.9705 36.7636H45.8967C45.3456 36.7636 44.8989 36.3168 44.8989 35.7658C44.8989 35.2147 45.3456 34.768 45.8967 34.768H52.9046C54.1477 34.768 55.3198 35.3472 56.075 36.3347ZM51.858 62.2731C57.0898 62.2731 61.3461 58.0168 61.3461 52.785C61.3461 47.5533 57.0898 43.2969 51.858 43.2969C46.6263 43.2969 42.3699 47.5533 42.3699 52.785C42.3699 58.0168 46.6263 62.2731 51.858 62.2731ZM48.9859 55.8872C49.2153 55.5365 49.6858 55.4378 50.0366 55.6675C50.4466 55.9357 50.7035 56.052 51.0466 56.1002V52.8946C50.5618 52.6725 50.1994 52.4586 49.9021 52.2254C49.2722 51.7313 48.9846 50.8742 49.1515 49.9883C49.3334 49.023 50.0054 48.2549 50.9051 47.9839C50.9527 47.9696 50.9999 47.9564 51.0466 47.944V47.4717C51.0466 47.0525 51.3865 46.7126 51.8057 46.7126C52.2248 46.7126 52.5647 47.0525 52.5647 47.4717V47.8609C53.3017 47.9885 53.8225 48.3513 54.0748 48.6409C54.3502 48.9569 54.3171 49.4364 54.0011 49.7117C53.6867 49.9856 53.2107 49.9545 52.9345 49.643C52.9172 49.6255 52.7966 49.5094 52.5647 49.4238V51.8764C52.6994 51.9265 52.8341 51.975 52.9662 52.0217C54.3005 52.4934 55.0426 53.7285 54.8129 55.0952C54.6343 56.1575 53.8259 57.2348 52.5647 57.5547V58.0984C52.5647 58.5175 52.2248 58.8574 51.8057 58.8574C51.3865 58.8574 51.0466 58.5175 51.0466 58.0984V57.6276C50.4338 57.5746 49.9257 57.4091 49.2055 56.9379C48.8547 56.7084 48.7564 56.238 48.9859 55.8872ZM51.0466 49.5898C50.8149 49.7674 50.6873 50.0363 50.6434 50.2696C50.5828 50.5913 50.6595 50.8903 50.839 51.031C50.9022 51.0806 50.9719 51.1293 51.0466 51.1772V49.5898ZM52.5646 53.4939C53.3861 53.8398 53.3657 54.5469 53.3158 54.8436C53.2467 55.255 52.9916 55.6875 52.5646 55.9321V53.4939ZM40.8521 64.1707C39.804 64.1707 38.9544 65.0203 38.9544 66.0683C38.9544 67.1164 39.804 67.966 40.8521 67.966H64.7621C65.8101 67.966 66.6597 67.1164 66.6597 66.0683C66.6597 65.0203 65.8101 64.1707 64.7621 64.1707H40.8521Z" fill="white"/>
</g>
<defs>
<filter id="filter0_d_804_3750" x="-1.36377" y="2.75244" width="98.7271" height="98.7273" filterUnits="userSpaceOnUse" color-interpolation-filters="sRGB">
<feFlood flood-opacity="0" result="BackgroundImageFix"/>
<feColorMatrix in="SourceAlpha" type="matrix" values="0 0 0 0 0 0 0 0 0 0 0 0 0 0 0 0 0 0 127 0" result="hardAlpha"/>
<feOffset dy="4"/>
<feGaussianBlur stdDeviation="6.5"/>
<feColorMatrix type="matrix" values="0 0 0 0 0.054902 0 0 0 0 0.662745 0 0 0 0 0.701961 0 0 0 0.2 0"/>
<feBlend mode="normal" in2="BackgroundImageFix" result="effect1_dropShadow_804_3750"/>
<feBlend mode="normal" in="SourceGraphic" in2="effect1_dropShadow_804_3750" result="shape"/>
</filter>
<linearGradient id="paint0_linear_804_3750" x1="11.871" y1="11.7524" x2="11.871" y2="84.0101" gradientUnits="userSpaceOnUse">
<stop stop-color="#4C68EF"/>
<stop offset="1" stop-color="#95C672"/>
</linearGradient>
<clipPath id="clip0_804_3750">
<rect width="96" height="96" fill="white" transform="translate(0 0.116211)"/>
</clipPath>
</defs>
</svg>
