<svg width="96" height="97" viewBox="0 0 96 97" fill="none" xmlns="http://www.w3.org/2000/svg">
<g clip-path="url(#clip0_804_3759)">
<g filter="url(#filter0_d_804_3759)">
<path d="M11.6362 40.8433C11.6362 24.7769 24.6607 11.7524 40.7271 11.7524H55.2726C71.3391 11.7524 84.3635 24.7769 84.3635 40.8433V55.3888C84.3635 71.4553 71.3391 84.4797 55.2726 84.4797H40.7271C24.6607 84.4797 11.6362 71.4553 11.6362 55.3888V40.8433Z" fill="url(#paint0_linear_804_3759)"/>
</g>
<path fill-rule="evenodd" clip-rule="evenodd" d="M46.3205 27.116C48.684 27.116 50.6 29.0222 50.6 31.3736V61.8583C50.6 64.2098 48.684 66.116 46.3205 66.116H35.2795C32.916 66.116 31 64.2098 31 61.8583V31.3736C31 29.0222 32.916 27.116 35.2795 27.116H46.3205ZM35.2 32.6874C34.4268 32.6874 33.8 33.311 33.8 34.0803C33.8 34.8495 34.4268 35.4731 35.2 35.4731H46.4C47.1732 35.4731 47.8 34.8495 47.8 34.0803C47.8 33.311 47.1732 32.6874 46.4 32.6874H35.2ZM35.2 38.2588C34.4268 38.2588 33.8 38.8824 33.8 39.6517C33.8 40.4209 34.4268 41.0445 35.2 41.0445H46.4C47.1732 41.0445 47.8 40.4209 47.8 39.6517C47.8 38.8824 47.1732 38.2588 46.4 38.2588H35.2ZM33.8 45.2231C33.8 44.4539 34.4268 43.8303 35.2 43.8303H46.4C47.1732 43.8303 47.8 44.4539 47.8 45.2231C47.8 45.9924 47.1732 46.616 46.4 46.616H35.2C34.4268 46.616 33.8 45.9924 33.8 45.2231ZM35.2 49.4017C34.4268 49.4017 33.8 50.0253 33.8 50.7945C33.8 51.5638 34.4268 52.1874 35.2 52.1874H46.4C47.1732 52.1874 47.8 51.5638 47.8 50.7945C47.8 50.0253 47.1732 49.4017 46.4 49.4017H35.2ZM63 38.2588C64.6569 38.2588 66 39.5951 66 41.2435L66 63.1313C66 64.7797 64.6569 66.116 63 66.116L55 66.116C53.3431 66.116 52 64.7797 52 63.1313V41.2435C52 39.5951 53.3431 38.2588 55 38.2588H63ZM54 43.2333C54 42.6838 54.4477 42.2384 55 42.2384H63C63.5523 42.2384 64 42.6838 64 43.2333C64 43.7828 63.5523 44.2282 63 44.2282H55C54.4477 44.2282 54 43.7828 54 43.2333ZM54 47.2129C54 46.6634 54.4477 46.218 55 46.218H63C63.5523 46.218 64 46.6634 64 47.2129C64 47.7624 63.5523 48.2078 63 48.2078H55C54.4477 48.2078 54 47.7624 54 47.2129ZM55 50.1976C54.4477 50.1976 54 50.643 54 51.1925C54 51.742 54.4477 52.1874 55 52.1874H63C63.5523 52.1874 64 51.742 64 51.1925C64 50.643 63.5523 50.1976 63 50.1976H55Z" fill="white"/>
<path fill-rule="evenodd" clip-rule="evenodd" d="M38.1241 63.1811C38.3538 62.8346 38.8249 62.7371 39.1762 62.9641C39.5867 63.2291 39.8439 63.344 40.1875 63.3916V60.2243C39.702 60.0047 39.3392 59.7935 39.0415 59.563C38.4108 59.0748 38.1228 58.2279 38.2899 57.3526C38.472 56.3987 39.1449 55.6398 40.0457 55.3721C40.0934 55.3579 40.1406 55.3449 40.1875 55.3327V54.866C40.1875 54.4518 40.5278 54.116 40.9475 54.116C41.3672 54.116 41.7075 54.4518 41.7075 54.866V55.2505C42.4454 55.3766 42.9669 55.7351 43.2195 56.0212C43.4953 56.3335 43.4621 56.8073 43.1457 57.0793C42.8309 57.3499 42.3543 57.3191 42.0778 57.0114C42.0604 56.9941 41.9397 56.8793 41.7075 56.7948V59.2182C41.8424 59.2676 41.9772 59.3156 42.1095 59.3618C43.4455 59.8278 44.1886 61.0482 43.9586 62.3986C43.7798 63.4482 42.9703 64.5127 41.7075 64.8288V65.366C41.7075 65.7801 41.3672 66.116 40.9475 66.116C40.5278 66.116 40.1875 65.7801 40.1875 65.366V64.9008C39.5738 64.8485 39.0651 64.6849 38.344 64.2194C37.9927 63.9926 37.8943 63.5278 38.1241 63.1811ZM40.1874 56.9588C39.9555 57.1343 39.8276 57.4 39.7837 57.6305C39.723 57.9484 39.7998 58.2438 39.9796 58.3828C40.0429 58.4318 40.1127 58.48 40.1874 58.5273V56.9588ZM41.7074 60.8164C42.5299 61.1582 42.5095 61.8568 42.4595 62.15C42.3903 62.5565 42.1349 62.9838 41.7074 63.2255V60.8164Z" fill="#9F55CC"/>
</g>
<defs>
<filter id="filter0_d_804_3759" x="-1.36377" y="2.75244" width="98.7271" height="98.7273" filterUnits="userSpaceOnUse" color-interpolation-filters="sRGB">
<feFlood flood-opacity="0" result="BackgroundImageFix"/>
<feColorMatrix in="SourceAlpha" type="matrix" values="0 0 0 0 0 0 0 0 0 0 0 0 0 0 0 0 0 0 127 0" result="hardAlpha"/>
<feOffset dy="4"/>
<feGaussianBlur stdDeviation="6.5"/>
<feColorMatrix type="matrix" values="0 0 0 0 0.104927 0 0 0 0 0.264218 0 0 0 0 0.72761 0 0 0 0.22 0"/>
<feBlend mode="normal" in2="BackgroundImageFix" result="effect1_dropShadow_804_3759"/>
<feBlend mode="normal" in="SourceGraphic" in2="effect1_dropShadow_804_3759" result="shape"/>
</filter>
<linearGradient id="paint0_linear_804_3759" x1="11.6362" y1="11.7524" x2="11.6362" y2="84.4797" gradientUnits="userSpaceOnUse">
<stop stop-color="#537DDC"/>
<stop offset="1" stop-color="#F34EB8"/>
</linearGradient>
<clipPath id="clip0_804_3759">
<rect width="96" height="96" fill="white" transform="translate(0 0.116211)"/>
</clipPath>
</defs>
</svg>
