<svg width="96" height="97" viewBox="0 0 96 97" fill="none" xmlns="http://www.w3.org/2000/svg">
<g clip-path="url(#clip0_804_3764)">
<g filter="url(#filter0_d_804_3764)">
<path d="M11.6362 40.8433C11.6362 24.7769 24.6607 11.7524 40.7271 11.7524H55.2726C71.3391 11.7524 84.3635 24.7769 84.3635 40.8433V55.3888C84.3635 71.4553 71.3391 84.4797 55.2726 84.4797H40.7271C24.6607 84.4797 11.6362 71.4553 11.6362 55.3888V40.8433Z" fill="url(#paint0_linear_804_3764)"/>
</g>
<path d="M64.9998 46.239C64.9998 44.9808 64.1894 43.9181 63.067 43.5179V33.5065L64.0334 33.1081C64.386 32.9627 64.3836 32.4624 64.0296 32.3204L63.7632 32.2135L50.7961 27.0107C49.3268 26.4212 47.6868 26.4212 46.2175 27.0107L33.1181 32.2135C32.7041 32.3995 32.7162 32.9914 33.1374 33.1604L35.6873 34.1835L48.5068 39.3271L61.1342 34.2826V43.5179C60.0118 43.9181 59.2015 44.9808 59.2015 46.239C59.2015 47.3909 59.8818 48.3797 60.8573 48.847L59.2515 53.6643L61.0842 54.2758L62.1006 51.2266L63.117 54.2758L64.9497 53.6643L63.344 48.847C64.3194 48.3798 64.9998 47.391 64.9998 46.239Z" fill="white"/>
<path d="M48.5071 40.266L38.8862 36.3372V39.4617C38.8862 41.7477 38.5426 43.4714 48.5071 43.4714C58.128 43.4714 58.128 41.7477 58.128 39.4617V36.3372L48.5071 40.266Z" fill="white"/>
<path fill-rule="evenodd" clip-rule="evenodd" d="M58.6187 45.4929C58.211 45.0294 57.7721 44.5929 57.3053 44.1864C51.7115 45.5831 43.0721 45.5036 38.7736 44.116C35.8473 46.6265 34 50.3109 34 54.4175C34 61.9831 40.2693 68.116 48.0033 68.116C55.5839 68.1163 61.7581 62.2243 62 54.8666L61.4812 53.5978L60.6574 55.6122L57.7743 54.8065C58.0489 53.8664 58.7628 51.5834 59.4218 49.9719C57.1153 48.3603 57.9116 46.3459 58.598 45.5401L58.6187 45.4929ZM47.2552 55.669V50.9997C46.2009 51.2755 45.4245 52.2164 45.4245 53.3344C45.4245 54.4526 46.2009 55.3933 47.2552 55.669ZM51.7198 59.1703C51.5614 57.4461 50.2284 56.0809 48.5353 55.8028V50.9997C49.5892 51.2756 50.3654 52.2164 50.3654 53.3344C50.3654 53.7045 50.672 54.0041 51.0501 54.0041C51.4282 54.0041 51.7348 53.7045 51.7348 53.3344C51.7321 51.5194 50.4051 49.9655 48.58 49.6396V48.5527C48.58 48.1826 48.2731 47.883 47.8953 47.883C47.5168 47.883 47.2106 48.1826 47.2106 48.5527V49.6396C45.2549 49.9861 43.8931 51.7353 44.0707 53.6713C44.2294 55.3952 45.562 56.7602 47.2552 57.0386V61.8411C46.2005 61.5644 45.4258 60.6236 45.4245 59.5075C45.4245 59.1374 45.1179 58.8378 44.7398 58.8378C44.3617 58.8378 44.0551 59.1374 44.0551 59.5075C44.0578 61.3225 45.3848 62.8767 47.2106 63.2023V64.4294C47.2106 64.7993 47.5168 65.0991 47.8953 65.0991C48.2731 65.0991 48.58 64.7993 48.58 64.4294V63.202C50.5353 62.8557 51.8974 61.1066 51.7198 59.1703ZM48.5353 61.8413C49.5951 61.5634 50.3712 60.6144 50.3645 59.492C50.3576 58.3803 49.5836 57.4475 48.5353 57.1728V61.8413Z" fill="white"/>
</g>
<defs>
<filter id="filter0_d_804_3764" x="-1.36377" y="2.75244" width="98.7271" height="98.7273" filterUnits="userSpaceOnUse" color-interpolation-filters="sRGB">
<feFlood flood-opacity="0" result="BackgroundImageFix"/>
<feColorMatrix in="SourceAlpha" type="matrix" values="0 0 0 0 0 0 0 0 0 0 0 0 0 0 0 0 0 0 127 0" result="hardAlpha"/>
<feOffset dy="4"/>
<feGaussianBlur stdDeviation="6.5"/>
<feColorMatrix type="matrix" values="0 0 0 0 0.247059 0 0 0 0 0.168627 0 0 0 0 0.886275 0 0 0 0.2 0"/>
<feBlend mode="normal" in2="BackgroundImageFix" result="effect1_dropShadow_804_3764"/>
<feBlend mode="normal" in="SourceGraphic" in2="effect1_dropShadow_804_3764" result="shape"/>
</filter>
<linearGradient id="paint0_linear_804_3764" x1="63.2452" y1="84.4797" x2="63.2452" y2="11.7524" gradientUnits="userSpaceOnUse">
<stop stop-color="#9721DF"/>
<stop offset="1" stop-color="#218CD7"/>
</linearGradient>
<clipPath id="clip0_804_3764">
<rect width="96" height="96" fill="white" transform="translate(0 0.116211)"/>
</clipPath>
</defs>
</svg>
