<svg width="96" height="97" viewBox="0 0 96 97" fill="none" xmlns="http://www.w3.org/2000/svg">
<g clip-path="url(#clip0_804_3692)">
<g filter="url(#filter0_d_804_3692)">
<rect x="11.6362" y="11.7524" width="72.7273" height="72.7273" rx="30" fill="url(#paint0_linear_804_3692)"/>
</g>
<g filter="url(#filter1_d_804_3692)">
<path fill-rule="evenodd" clip-rule="evenodd" d="M58.5559 24.8433H38.0203C36.3095 24.8433 34.9092 26.2422 34.9092 27.9544V37.8024V57.2653V67.1133C34.9092 68.8255 36.3095 70.2231 38.0203 70.2231H58.5559C60.2667 70.2231 61.667 68.8255 61.667 67.1133V57.2653V37.8024V27.9544C61.667 26.2422 60.2667 24.8433 58.5559 24.8433ZM42.4488 66.6408H39.0955C38.4783 66.6408 37.9769 66.1407 37.9769 65.5235C37.9769 64.905 38.4783 64.4036 39.0955 64.4036H42.4488C43.066 64.4036 43.5674 64.905 43.5674 65.5235C43.5674 66.1407 43.066 66.6408 42.4488 66.6408ZM42.4488 62.3769H39.0955C38.4783 62.3769 37.9769 61.8754 37.9769 61.2582C37.9769 60.641 38.4783 60.1396 39.0955 60.1396H42.4488C43.066 60.1396 43.5674 60.641 43.5674 61.2582C43.5674 61.8754 43.066 62.3769 42.4488 62.3769ZM42.4488 58.1129H39.0955C38.4783 58.1129 37.9769 57.6128 37.9769 56.9956C37.9769 56.3757 38.4783 55.8756 39.0955 55.8756H42.4488C43.066 55.8756 43.5674 56.3757 43.5674 56.9956C43.5674 57.6128 43.066 58.1129 42.4488 58.1129ZM42.4488 53.8502H39.0955C38.4783 53.8502 37.9769 53.3488 37.9769 52.7316C37.9769 52.1143 38.4783 51.6116 39.0955 51.6116H42.4488C43.066 51.6116 43.5674 52.1143 43.5674 52.7316C43.5674 53.3488 43.066 53.8502 42.4488 53.8502ZM49.9647 66.6408H46.6127C45.9942 66.6408 45.4941 66.1407 45.4941 65.5235C45.4941 64.905 45.9942 64.4036 46.6127 64.4036H49.9647C50.5833 64.4036 51.0833 64.905 51.0833 65.5235C51.082 66.1407 50.5819 66.6408 49.9647 66.6408ZM49.9647 62.3769H46.6127C45.9942 62.3769 45.4941 61.8754 45.4941 61.2582C45.4941 60.641 45.9942 60.1396 46.6127 60.1396H49.9647C50.5833 60.1396 51.0833 60.641 51.0833 61.2582C51.0833 61.8754 50.5819 62.3769 49.9647 62.3769ZM49.9647 58.1129H46.6127C45.9942 58.1129 45.4941 57.6128 45.4941 56.9956C45.4941 56.3757 45.9942 55.8756 46.6127 55.8756H49.9647C50.5833 55.8756 51.0833 56.3757 51.0833 56.9956C51.082 57.6128 50.5819 58.1129 49.9647 58.1129ZM49.9647 53.8502H46.6127C45.9942 53.8502 45.4941 53.3488 45.4941 52.7316C45.4941 52.1143 45.9942 51.6116 46.6127 51.6116H49.9647C50.5833 51.6116 51.0833 52.1143 51.0833 52.7316C51.0833 53.3488 50.5819 53.8502 49.9647 53.8502ZM57.4806 66.6408H54.126C53.5088 66.6408 53.0074 66.1407 53.0074 65.5235C53.0074 64.905 53.5088 64.4036 54.126 64.4036H57.4806C58.0979 64.4036 58.5993 64.905 58.5993 65.5235C58.598 66.1407 58.0965 66.6408 57.4806 66.6408ZM57.4806 62.3769H54.126C53.5088 62.3769 53.0074 61.8754 53.0074 61.2582C53.0074 60.641 53.5088 60.1396 54.126 60.1396H57.4806C58.0979 60.1396 58.5993 60.641 58.5993 61.2582C58.5993 61.8754 58.0965 62.3769 57.4806 62.3769ZM57.4806 58.1129H54.126C53.5088 58.1129 53.0074 57.6128 53.0074 56.9956C53.0074 56.3757 53.5088 55.8756 54.126 55.8756H57.4806C58.0979 55.8756 58.5993 56.3757 58.5993 56.9956C58.598 57.6128 58.0965 58.1129 57.4806 58.1129ZM57.4806 53.8502H54.126C53.5088 53.8502 53.0074 53.3488 53.0074 52.7316C53.0074 52.1143 53.5088 51.6116 54.126 51.6116H57.4806C58.0979 51.6116 58.5993 52.1143 58.5993 52.7316C58.5993 53.3488 58.0965 53.8502 57.4806 53.8502ZM58.6651 49.0322H37.9111V28.49H58.6651V49.0322Z" fill="white"/>
</g>
</g>
<defs>
<filter id="filter0_d_804_3692" x="3.63623" y="7.75244" width="88.7271" height="88.7273" filterUnits="userSpaceOnUse" color-interpolation-filters="sRGB">
<feFlood flood-opacity="0" result="BackgroundImageFix"/>
<feColorMatrix in="SourceAlpha" type="matrix" values="0 0 0 0 0 0 0 0 0 0 0 0 0 0 0 0 0 0 127 0" result="hardAlpha"/>
<feOffset dy="4"/>
<feGaussianBlur stdDeviation="4"/>
<feColorMatrix type="matrix" values="0 0 0 0 0.121569 0 0 0 0 0.427451 0 0 0 0 0.752941 0 0 0 0.2 0"/>
<feBlend mode="normal" in2="BackgroundImageFix" result="effect1_dropShadow_804_3692"/>
<feBlend mode="normal" in="SourceGraphic" in2="effect1_dropShadow_804_3692" result="shape"/>
</filter>
<filter id="filter1_d_804_3692" x="33.9092" y="23.8433" width="30.7578" height="49.3799" filterUnits="userSpaceOnUse" color-interpolation-filters="sRGB">
<feFlood flood-opacity="0" result="BackgroundImageFix"/>
<feColorMatrix in="SourceAlpha" type="matrix" values="0 0 0 0 0 0 0 0 0 0 0 0 0 0 0 0 0 0 127 0" result="hardAlpha"/>
<feOffset dx="1" dy="1"/>
<feGaussianBlur stdDeviation="1"/>
<feColorMatrix type="matrix" values="0 0 0 0 0 0 0 0 0 0 0 0 0 0 0 0 0 0 0.297558 0"/>
<feBlend mode="normal" in2="BackgroundImageFix" result="effect1_dropShadow_804_3692"/>
<feBlend mode="normal" in="SourceGraphic" in2="effect1_dropShadow_804_3692" result="shape"/>
</filter>
<linearGradient id="paint0_linear_804_3692" x1="11.6362" y1="11.7524" x2="11.6362" y2="84.4797" gradientUnits="userSpaceOnUse">
<stop stop-color="#78F4F0"/>
<stop offset="1" stop-color="#1E7FC0"/>
</linearGradient>
<clipPath id="clip0_804_3692">
<rect width="96" height="96" fill="white" transform="translate(0 0.116211)"/>
</clipPath>
</defs>
</svg>
