<svg width="96" height="97" viewBox="0 0 96 97" fill="none" xmlns="http://www.w3.org/2000/svg">
<g clip-path="url(#clip0_804_3715)">
<g filter="url(#filter0_d_804_3715)">
<path d="M11.6362 40.8433C11.6362 24.7769 24.6607 11.7524 40.7271 11.7524H55.2726C71.3391 11.7524 84.3635 24.7769 84.3635 40.8433V55.3888C84.3635 71.4553 71.3391 84.4797 55.2726 84.4797H40.7271C24.6607 84.4797 11.6362 71.4553 11.6362 55.3888V40.8433Z" fill="url(#paint0_linear_804_3715)"/>
</g>
<path d="M11.6362 40.8433C11.6362 24.7769 24.6607 11.7524 40.7271 11.7524H55.2726C71.3391 11.7524 84.3635 24.7769 84.3635 40.8433V55.3888C84.3635 71.4553 71.3391 84.4797 55.2726 84.4797H40.7271C24.6607 84.4797 11.6362 71.4553 11.6362 55.3888V40.8433Z" fill="url(#paint1_radial_804_3715)"/>
<g filter="url(#filter1_d_804_3715)">
<path fill-rule="evenodd" clip-rule="evenodd" d="M58.335 60.8215V60.3987V57.5846V36.0204C58.335 35.2571 57.7176 34.6424 56.957 34.6424H39.0432C38.2799 34.6424 37.6652 35.2571 37.6652 36.0204V60.8215C37.6652 61.5835 38.2799 62.2022 39.0432 62.2022H51.4572H56.957C57.7176 62.2022 58.335 61.5835 58.335 60.8215ZM48.6891 67.7128C49.1916 67.7128 49.6158 67.4305 49.855 67.0252C49.9766 66.8198 50.0671 66.5929 50.0671 66.3348C50.0671 65.5729 49.4483 64.9568 48.6891 64.9568H47.3111C46.5478 64.9568 45.9331 65.5729 45.9331 66.3348C45.9331 66.5929 46.0209 66.8198 46.1439 67.0252C46.3843 67.4305 46.8058 67.7128 47.3111 67.7128H48.6891ZM50.0671 30.5071H45.9331C45.1698 30.5071 44.5551 31.1231 44.5551 31.8851C44.5551 32.647 45.1698 33.2631 45.9331 33.2631H50.0671C50.8277 33.2631 51.4451 32.647 51.4451 31.8851C51.4451 31.1231 50.8277 30.5071 50.0671 30.5071ZM37.6652 27.7524H58.335C59.8562 27.7524 61.091 28.9872 61.091 30.5071V57.5846V59.1666V66.3348C61.091 67.8574 59.8576 69.0922 58.335 69.0922H55.8465H51.4572H37.6652C36.1426 69.0922 34.9092 67.8574 34.9092 66.3348V30.5071C34.9092 28.9872 36.1426 27.7524 37.6652 27.7524ZM50.1022 50.8851C50.1022 50.0475 49.4227 49.368 48.5851 49.368C47.7475 49.368 47.0679 50.0475 47.0679 50.8851C47.0679 51.7227 47.7475 52.4023 48.5851 52.4023C49.4227 52.4023 50.1022 51.7227 50.1022 50.8851ZM52.1766 46.7674C52.1613 46.7521 52.146 46.738 52.1307 46.7239L52.1077 46.7025L52.0388 46.6377C52.0299 46.6287 52.02 46.6207 52.0084 46.6113C52.006 46.6094 52.0035 46.6074 52.001 46.6053C50.0394 44.8247 47.0375 44.8949 45.1664 46.7674L44.9462 46.9876L44.6423 47.2902C44.2721 47.6604 44.2748 48.2643 44.645 48.6344C45.0165 49.0073 45.619 49.0073 45.9892 48.6371L46.5133 48.1143C47.7036 46.9241 49.6408 46.9241 50.8297 48.113L51.208 48.4791C51.5754 48.8452 52.1726 48.8452 52.5414 48.4764C52.7184 48.298 52.817 48.0616 52.8183 47.809C52.8183 47.5591 52.7211 47.3226 52.5427 47.1443L52.1766 46.7674ZM54.0808 45.0233L54.3956 45.3381C54.7333 45.6758 54.732 46.2243 54.3929 46.5634C54.0551 46.9025 53.5039 46.9039 53.1676 46.5675L52.7204 46.119C50.1968 43.7345 46.2276 43.7507 43.7243 46.1676C43.7211 46.1708 43.7187 46.174 43.7158 46.1779C43.7151 46.1789 43.7143 46.18 43.7135 46.1811L43.1447 46.7485C42.807 47.0863 42.2585 47.0849 41.9194 46.7458C41.5803 46.4067 41.5789 45.8582 41.9153 45.5205L42.4854 44.9517C42.4937 44.9434 42.5025 44.9368 42.5111 44.9302C42.518 44.925 42.5248 44.9199 42.5314 44.9139C45.6264 41.935 50.4886 41.8485 53.6863 44.6559C53.7363 44.6896 53.7836 44.7261 53.8282 44.7693L54.0768 45.0193C54.0795 45.0206 54.0795 45.022 54.0808 45.0233Z" fill="white"/>
</g>
</g>
<defs>
<filter id="filter0_d_804_3715" x="3.63623" y="7.75244" width="88.7271" height="88.7273" filterUnits="userSpaceOnUse" color-interpolation-filters="sRGB">
<feFlood flood-opacity="0" result="BackgroundImageFix"/>
<feColorMatrix in="SourceAlpha" type="matrix" values="0 0 0 0 0 0 0 0 0 0 0 0 0 0 0 0 0 0 127 0" result="hardAlpha"/>
<feOffset dy="4"/>
<feGaussianBlur stdDeviation="4"/>
<feColorMatrix type="matrix" values="0 0 0 0 0.909804 0 0 0 0 0.462745 0 0 0 0 0.6 0 0 0 0.2 0"/>
<feBlend mode="normal" in2="BackgroundImageFix" result="effect1_dropShadow_804_3715"/>
<feBlend mode="normal" in="SourceGraphic" in2="effect1_dropShadow_804_3715" result="shape"/>
</filter>
<filter id="filter1_d_804_3715" x="31.9092" y="24.7524" width="34.1816" height="49.3396" filterUnits="userSpaceOnUse" color-interpolation-filters="sRGB">
<feFlood flood-opacity="0" result="BackgroundImageFix"/>
<feColorMatrix in="SourceAlpha" type="matrix" values="0 0 0 0 0 0 0 0 0 0 0 0 0 0 0 0 0 0 127 0" result="hardAlpha"/>
<feOffset dx="1" dy="1"/>
<feGaussianBlur stdDeviation="2"/>
<feColorMatrix type="matrix" values="0 0 0 0 0 0 0 0 0 0 0 0 0 0 0 0 0 0 0.102491 0"/>
<feBlend mode="normal" in2="BackgroundImageFix" result="effect1_dropShadow_804_3715"/>
<feBlend mode="normal" in="SourceGraphic" in2="effect1_dropShadow_804_3715" result="shape"/>
</filter>
<linearGradient id="paint0_linear_804_3715" x1="84.3635" y1="84.4797" x2="84.3635" y2="11.7524" gradientUnits="userSpaceOnUse">
<stop stop-color="#FFA35F"/>
<stop offset="1" stop-color="#E7759A"/>
</linearGradient>
<radialGradient id="paint1_radial_804_3715" cx="0" cy="0" r="1" gradientUnits="userSpaceOnUse" gradientTransform="translate(67.3008 25.9563) rotate(-90) scale(41.7788 34.376)">
<stop stop-color="white" stop-opacity="0.313019"/>
<stop offset="1" stop-color="white" stop-opacity="0.01"/>
</radialGradient>
<clipPath id="clip0_804_3715">
<rect width="96" height="96" fill="white" transform="translate(0 0.116211)"/>
</clipPath>
</defs>
</svg>
