<svg width="96" height="97" viewBox="0 0 96 97" fill="none" xmlns="http://www.w3.org/2000/svg">
<g clip-path="url(#clip0_804_3720)">
<g filter="url(#filter0_d_804_3720)">
<path d="M12 41.2082C12 25.1411 25.0249 12.1162 41.092 12.1162H55.638C71.7051 12.1162 84.73 25.1411 84.73 41.2082V55.7542C84.73 71.8213 71.7051 84.8462 55.638 84.8462H41.092C25.0249 84.8462 12 71.8213 12 55.7542V41.2082Z" fill="url(#paint0_linear_804_3720)"/>
</g>
<g filter="url(#filter1_d_804_3720)">
<path d="M28.6592 39.1896C28.6592 36.8757 30.5293 35 32.8362 35H64.1637C66.4706 35 68.3407 36.8757 68.3407 39.1896V58.0428C68.3407 60.3567 66.4706 62.2324 64.1637 62.2324H32.8362C30.5293 62.2324 28.6592 60.3567 28.6592 58.0428V39.1896Z" fill="white"/>
</g>
<path opacity="0.80492" d="M28.6592 40.4465H68.3407V45.1149H28.6592V40.4465Z" fill="#7FD0FF"/>
<path d="M44.6482 55.4817H45.2126C45.4814 55.4817 45.6805 55.4283 45.81 55.3213C45.9395 55.2144 46.0042 55.0725 46.0042 54.8956C46.0042 54.7245 45.9395 54.5914 45.81 54.4961C45.6829 54.4009 45.507 54.3532 45.2822 54.3532C45.0794 54.3532 44.9096 54.398 44.7728 54.4874C44.636 54.5749 44.5675 54.6895 44.5675 54.8315H43.5084C43.5084 54.6098 43.5829 54.4116 43.7319 54.2366C43.8834 54.0597 44.0935 53.9217 44.3623 53.8225C44.6335 53.7234 44.9316 53.6738 45.2566 53.6738C45.821 53.6738 46.2632 53.7817 46.5833 53.9975C46.9034 54.2113 47.0634 54.5068 47.0634 54.8839C47.0634 55.0783 46.9889 55.2572 46.8399 55.4205C46.6908 55.5838 46.4953 55.7092 46.2534 55.7966C46.554 55.8822 46.7775 56.0105 46.9241 56.1815C47.0732 56.3526 47.1477 56.5548 47.1477 56.788C47.1477 57.1652 46.9742 57.4675 46.6273 57.6949C46.2828 57.9223 45.8259 58.0361 45.2566 58.0361C44.7239 58.0361 44.2878 57.9243 43.9482 57.7007C43.611 57.4772 43.4424 57.1817 43.4424 56.8143H44.5016C44.5016 56.9737 44.5761 57.1039 44.7251 57.205C44.8766 57.3061 45.0623 57.3567 45.2822 57.3567C45.5339 57.3567 45.7306 57.3042 45.8723 57.1992C46.0164 57.0923 46.0885 56.9513 46.0885 56.7764C46.0885 56.3526 45.7953 56.1407 45.2089 56.1407H44.6482V55.4817Z" fill="#289FE2"/>
<path d="M52.2164 57.4412C52.0185 57.6298 51.7388 57.7766 51.3771 57.8815C51.0155 57.9846 50.6148 58.0361 50.175 58.0361C49.7132 58.0361 49.3076 57.9564 48.9582 57.797C48.6113 57.6356 48.3425 57.4023 48.1519 57.0971C47.9638 56.7919 47.8673 56.4333 47.8624 56.0212V55.7325C47.8624 55.3087 47.9516 54.9423 48.1299 54.6332C48.3107 54.3221 48.5697 54.085 48.9069 53.9217C49.2465 53.7564 49.6436 53.6738 50.0981 53.6738C50.7309 53.6738 51.2257 53.7944 51.5824 54.0354C51.9391 54.2745 52.1505 54.6235 52.2164 55.0822H51.1462C51.0974 54.8392 50.9886 54.6614 50.8201 54.5486C50.6539 54.4359 50.4242 54.3795 50.131 54.3795C49.7572 54.3795 49.4726 54.4913 49.2771 54.7148C49.0816 54.9384 48.9827 55.2708 48.9802 55.7121V55.9833C48.9802 56.4284 49.0865 56.7647 49.2991 56.9922C49.5116 57.2196 49.8232 57.3333 50.2337 57.3333C50.6466 57.3333 50.941 57.2633 51.1169 57.1234V56.3915H50.1164V55.7471H52.2164V57.4412Z" fill="#289FE2"/>
<path d="M53.3746 58.3422H52.5866L54.551 53.7321H55.339L53.3746 58.3422Z" fill="#289FE2"/>
<path d="M58.9381 56.3798H59.5428V57.0592H58.9381V57.9778H57.8789V57.0592H55.6909L55.6432 56.5285L57.8679 53.7321H58.9381V56.3798ZM56.6987 56.3798H57.8789V54.881L57.8092 54.9773L56.6987 56.3798Z" fill="#289FE2"/>
<path d="M64.4503 57.4412C64.2523 57.6298 63.9726 57.7766 63.611 57.8815C63.2493 57.9846 62.8486 58.0361 62.4088 58.0361C61.947 58.0361 61.5415 57.9564 61.1921 57.797C60.8451 57.6356 60.5763 57.4023 60.3857 57.0971C60.1976 56.7919 60.1011 56.4333 60.0962 56.0212V55.7325C60.0962 55.3087 60.1854 54.9423 60.3638 54.6332C60.5446 54.3221 60.8036 54.085 61.1407 53.9217C61.4804 53.7564 61.8774 53.6738 62.3319 53.6738C62.9647 53.6738 63.4595 53.7944 63.8162 54.0354C64.1729 54.2745 64.3843 54.6235 64.4503 55.0822H63.3801C63.3312 54.8392 63.2225 54.6614 63.0539 54.5486C62.8877 54.4359 62.6581 54.3795 62.3649 54.3795C61.991 54.3795 61.7064 54.4913 61.5109 54.7148C61.3154 54.9384 61.2165 55.2708 61.214 55.7121V55.9833C61.214 56.4284 61.3203 56.7647 61.5329 56.9922C61.7455 57.2196 62.057 57.3333 62.4675 57.3333C62.8804 57.3333 63.1748 57.2633 63.3507 57.1234V56.3915H62.3502V55.7471H64.4503V57.4412Z" fill="#289FE2"/>
</g>
<defs>
<filter id="filter0_d_804_3720" x="4" y="8.11621" width="88.73" height="88.73" filterUnits="userSpaceOnUse" color-interpolation-filters="sRGB">
<feFlood flood-opacity="0" result="BackgroundImageFix"/>
<feColorMatrix in="SourceAlpha" type="matrix" values="0 0 0 0 0 0 0 0 0 0 0 0 0 0 0 0 0 0 127 0" result="hardAlpha"/>
<feOffset dy="4"/>
<feGaussianBlur stdDeviation="4"/>
<feColorMatrix type="matrix" values="0 0 0 0 0.160784 0 0 0 0 0.623529 0 0 0 0 0.886275 0 0 0 0.2 0"/>
<feBlend mode="normal" in2="BackgroundImageFix" result="effect1_dropShadow_804_3720"/>
<feBlend mode="normal" in="SourceGraphic" in2="effect1_dropShadow_804_3720" result="shape"/>
</filter>
<filter id="filter1_d_804_3720" x="27.6592" y="34" width="43.6816" height="31.2324" filterUnits="userSpaceOnUse" color-interpolation-filters="sRGB">
<feFlood flood-opacity="0" result="BackgroundImageFix"/>
<feColorMatrix in="SourceAlpha" type="matrix" values="0 0 0 0 0 0 0 0 0 0 0 0 0 0 0 0 0 0 127 0" result="hardAlpha"/>
<feOffset dx="1" dy="1"/>
<feGaussianBlur stdDeviation="1"/>
<feColorMatrix type="matrix" values="0 0 0 0 0 0 0 0 0 0 0 0 0 0 0 0 0 0 0.297558 0"/>
<feBlend mode="normal" in2="BackgroundImageFix" result="effect1_dropShadow_804_3720"/>
<feBlend mode="normal" in="SourceGraphic" in2="effect1_dropShadow_804_3720" result="shape"/>
</filter>
<linearGradient id="paint0_linear_804_3720" x1="77.0705" y1="75.8606" x2="77.0705" y2="18.4497" gradientUnits="userSpaceOnUse">
<stop stop-color="#289FE2"/>
<stop offset="1" stop-color="#44C8DB"/>
</linearGradient>
<clipPath id="clip0_804_3720">
<rect width="72.73" height="72.73" fill="white" transform="translate(12 12.1162)"/>
</clipPath>
</defs>
</svg>
