<svg width="22" height="23" viewBox="0 0 22 23" fill="none" xmlns="http://www.w3.org/2000/svg">
<path fill-rule="evenodd" clip-rule="evenodd" d="M2.05943 0.135742H11.2421C12.1193 0.135742 12.8303 0.800297 12.8303 1.61838V9.46142C12.4219 9.51439 12.0243 9.59906 11.6405 9.71269V2.63747H1.66177V15.7854H6.59333C6.58592 15.9108 6.58216 16.037 6.58216 16.1641C6.58216 16.4936 6.60742 16.8176 6.65622 17.1346L6.65155 17.1346C6.09244 17.1346 5.63753 17.5573 5.63753 18.0795C5.63753 18.6016 6.09244 19.0259 6.65155 19.0259C6.84928 19.0259 7.03411 18.9725 7.19032 18.8803C7.46506 19.4644 7.8257 20.0053 8.25733 20.4892H2.05943C1.18061 20.4892 0.471191 19.8254 0.471191 19.0081V1.61838C0.471191 0.800297 1.18061 0.135742 2.05943 0.135742ZM8.91818 1.03615H4.38491C4.26959 1.03615 4.17813 1.19562 4.17813 1.39291C4.17813 1.5902 4.26959 1.7504 4.38491 1.7504H8.91818C9.03271 1.7504 9.12576 1.5902 9.12576 1.39291C9.12576 1.19562 9.03271 1.03615 8.91818 1.03615ZM15.3383 17.4464H17.8082C18.1978 17.4464 18.5141 17.1423 18.5141 16.7659C18.5141 16.3894 18.1978 16.0853 17.8082 16.0853H15.3383V13.7044C15.3383 13.3279 15.022 13.0239 14.6324 13.0239C14.2419 13.0239 13.9264 13.3279 13.9264 13.7044V16.0853H12.5146H11.4556C11.3242 16.0853 11.2078 16.1288 11.1027 16.1894C10.8952 16.308 10.7497 16.517 10.7497 16.7659C10.7497 16.9351 10.821 17.0853 10.9262 17.2039C10.9759 17.2609 11.036 17.3043 11.1027 17.3423C11.2078 17.403 11.3242 17.4464 11.4556 17.4464H12.5146H13.9264V19.8283C13.9264 20.2038 14.2419 20.5079 14.6324 20.5079C15.022 20.5079 15.3383 20.2038 15.3383 19.8283V17.4464ZM12.2179 11.0157C12.9642 10.7243 13.7772 10.5605 14.6324 10.5605C18.1865 10.5605 21.0694 13.3388 21.0694 16.7659C21.0694 20.193 18.1865 22.9712 14.6324 22.9712C13.0018 22.9712 11.5176 22.383 10.3845 21.4201C9.86069 20.9767 9.41478 20.4536 9.06181 19.869C8.64125 19.1686 8.35868 18.3821 8.24979 17.5414C8.21693 17.2871 8.19534 17.0301 8.19534 16.7659C8.19534 16.5025 8.21693 16.2446 8.24979 15.9903C8.35305 15.1912 8.61121 14.4392 8.99985 13.7641C9.22515 13.3705 9.49739 13.0067 9.80437 12.6709C10.0503 12.4012 10.3179 12.1515 10.6089 11.927C11.0933 11.5515 11.6331 11.2438 12.2179 11.0157Z" fill="#3821DF"/>
</svg>
