<svg width="20" height="21" viewBox="0 0 20 21" fill="none" xmlns="http://www.w3.org/2000/svg">
<path fill-rule="evenodd" clip-rule="evenodd" d="M0.674962 8.35072H2.45624C2.74001 8.35072 2.97006 8.12894 2.97006 7.85538V1.25095C2.97006 0.977392 2.74001 0.755615 2.45624 0.755615H0.674962C0.391191 0.755615 0.161133 0.977392 0.161133 1.25095V7.85538C0.161133 8.12894 0.391191 8.35072 0.674962 8.35072ZM13.8636 4.83561L15.8072 7.28569C16.4199 8.05811 17.6998 7.64042 17.6998 6.66805C17.6998 6.47305 17.6417 6.28221 17.5323 6.11819L15.527 3.11116C14.9597 2.26051 13.9827 1.74629 12.9337 1.74629H8.10835H7.42324H3.99772V7.36006L4.38473 7.62655C5.55054 8.42928 7.14417 8.31727 8.17686 7.36006H11.7737C12.428 7.36006 12.9599 6.85475 12.9724 6.22684C12.9852 5.57887 12.4222 5.0485 11.75 5.0485H8.62218C8.33841 5.0485 8.10835 4.82673 8.10835 4.55317C8.10835 4.27962 8.33841 4.05784 8.62218 4.05784H12.231C12.8711 4.05784 13.4747 4.3454 13.8636 4.83561ZM11.6922 17.7123C14.3864 17.7123 16.5783 15.5993 16.5783 13.0021C16.5783 10.405 14.3864 8.29199 11.6922 8.29199C8.99808 8.29199 6.80621 10.405 6.80621 13.0021C6.80621 15.5993 8.99808 17.7123 11.6922 17.7123ZM10.2132 14.5421C10.3313 14.368 10.5736 14.3191 10.7543 14.4331C10.9654 14.5662 11.0977 14.6239 11.2744 14.6479V13.0565C11.0247 12.9463 10.8381 12.8401 10.685 12.7243C10.3606 12.479 10.2125 12.0535 10.2985 11.6138C10.3921 11.1345 10.7382 10.7532 11.2015 10.6187C11.226 10.6116 11.2503 10.6051 11.2744 10.5989V10.3645C11.2744 10.1564 11.4494 9.98764 11.6653 9.98764C11.8811 9.98764 12.0561 10.1564 12.0561 10.3645V10.5576C12.4356 10.621 12.7039 10.8011 12.8338 10.9449C12.9756 11.1018 12.9586 11.3398 12.7958 11.4765C12.6339 11.6124 12.3888 11.597 12.2466 11.4424C12.2377 11.4337 12.1756 11.376 12.0561 11.3335V12.5511C12.1255 12.5759 12.1949 12.6 12.2629 12.6232C12.95 12.8574 13.3322 13.4705 13.2139 14.149C13.1219 14.6763 12.7056 15.2111 12.0561 15.3699V15.6398C12.0561 15.8479 11.8811 16.0166 11.6653 16.0166C11.4494 16.0166 11.2744 15.8479 11.2744 15.6398V15.4061C10.9588 15.3798 10.6972 15.2976 10.3263 15.0637C10.1456 14.9498 10.095 14.7163 10.2132 14.5421ZM11.2744 11.4159C11.1551 11.5041 11.0893 11.6376 11.0667 11.7534C11.0355 11.9131 11.075 12.0615 11.1675 12.1314C11.2 12.156 11.2359 12.1802 11.2744 12.204V11.4159ZM12.0561 13.354C12.4791 13.5258 12.4686 13.8768 12.4429 14.0241C12.4073 14.2283 12.276 14.443 12.0561 14.5644V13.354ZM6.02429 18.6538C5.48459 18.6538 5.04708 19.0756 5.04708 19.5958C5.04708 20.1161 5.48459 20.5379 6.02429 20.5379H18.3371C18.8768 20.5379 19.3143 20.1161 19.3143 19.5958C19.3143 19.0756 18.8768 18.6538 18.3371 18.6538H6.02429Z" fill="#95C672"/>
</svg>
