<svg width="19" height="20" viewBox="0 0 19 20" fill="none" xmlns="http://www.w3.org/2000/svg">
<path fill-rule="evenodd" clip-rule="evenodd" d="M11.0039 2.52498C11.0039 1.35767 10.0173 0.411377 8.80015 0.411377H3.11442C1.89731 0.411377 0.910645 1.35767 0.910645 2.52498V17.6584C0.910645 18.8257 1.89731 19.772 3.11442 19.772H8.80015C10.0173 19.772 11.0039 18.8257 11.0039 17.6584L11.0039 2.52498ZM2.35254 3.86863C2.35254 3.48675 2.67532 3.17718 3.07349 3.17718H8.84108C9.23925 3.17718 9.56203 3.48675 9.56203 3.86863C9.56203 4.25051 9.23925 4.56008 8.84108 4.56008H3.07349C2.67532 4.56008 2.35254 4.25051 2.35254 3.86863ZM2.35254 6.63444C2.35254 6.25256 2.67532 5.94299 3.07349 5.94299H8.84108C9.23925 5.94299 9.56203 6.25256 9.56203 6.63444C9.56203 7.01631 9.23925 7.32589 8.84108 7.32589H3.07349C2.67532 7.32589 2.35254 7.01631 2.35254 6.63444ZM3.07349 8.70879C2.67532 8.70879 2.35254 9.01836 2.35254 9.40024C2.35254 9.78212 2.67532 10.0917 3.07349 10.0917H8.84108C9.23925 10.0917 9.56203 9.78212 9.56203 9.40024C9.56203 9.01836 9.23925 8.70879 8.84108 8.70879H3.07349ZM2.35254 12.166C2.35254 11.7842 2.67532 11.4746 3.07349 11.4746H8.84108C9.23925 11.4746 9.56203 11.7842 9.56203 12.166C9.56203 12.5479 9.23925 12.8575 8.84108 12.8575H3.07349C2.67532 12.8575 2.35254 12.5479 2.35254 12.166ZM18.9344 7.42466C18.9344 6.60636 18.2427 5.94298 17.3895 5.94298H13.2698C12.4165 5.94298 11.7249 6.60636 11.7249 7.42466V18.2903C11.7249 19.1086 12.4165 19.772 13.2698 19.772L17.3895 19.772C18.2427 19.772 18.9344 19.1086 18.9344 18.2903L18.9344 7.42466ZM13.2698 7.91856C12.9854 7.91856 12.7548 8.13968 12.7548 8.41245C12.7548 8.68522 12.9854 8.90635 13.2698 8.90635H17.3895C17.6739 8.90635 17.9044 8.68522 17.9044 8.41245C17.9044 8.13968 17.6739 7.91856 17.3895 7.91856H13.2698ZM13.2698 9.89413C12.9854 9.89413 12.7548 10.1153 12.7548 10.388C12.7548 10.6608 12.9854 10.8819 13.2698 10.8819H17.3895C17.6739 10.8819 17.9044 10.6608 17.9044 10.388C17.9044 10.1153 17.6739 9.89413 17.3895 9.89413H13.2698ZM12.7548 12.3636C12.7548 12.0908 12.9854 11.8697 13.2698 11.8697H17.3895C17.6739 11.8697 17.9044 12.0908 17.9044 12.3636C17.9044 12.6364 17.6739 12.8575 17.3895 12.8575H13.2698C12.9854 12.8575 12.7548 12.6364 12.7548 12.3636ZM5.12139 17.7108C4.94049 17.5981 4.69788 17.6465 4.5796 17.8186C4.46129 17.9906 4.51197 18.2214 4.69287 18.334C5.06421 18.5651 5.32616 18.6463 5.64216 18.6722V18.9032C5.64216 19.1088 5.81742 19.2755 6.03354 19.2755C6.24966 19.2755 6.42492 19.1088 6.42492 18.9032V18.6365C7.07524 18.4796 7.49206 17.9511 7.58416 17.4301C7.70259 16.7597 7.31994 16.1539 6.63197 15.9225C6.56383 15.8996 6.49439 15.8758 6.42492 15.8513V14.6482C6.54449 14.6902 6.60668 14.7471 6.61561 14.7557C6.75799 14.9085 7.00343 14.9238 7.16553 14.7894C7.32851 14.6544 7.34557 14.4192 7.20358 14.2642C7.07348 14.1221 6.80492 13.9442 6.42492 13.8816V13.6907C6.42492 13.4851 6.24966 13.3184 6.03354 13.3184C5.81742 13.3184 5.64216 13.4851 5.64216 13.6907V13.9224C5.61805 13.9284 5.59375 13.9349 5.56917 13.9419C5.10526 14.0748 4.75877 14.4516 4.665 14.9251C4.57893 15.3596 4.72723 15.7801 5.05204 16.0224C5.20534 16.1368 5.39219 16.2417 5.64216 16.3507V17.923C5.46526 17.8994 5.33277 17.8423 5.12139 17.7108ZM5.43425 15.0631C5.45688 14.9487 5.52271 14.8167 5.64215 14.7296V15.5083C5.60364 15.4848 5.56772 15.4609 5.53511 15.4365C5.44255 15.3675 5.40298 15.2209 5.43425 15.0631ZM6.81221 17.3067C6.83792 17.1611 6.84845 16.8143 6.42489 16.6446V17.8406C6.64505 17.7206 6.77655 17.5085 6.81221 17.3067Z" fill="#F34EB8"/>
</svg>
