<svg width="17" height="22" viewBox="0 0 17 22" fill="none" xmlns="http://www.w3.org/2000/svg">
<path d="M16.899 10.7493C16.899 10.1247 16.4817 9.59714 15.9037 9.39843V4.42853L16.4013 4.23073C16.5829 4.15856 16.5817 3.91021 16.3994 3.83971L16.2622 3.78664L9.5846 1.20386C8.82798 0.911213 7.98342 0.911213 7.2268 1.20386L0.481095 3.78664C0.267897 3.87898 0.274101 4.17282 0.49102 4.25672L1.80411 4.76461L8.4057 7.31803L14.9084 4.81379V9.39843C14.3303 9.59714 13.9131 10.1247 13.9131 10.7493C13.9131 11.3211 14.2634 11.812 14.7657 12.044L13.9388 14.4354L14.8826 14.739L15.406 13.2253L15.9294 14.739L16.8732 14.4354L16.0463 12.044C16.5486 11.812 16.899 11.3212 16.899 10.7493Z" fill="#9721DF"/>
<path d="M8.40607 7.78462L3.45166 5.83423V7.38535C3.45166 8.52017 3.27472 9.37584 8.40607 9.37584C13.3605 9.37584 13.3605 8.52017 13.3605 7.38535V5.83423L8.40607 7.78462Z" fill="#9721DF"/>
<path fill-rule="evenodd" clip-rule="evenodd" d="M13.6126 10.3791C13.4026 10.149 13.1766 9.9323 12.9362 9.73053C10.0556 10.4239 5.60661 10.3844 3.39306 9.69556C1.88613 10.9419 0.934814 12.7709 0.934814 14.8095C0.934814 18.5653 4.16329 21.6098 8.14599 21.6098C12.0497 21.61 15.2292 18.685 15.3538 15.0325L15.0866 14.4026L14.6624 15.4026L13.1777 15.0026C13.3191 14.5359 13.6867 13.4026 14.0261 12.6026C12.8383 11.8026 13.2484 10.8026 13.6019 10.4026L13.6126 10.3791ZM7.76077 15.4308V13.1128C7.21786 13.2498 6.81802 13.7168 6.81802 14.2718C6.81802 14.8269 7.21786 15.2939 7.76077 15.4308ZM10.0599 17.1689C9.9783 16.313 9.29183 15.6353 8.41995 15.4972V13.1128C8.9627 13.2498 9.36239 13.7168 9.36239 14.2718C9.36239 14.4556 9.52028 14.6043 9.71499 14.6043C9.90971 14.6043 10.0676 14.4556 10.0676 14.2718C10.0662 13.3708 9.38286 12.5994 8.44296 12.4376V11.8981C8.44296 11.7143 8.28492 11.5656 8.09036 11.5656C7.89549 11.5656 7.73776 11.7143 7.73776 11.8981V12.4376C6.73066 12.6097 6.02939 13.478 6.12085 14.4391C6.20256 15.2949 6.88881 15.9725 7.76077 16.1107V18.4948C7.21764 18.3574 6.81868 17.8904 6.81802 17.3363C6.81802 17.1526 6.66014 17.0038 6.46542 17.0038C6.2707 17.0038 6.11282 17.1526 6.11282 17.3363C6.11424 18.2373 6.79755 19.0089 7.73776 19.1705V19.7797C7.73776 19.9633 7.89549 20.1122 8.09036 20.1122C8.28492 20.1122 8.44296 19.9633 8.44296 19.7797V19.1704C9.44991 18.9985 10.1513 18.1302 10.0599 17.1689ZM8.41995 18.4949C8.96571 18.3569 9.36538 17.8858 9.36192 17.3286C9.35836 16.7768 8.95979 16.3137 8.41995 16.1773V18.4949Z" fill="#9721DF"/>
</svg>
