<svg width="15" height="23" viewBox="0 0 15 23" fill="none" xmlns="http://www.w3.org/2000/svg">
<path fill-rule="evenodd" clip-rule="evenodd" d="M13.1298 0H2.55475C1.67373 0 0.952637 0.694479 0.952637 1.54445V6.43324V16.0952V20.984C0.952637 21.8339 1.67373 22.5278 2.55475 22.5278H13.1298C14.0108 22.5278 14.7319 21.8339 14.7319 20.984V16.0952V6.43324V1.54445C14.7319 0.694479 14.0108 0 13.1298 0ZM4.83433 20.7498H3.10751C2.78966 20.7498 2.53145 20.5015 2.53145 20.1951C2.53145 19.8881 2.78966 19.6392 3.10751 19.6392H4.83433C5.15218 19.6392 5.41038 19.8881 5.41038 20.1951C5.41038 20.5015 5.15218 20.7498 4.83433 20.7498ZM4.83433 18.6326H3.10751C2.78966 18.6326 2.53145 18.3837 2.53145 18.0773C2.53145 17.7709 2.78966 17.522 3.10751 17.522H4.83433C5.15218 17.522 5.41038 17.7709 5.41038 18.0773C5.41038 18.3837 5.15218 18.6326 4.83433 18.6326ZM4.83433 16.5159H3.10751C2.78966 16.5159 2.53145 16.2677 2.53145 15.9612C2.53145 15.6535 2.78966 15.4053 3.10751 15.4053H4.83433C5.15218 15.4053 5.41038 15.6535 5.41038 15.9612C5.41038 16.2677 5.15218 16.5159 4.83433 16.5159ZM4.83433 14.3999H3.10751C2.78966 14.3999 2.53145 14.151 2.53145 13.8446C2.53145 13.5381 2.78966 13.2886 3.10751 13.2886H4.83433C5.15218 13.2886 5.41038 13.5381 5.41038 13.8446C5.41038 14.151 5.15218 14.3999 4.83433 14.3999ZM8.70494 20.7498H6.9788C6.66027 20.7498 6.40274 20.5015 6.40274 20.1951C6.40274 19.8881 6.66027 19.6392 6.9788 19.6392H8.70494C9.02346 19.6392 9.281 19.8881 9.281 20.1951C9.28032 20.5015 9.02279 20.7498 8.70494 20.7498ZM8.70494 18.6326H6.9788C6.66027 18.6326 6.40274 18.3837 6.40274 18.0773C6.40274 17.7709 6.66027 17.522 6.9788 17.522H8.70494C9.02346 17.522 9.281 17.7709 9.281 18.0773C9.281 18.3837 9.02279 18.6326 8.70494 18.6326ZM8.70494 16.5159H6.9788C6.66027 16.5159 6.40274 16.2677 6.40274 15.9612C6.40274 15.6535 6.66027 15.4053 6.9788 15.4053H8.70494C9.02346 15.4053 9.281 15.6535 9.281 15.9612C9.28032 16.2677 9.02279 16.5159 8.70494 16.5159ZM8.70494 14.3999H6.9788C6.66027 14.3999 6.40274 14.151 6.40274 13.8446C6.40274 13.5381 6.66027 13.2886 6.9788 13.2886H8.70494C9.02346 13.2886 9.281 13.5381 9.281 13.8446C9.281 14.151 9.02279 14.3999 8.70494 14.3999ZM12.575 20.7498H10.8476C10.5297 20.7498 10.2715 20.5015 10.2715 20.1951C10.2715 19.8881 10.5297 19.6392 10.8476 19.6392H12.575C12.8929 19.6392 13.1511 19.8881 13.1511 20.1951C13.1504 20.5015 12.8922 20.7498 12.575 20.7498ZM12.575 18.6326H10.8476C10.5297 18.6326 10.2715 18.3837 10.2715 18.0773C10.2715 17.7709 10.5297 17.522 10.8476 17.522H12.575C12.8929 17.522 13.1511 17.7709 13.1511 18.0773C13.1511 18.3837 12.8922 18.6326 12.575 18.6326ZM12.575 16.5159H10.8476C10.5297 16.5159 10.2715 16.2677 10.2715 15.9612C10.2715 15.6535 10.5297 15.4053 10.8476 15.4053H12.575C12.8929 15.4053 13.1511 15.6535 13.1511 15.9612C13.1504 16.2677 12.8922 16.5159 12.575 16.5159ZM12.575 14.3999H10.8476C10.5297 14.3999 10.2715 14.151 10.2715 13.8446C10.2715 13.5381 10.5297 13.2886 10.8476 13.2886H12.575C12.8929 13.2886 13.1511 13.5381 13.1511 13.8446C13.1511 14.151 12.8922 14.3999 12.575 14.3999ZM13.1851 12.0077H2.49752V1.81006H13.1851V12.0077Z" fill="#1E7FC0"/>
</svg>
