<svg width="14" height="21" viewBox="0 0 14 21" fill="none" xmlns="http://www.w3.org/2000/svg">
<path fill-rule="evenodd" clip-rule="evenodd" d="M12.5573 16.2452V16.4551C12.5573 16.8321 12.2414 17.1384 11.8514 17.1384H9.03374H2.674C2.28308 17.1384 1.96805 16.8321 1.96805 16.4551V4.17221C1.96805 3.79432 2.28308 3.48978 2.674 3.48978H11.8514C12.2414 3.48978 12.5573 3.79432 12.5573 4.17221V14.8514V16.2452ZM8.21307 19.5269C8.09041 19.7273 7.87333 19.8672 7.61566 19.8672H6.90971C6.65115 19.8672 6.43496 19.7273 6.31141 19.5269C6.24876 19.4254 6.20376 19.3127 6.20376 19.1848C6.20376 18.8078 6.51879 18.5024 6.90971 18.5024H7.61566C8.00481 18.5024 8.32161 18.8078 8.32161 19.1848C8.32161 19.3127 8.27572 19.4254 8.21307 19.5269ZM6.20376 1.44164H8.32161C8.71165 1.44164 9.02756 1.74703 9.02756 2.12407C9.02756 2.50197 8.71165 2.8065 8.32161 2.8065H6.20376C5.81284 2.8065 5.49781 2.50197 5.49781 2.12407C5.49781 1.74703 5.81284 1.44164 6.20376 1.44164ZM12.5573 0.0776367H1.96805C1.18798 0.0776367 0.556152 0.689264 0.556152 1.44164V19.1848C0.556152 19.9389 1.18798 20.5505 1.96805 20.5505H9.03374H11.2822H12.5573C13.3374 20.5505 13.9692 19.9389 13.9692 19.1848V15.6353V14.8514V1.44164C13.9692 0.689264 13.3365 0.0776367 12.5573 0.0776367Z" fill="#11ADA2"/>
</svg>
