<svg width="16" height="20" viewBox="0 0 16 20" fill="none" xmlns="http://www.w3.org/2000/svg">
<path fill-rule="evenodd" clip-rule="evenodd" d="M13.5564 15.6703V15.4719V14.1516V4.03434C13.5564 3.67623 13.2138 3.38783 12.7917 3.38783H2.84951C2.42589 3.38783 2.08474 3.67623 2.08474 4.03434V15.6703C2.08474 16.0278 2.42589 16.3181 2.84951 16.3181H9.73928H12.7917C13.2138 16.3181 13.5564 16.0278 13.5564 15.6703ZM8.20297 18.9035C8.48189 18.9035 8.71732 18.771 8.85004 18.5809C8.91752 18.4845 8.96775 18.378 8.96775 18.257C8.96775 17.8995 8.62435 17.6105 8.20297 17.6105H7.43819C7.01456 17.6105 6.67341 17.8995 6.67341 18.257C6.67341 18.378 6.72215 18.4845 6.79038 18.5809C6.92384 18.771 7.15777 18.9035 7.43819 18.9035H8.20297ZM8.96775 1.44766H6.67341C6.24979 1.44766 5.90863 1.73669 5.90863 2.09417C5.90863 2.45166 6.24979 2.74069 6.67341 2.74069H8.96775C9.38988 2.74069 9.73253 2.45166 9.73253 2.09417C9.73253 1.73669 9.38988 1.44766 8.96775 1.44766ZM2.08474 0.155273H13.5564C14.4007 0.155273 15.086 0.734599 15.086 1.44766V14.1516V14.8938V18.257C15.086 18.9713 14.4014 19.5506 13.5564 19.5506H12.1753H9.73928H2.08474C1.23973 19.5506 0.555176 18.9713 0.555176 18.257V1.44766C0.555176 0.734599 1.23973 0.155273 2.08474 0.155273ZM8.98725 11.0084C8.98725 10.6155 8.6101 10.2966 8.14524 10.2966C7.68037 10.2966 7.30323 10.6155 7.30323 11.0084C7.30323 11.4014 7.68037 11.7202 8.14524 11.7202C8.6101 11.7202 8.98725 11.4014 8.98725 11.0084ZM10.1385 9.07652C10.13 9.06933 10.1215 9.06271 10.113 9.05609L10.1003 9.04609L10.0621 9.01567C10.0571 9.01147 10.0516 9.0077 10.0452 9.00329C10.0439 9.00238 10.0425 9.00144 10.0411 9.00046C8.95238 8.16506 7.28636 8.19802 6.24791 9.07652L6.1257 9.17983L5.957 9.32181C5.75156 9.49548 5.75306 9.77881 5.9585 9.95248C6.16469 10.1274 6.49909 10.1274 6.70453 9.95374L6.99545 9.70845C7.65601 9.15004 8.7312 9.15004 9.39101 9.70782L9.60095 9.87959C9.80489 10.0514 10.1363 10.0514 10.341 9.87832C10.4392 9.79465 10.4939 9.68373 10.4947 9.5652C10.4947 9.44794 10.4407 9.33702 10.3417 9.25336L10.1385 9.07652ZM11.1954 8.25825L11.3701 8.40593C11.5575 8.56439 11.5568 8.82173 11.3686 8.98082C11.1811 9.13991 10.8752 9.14055 10.6885 8.98272L10.4403 8.77229C9.03973 7.65357 6.83687 7.66118 5.44752 8.79511C5.44574 8.79661 5.44443 8.79812 5.44285 8.79993C5.44243 8.80042 5.44199 8.80092 5.44152 8.80145L5.12586 9.06766C4.93842 9.22612 4.634 9.22548 4.44581 9.06639C4.25761 8.9073 4.25686 8.64996 4.44356 8.4915L4.75997 8.22466C4.76457 8.22076 4.76942 8.21766 4.77423 8.21457C4.77803 8.21213 4.78182 8.20971 4.78546 8.20691C6.50321 6.8093 9.20169 6.76874 10.9764 8.08585C11.0042 8.10169 11.0304 8.11881 11.0552 8.13909L11.1931 8.25635C11.1946 8.25698 11.1946 8.25762 11.1954 8.25825Z" fill="#E7759A"/>
</svg>
