<svg width="24" height="16" viewBox="0 0 24 16" fill="none" xmlns="http://www.w3.org/2000/svg">
<path fill-rule="evenodd" clip-rule="evenodd" d="M0.690918 2.80103C0.690918 1.52805 1.75819 0.496094 3.07473 0.496094H20.9533C22.2699 0.496094 23.3371 1.52805 23.3371 2.80103V3.49245H0.690986V6.0608H23.3371V13.1732C23.3371 14.4462 22.2699 15.4782 20.9533 15.4782H3.07473C1.75819 15.4782 0.690918 14.4462 0.690918 13.1732V2.80103ZM9.81553 11.7641H10.1376C10.291 11.7641 10.4047 11.7347 10.4786 11.6759C10.5525 11.6171 10.5894 11.539 10.5894 11.4417C10.5894 11.3476 10.5525 11.2743 10.4786 11.2219C10.4061 11.1695 10.3057 11.1433 10.1774 11.1433C10.0616 11.1433 9.96473 11.1679 9.88664 11.2171C9.80856 11.2652 9.76951 11.3283 9.76951 11.4064H9.16503C9.16503 11.2845 9.20756 11.1754 9.29262 11.0791C9.37908 10.9818 9.499 10.9059 9.65238 10.8513C9.80716 10.7968 9.97728 10.7695 10.1627 10.7695C10.4848 10.7695 10.7372 10.8289 10.9199 10.9476C11.1026 11.0652 11.1939 11.2278 11.1939 11.4353C11.1939 11.5422 11.1514 11.6406 11.0663 11.7305C10.9813 11.8203 10.8697 11.8893 10.7317 11.9374C10.9032 11.9845 11.0308 12.055 11.1144 12.1492C11.1995 12.2433 11.242 12.3545 11.242 12.4828C11.242 12.6903 11.143 12.8566 10.945 12.9817C10.7484 13.1069 10.4876 13.1694 10.1627 13.1694C9.85875 13.1694 9.60985 13.1079 9.41603 12.985C9.2236 12.862 9.12738 12.6994 9.12738 12.4973H9.73186C9.73186 12.585 9.77439 12.6566 9.85945 12.7122C9.9459 12.7679 10.0519 12.7957 10.1774 12.7957C10.321 12.7957 10.4333 12.7668 10.5141 12.709C10.5964 12.6502 10.6375 12.5727 10.6375 12.4764C10.6375 12.2433 10.4702 12.1267 10.1355 12.1267H9.81553V11.7641ZM14.1347 12.8422C14.0218 12.9459 13.8621 13.0267 13.6557 13.0844C13.4494 13.1411 13.2207 13.1694 12.9697 13.1694C12.7061 13.1694 12.4747 13.1256 12.2753 13.0379C12.0773 12.9491 11.9239 12.8208 11.8151 12.6529C11.7077 12.485 11.6527 12.2877 11.6499 12.0609V11.9021C11.6499 11.669 11.7008 11.4674 11.8026 11.2973C11.9058 11.1262 12.0536 10.9957 12.246 10.9059C12.4398 10.815 12.6664 10.7695 12.9258 10.7695C13.2869 10.7695 13.5693 10.8358 13.7729 10.9685C13.9765 11.1 14.0971 11.292 14.1347 11.5444H13.524C13.4961 11.4107 13.434 11.3128 13.3378 11.2508C13.243 11.1888 13.1119 11.1578 12.9446 11.1578C12.7312 11.1578 12.5688 11.2192 12.4572 11.3422C12.3457 11.4652 12.2892 11.6481 12.2878 11.8909V12.0401C12.2878 12.285 12.3485 12.47 12.4698 12.5951C12.5911 12.7203 12.7689 12.7828 13.0032 12.7828C13.2388 12.7828 13.4068 12.7443 13.5072 12.6673V12.2647H12.9362V11.9101H14.1347V12.8422ZM14.346 13.3379H14.7957L15.9168 10.8016H15.4671L14.346 13.3379ZM17.9708 12.2582H18.3159V12.632H17.9708V13.1374H17.3663V12.632H16.1176L16.0904 12.3401L17.36 10.8016H17.9708V12.2582ZM16.6928 12.2582H17.3663V11.4337L17.3265 11.4866L16.6928 12.2582ZM20.6376 13.0844C20.8439 13.0267 21.0036 12.9459 21.1166 12.8422V11.9101H19.9181V12.2647H20.4891V12.6673C20.3887 12.7443 20.2206 12.7828 19.985 12.7828C19.7507 12.7828 19.5729 12.7203 19.4516 12.5951C19.3303 12.47 19.2697 12.285 19.2697 12.0401V11.8909C19.271 11.6481 19.3275 11.4652 19.4391 11.3422C19.5506 11.2192 19.7131 11.1578 19.9264 11.1578C20.0938 11.1578 20.2248 11.1888 20.3196 11.2508C20.4159 11.3128 20.4779 11.4107 20.5058 11.5444H21.1166C21.0789 11.292 20.9583 11.1 20.7547 10.9685C20.5511 10.8358 20.2687 10.7695 19.9076 10.7695C19.6482 10.7695 19.4216 10.815 19.2278 10.9059C19.0354 10.9957 18.8876 11.1262 18.7844 11.2973C18.6826 11.4674 18.6317 11.669 18.6317 11.9021V12.0609C18.6345 12.2877 18.6896 12.485 18.7969 12.6529C18.9057 12.8208 19.0591 12.9491 19.2571 13.0379C19.4565 13.1256 19.688 13.1694 19.9515 13.1694C20.2025 13.1694 20.4312 13.1411 20.6376 13.0844Z" fill="#44C8DB"/>
</svg>
