<svg width="14" height="19" viewBox="0 0 14 19" fill="none" xmlns="http://www.w3.org/2000/svg">
<path fill-rule="evenodd" clip-rule="evenodd" d="M12.3517 8.78786C12.2992 8.7132 12.0262 8.33792 11.5331 7.66181C11.0396 6.98556 10.5985 6.35918 10.2099 5.78262C9.82135 5.20606 9.38705 4.46771 8.90665 3.56761C8.42652 2.6675 8.06385 1.83152 7.81954 1.06008C7.74957 0.811291 7.60349 0.616155 7.38057 0.47524C7.15824 0.334238 6.93338 0.263672 6.70637 0.263672C6.47936 0.263672 6.25671 0.334238 6.03837 0.475197C5.81998 0.616155 5.67161 0.811248 5.59301 1.06004C5.34848 1.83147 4.98603 2.66746 4.50581 3.56756C4.02564 4.46767 3.59116 5.20598 3.20256 5.78258C2.81396 6.35918 2.37293 6.98556 1.87959 7.66176C1.3862 8.33792 1.11331 8.7132 1.06096 8.78782C0.353638 9.86658 0 11.0071 0 12.21C0 13.969 0.654974 15.4705 1.96478 16.7148C3.27459 17.9591 4.85505 18.5815 6.70637 18.5815C8.55751 18.5815 10.1382 17.9593 11.4481 16.7148C12.758 15.4702 13.4131 13.9688 13.4131 12.21C13.4131 10.9821 13.0592 9.84152 12.3517 8.78786ZM6.21518 14.929C5.88756 15.2402 5.49258 15.3959 5.02962 15.3959C4.56692 15.3959 4.17172 15.2402 3.84423 14.929C3.51679 14.6182 3.35295 14.2426 3.35295 13.8029C3.35295 13.5043 3.4404 13.2182 3.61497 12.9443C3.62383 12.9358 3.69136 12.8429 3.81808 12.6645C3.94471 12.4861 4.05606 12.3283 4.15213 12.1914C4.24829 12.0545 4.35748 11.8721 4.47966 11.6439C4.60188 11.4157 4.69369 11.2062 4.75475 11.0158C4.78967 10.883 4.88147 10.8163 5.02985 10.8163C5.17831 10.8163 5.27007 10.883 5.30498 11.0158C5.3661 11.2062 5.45785 11.4157 5.58008 11.6439C5.70225 11.8721 5.81145 12.0545 5.90752 12.1914C6.0035 12.3283 6.11475 12.4862 6.24147 12.6645C6.36801 12.8429 6.43568 12.9358 6.44458 12.9443C6.61915 13.2182 6.70646 13.5043 6.70646 13.8029C6.70637 14.2426 6.54253 14.6182 6.21518 14.929Z" fill="#30B4FF"/>
</svg>
