<svg width="22" height="17" viewBox="0 0 22 17" fill="none" xmlns="http://www.w3.org/2000/svg">
<path fill-rule="evenodd" clip-rule="evenodd" d="M21.0817 4.62445C18.3861 1.95759 14.7921 0.341309 10.708 0.341309C6.62392 0.341309 2.94823 1.95759 0.334402 4.62445C0.171038 4.78608 0.0893555 4.9477 0.0893555 5.19015C0.0893555 5.43259 0.171038 5.59422 0.334402 5.75584L1.47795 6.88724C1.80468 7.21049 2.29477 7.21049 2.6215 6.88724C4.66355 4.86689 7.52243 3.57387 10.708 3.57387C13.8936 3.57387 16.7525 4.86689 18.7946 6.88724C19.1213 7.21049 19.6114 7.21049 19.9381 6.88724L21.0817 5.75584C21.245 5.59422 21.3267 5.43259 21.3267 5.19015C21.3267 4.9477 21.245 4.70526 21.0817 4.62445ZM10.708 6.80642C8.42093 6.80642 6.46056 7.69538 4.99028 9.15003C4.66355 9.47328 4.66355 9.95817 4.99028 10.2814L6.13383 11.4128C6.46056 11.7361 6.95065 11.7361 7.27738 11.4128C8.17588 10.5239 9.40111 10.039 10.708 10.039C12.0149 10.039 13.2402 10.6047 14.1387 11.4128C14.4654 11.7361 14.9555 11.7361 15.2822 11.4128L16.4258 10.2814C16.7525 9.95817 16.7525 9.47328 16.4258 9.15003C14.9555 7.69538 12.9951 6.80642 10.708 6.80642ZM10.708 16.5041C11.6103 16.5041 12.3417 15.7805 12.3417 14.8878C12.3417 13.9952 11.6103 13.2715 10.708 13.2715C9.80579 13.2715 9.07439 13.9952 9.07439 14.8878C9.07439 15.7805 9.80579 16.5041 10.708 16.5041Z" fill="#32A700"/>
</svg>
