<svg width="22" height="20" viewBox="0 0 22 20" fill="none" xmlns="http://www.w3.org/2000/svg">
<path fill-rule="evenodd" clip-rule="evenodd" d="M19.6965 4.64953H13.1311L15.4624 1.06426C15.6645 0.753428 15.5595 0.347859 15.2279 0.158432C14.8963 -0.031082 14.4635 0.0673882 14.2614 0.378222L11.484 4.64953H9.75336L6.97596 0.378222C6.77385 0.0674761 6.34114 -0.0309502 6.0095 0.158432C5.67786 0.347903 5.57284 0.753428 5.775 1.06426L8.10632 4.64953H1.54076C0.691173 4.64953 0 5.29734 0 6.09358V18.0133C0 18.8095 0.691173 19.4574 1.54076 19.4574H19.6966C20.5462 19.4574 21.2373 18.8095 21.2373 18.0133V6.09358C21.2373 5.29734 20.5461 4.64953 19.6965 4.64953ZM15.2643 16.1709C15.2643 16.6038 14.8828 16.9547 14.4122 16.9547H3.50678C3.03617 16.9547 2.65467 16.6038 2.65467 16.1709V7.7281C2.65467 7.29521 3.03617 6.94423 3.50683 6.94423H14.4122C14.8828 6.94423 15.2643 7.29521 15.2643 7.7281V16.1709ZM17.919 15.7034C17.1871 15.7034 16.5917 15.1421 16.5917 14.4521C16.5917 13.7621 17.1871 13.2008 17.919 13.2008C18.6509 13.2008 19.2463 13.7621 19.2463 14.4521C19.2463 15.1421 18.6509 15.7034 17.919 15.7034ZM17.919 10.6982C17.1871 10.6982 16.5917 10.1369 16.5917 9.44686C16.5917 8.75686 17.1871 8.19555 17.919 8.19555C18.6509 8.19555 19.2463 8.75686 19.2463 9.44686C19.2463 10.1369 18.6509 10.6982 17.919 10.6982Z" fill="#E80047"/>
</svg>
