<svg width="29" height="22" viewBox="0 0 29 22" fill="none" xmlns="http://www.w3.org/2000/svg">
<path fill-rule="evenodd" clip-rule="evenodd" d="M26.8095 14.3559C26.9106 14.3559 26.9893 14.2824 26.9893 14.1878V10.9969C26.9893 10.9022 26.905 10.8286 26.8095 10.8286H20.215C20.1139 10.8286 20.0353 10.9075 20.0353 10.9969V14.1878C20.0353 14.2824 20.1139 14.3559 20.215 14.3559H26.8095ZM5.01484 12.5927C5.01484 15.4354 7.48638 17.7484 10.5243 17.7484C13.5619 17.7484 16.0334 15.4354 16.0334 12.5927C16.0334 9.74963 13.5619 7.43656 10.5243 7.43656C7.48638 7.43656 5.01484 9.74963 5.01484 12.5927ZM3.32987 1.26101C2.76254 1.26101 2.30194 1.69728 2.30194 2.22827C2.30194 2.75922 2.76254 3.19028 3.32987 3.19028H21.3104L21.316 1.8235C21.316 1.51329 21.0408 1.26101 20.7094 1.26101H3.32987ZM26.1583 9.5675H26.8099C27.6524 9.5675 28.3377 10.2088 28.3433 10.9974V14.1883C28.3433 14.9768 27.6581 15.6181 26.8155 15.6181H26.1639V19.2875C26.1639 20.7804 24.8663 22 23.2654 22H2.90887C1.83038 22 0.954102 21.1799 0.954102 20.1706V2.2236V2.19211C0.970953 0.977725 2.0326 0 3.33016 0H20.7096C21.7881 0 22.6644 0.820019 22.6644 1.82934L22.6588 3.19092H23.2598C24.8551 3.19092 26.1583 4.4052 26.1583 5.90341V9.5675ZM10.5238 8.4636C8.09088 8.4636 6.11151 10.316 6.11151 12.5929C6.11151 14.8696 8.09088 16.722 10.5238 16.722C12.9565 16.722 14.9359 14.8696 14.9359 12.5929C14.9359 10.316 12.9565 8.4636 10.5238 8.4636ZM12.1239 13.1184H11.086V14.0897C11.086 14.3801 10.8346 14.6154 10.5243 14.6154C10.2143 14.6154 9.96259 14.3801 9.96259 14.0897V13.1184H8.92499C8.6147 13.1184 8.36327 12.8831 8.36327 12.5927C8.36327 12.3025 8.6147 12.067 8.92499 12.067H9.96259V11.0959C9.96259 10.8056 10.2143 10.5703 10.5243 10.5703C10.8346 10.5703 11.086 10.8056 11.086 11.0959V12.067H12.1239C12.4341 12.067 12.6856 12.3025 12.6856 12.5927C12.6856 12.8831 12.4341 13.1184 12.1239 13.1184Z" fill="white"/>
</svg>
