<svg width="23" height="22" viewBox="0 0 23 22" fill="none" xmlns="http://www.w3.org/2000/svg">
<path d="M7.159 19.6935C6.06196 19.6935 4.96493 19.6935 3.86789 19.6935C2.77663 19.6935 2.03758 18.961 2.03758 17.8794C2.03758 16.5804 2.03758 15.2756 2.03758 13.9766C2.03758 13.925 2.0318 13.8735 2.04335 13.8278C2.06645 13.6389 2.21079 13.513 2.39556 13.5187C2.58032 13.5245 2.72467 13.6504 2.73044 13.8449C2.74199 14.1025 2.73621 14.36 2.73621 14.6175C2.73621 15.7105 2.73621 16.8035 2.73621 17.9023C2.73621 18.6004 3.15771 19.0182 3.86789 19.0182C6.09083 19.0182 8.31377 19.0182 10.5367 19.0182C10.6002 19.0182 10.6695 19.0125 10.733 19.0182C10.9236 19.0354 11.0506 19.1727 11.0564 19.3558C11.0564 19.5389 10.9293 19.682 10.7388 19.6992C10.5945 19.7106 10.4501 19.7049 10.3058 19.7049C9.24914 19.6935 8.20407 19.6935 7.159 19.6935Z" fill="white"/>
<path d="M14.9192 1.83859C15.5775 1.83859 16.2299 1.83859 16.8881 1.83859C17.9101 1.84432 18.6607 2.58826 18.6607 3.60116C18.6665 4.92881 18.6607 6.26219 18.6607 7.58984C18.6607 7.87024 18.5452 8.01331 18.3201 8.01903C18.0891 8.02476 17.9679 7.87024 17.9679 7.57839C17.9679 6.26791 17.9679 4.96315 17.9679 3.65267C17.9679 2.93162 17.5521 2.51959 16.8304 2.51959C15.5024 2.51959 14.1744 2.51959 12.8464 2.51959C12.6443 2.51959 12.4827 2.47381 12.4249 2.26207C12.3556 2.016 12.5289 1.83287 12.8118 1.82715C13.522 1.83287 14.2206 1.83859 14.9192 1.83859Z" fill="white"/>
<path d="M22.5923 10.3882C22.5923 9.62711 22.1188 9.16357 21.3509 9.16357C19.1453 9.16357 16.9455 9.16357 14.7398 9.16357C13.9661 9.16357 13.4927 9.62711 13.4927 10.3825C13.4927 13.8275 13.4927 17.2725 13.4927 20.7176C13.4927 21.4729 13.9719 21.9422 14.7341 21.9422C16.9397 21.9422 19.1395 21.9422 21.3451 21.9422C22.1246 21.9422 22.5923 21.4729 22.5923 20.6947C22.5923 18.9893 22.5923 17.284 22.5923 15.5729C22.5923 13.8504 22.5923 12.1165 22.5923 10.3882ZM21.6223 19.6932C19.2377 19.6875 16.8531 19.6875 14.4627 19.6932C14.2837 19.6932 14.2433 19.6532 14.2433 19.4757C14.2491 16.8605 14.2491 14.2453 14.2433 11.63C14.2433 11.4526 14.2837 11.4126 14.4627 11.4126C16.8473 11.4183 19.2319 11.4183 21.6223 11.4126C21.8013 11.4126 21.8417 11.4526 21.8417 11.63C21.8359 12.9462 21.8359 14.2624 21.8359 15.5786C21.8359 16.8777 21.8301 18.1767 21.8417 19.4757C21.8417 19.6532 21.8013 19.6932 21.6223 19.6932Z" fill="white"/>
<path d="M19.561 14.3371C19.5552 14.6232 19.4109 14.7892 19.1973 14.8006C18.9778 14.8121 18.8277 14.6576 18.7989 14.3943C18.77 14.0681 18.6083 13.8335 18.2965 13.719C17.9905 13.6103 17.7191 13.6733 17.494 13.9022C17.2688 14.1311 17.2168 14.4115 17.3381 14.7033C17.4766 15.0238 17.7365 15.1611 18.0887 15.1726C18.77 15.1955 19.3531 15.6705 19.509 16.3114C19.6707 16.9752 19.382 17.6791 18.7584 17.971C18.4697 18.1026 18.3889 18.2514 18.412 18.5432C18.4293 18.7836 18.2619 18.9324 18.0367 18.9266C17.8231 18.9266 17.6441 18.7778 17.6729 18.5547C17.7076 18.2342 17.5806 18.0968 17.2919 17.9538C16.8184 17.7249 16.5701 17.29 16.5239 16.7635C16.5009 16.5002 16.651 16.3114 16.8819 16.2999C17.0956 16.2885 17.2572 16.4487 17.2803 16.7005C17.3265 17.1469 17.6614 17.4445 18.0887 17.4159C18.4928 17.393 18.8046 17.0496 18.7989 16.649C18.7931 16.237 18.4755 15.9337 18.0367 15.9108C17.2572 15.8765 16.6683 15.3729 16.5413 14.6232C16.4258 13.9537 16.8242 13.2727 17.5171 13.0094C17.6383 12.9637 17.6787 12.9121 17.6672 12.792C17.6614 12.7004 17.6614 12.6031 17.6672 12.5116C17.6845 12.2941 17.8462 12.1453 18.054 12.151C18.2561 12.1568 18.4351 12.3056 18.412 12.5058C18.3716 12.8378 18.5044 12.9808 18.7989 13.1239C19.2954 13.3871 19.5264 13.8392 19.561 14.3371Z" fill="white"/>
<path fill-rule="evenodd" clip-rule="evenodd" d="M10.77 5.97981C10.8121 5.97981 10.8449 5.94917 10.8449 5.90976V4.58062C10.8449 4.5412 10.8098 4.51055 10.77 4.51055H8.02312C7.98101 4.51055 7.94825 4.5434 7.94825 4.58062V5.90976C7.94825 5.94917 7.98101 5.97981 8.02312 5.97981H10.77ZM0.989327 0.525442C0.753011 0.525442 0.561151 0.707164 0.561151 0.928343C0.561151 1.1495 0.753011 1.32906 0.989327 1.32906H8.47889L8.48123 0.759738C8.48123 0.630525 8.36659 0.525442 8.22854 0.525442H0.989327ZM10.4985 3.98523H10.7699C11.1209 3.98523 11.4063 4.25237 11.4087 4.58082V5.90996C11.4087 6.23842 11.1232 6.50554 10.7723 6.50554H10.5008V8.03396C10.5008 8.65581 9.96035 9.16384 9.29352 9.16384H0.814236C0.365002 9.16384 0 8.82225 0 8.40183V0.926215V0.913099C0.00701928 0.40726 0.449234 0 0.989718 0H8.22893C8.67817 0 9.04317 0.341569 9.04317 0.761989L9.04083 1.32914H9.29118C9.95567 1.32914 10.4985 1.83494 10.4985 2.459V3.98523Z" fill="white"/>
</svg>
