<svg width="25" height="23" viewBox="0 0 25 23" fill="none" xmlns="http://www.w3.org/2000/svg">
<path d="M22.9402 7.35947C22.9402 6.61193 22.4762 6.19469 21.6499 6.19469C19.1645 6.19469 16.6791 6.19469 14.1874 6.19469C11.6766 6.19469 9.16575 6.19469 6.65494 6.19469C5.86038 6.19469 5.39 6.61772 5.39 7.33629C5.39 9.82231 5.39 12.3025 5.39 14.7885C5.39 15.5013 5.86038 15.9301 6.65494 15.9301C11.6575 15.9301 16.6664 15.9301 21.6689 15.9301C22.4698 15.9301 22.9339 15.5013 22.9339 14.7654C22.9402 12.2967 22.9402 9.8281 22.9402 7.35947ZM22.0185 13.9135C22.0185 14.6495 21.4782 15.1073 20.6074 15.1073C18.4398 15.1073 16.2723 15.1073 14.1047 15.1073C11.9372 15.1073 9.76961 15.1073 7.60205 15.1073C6.74393 15.1073 6.19092 14.6437 6.19092 13.9309C6.19092 11.9954 6.19092 10.0657 6.19092 8.13019C6.19092 7.41742 6.74393 6.95383 7.60205 6.95383H12.3122H20.582C21.4655 6.95383 22.0122 7.41163 22.0185 8.14758C22.0185 10.0715 22.0185 11.9954 22.0185 13.9135ZM20.5883 7.53332H12.3186H7.60841C7.25245 7.53332 6.83292 7.63763 6.83292 8.13019C6.83292 10.0657 6.83292 11.9954 6.83292 13.9309C6.83292 14.4235 7.25245 14.5278 7.60841 14.5278C11.9435 14.5278 16.2786 14.5278 20.6138 14.5278C21.1286 14.5278 21.3892 14.3192 21.3892 13.9135C21.3892 11.9896 21.3892 10.0715 21.3892 8.14758C21.3829 7.99691 21.3829 7.53332 20.5883 7.53332ZM14.6387 13.0443C14.5243 13.0848 14.4861 13.137 14.4925 13.2413C14.4988 13.4036 14.4988 13.56 14.4925 13.7223C14.4861 13.9019 14.359 14.012 14.1746 14.0178C13.984 14.0236 13.8505 13.9077 13.8441 13.7165C13.8378 13.5716 13.8378 13.4209 13.8441 13.2761C13.8505 13.1544 13.8187 13.0848 13.6725 13.0385C13.183 12.8646 12.8461 12.401 12.8652 11.9664C12.8716 11.7868 12.9923 11.6709 13.1767 11.6651C13.361 11.6593 13.4945 11.7636 13.5136 11.9432C13.5199 11.978 13.5136 12.0186 13.5199 12.0533C13.5644 12.3083 13.7805 12.5054 14.0539 12.5459C14.3399 12.5865 14.6132 12.459 14.7404 12.2214C14.8675 11.9896 14.8167 11.723 14.6196 11.5376C14.4925 11.4217 14.3399 11.3695 14.1683 11.3638C13.4881 11.3348 12.9987 10.9523 12.8843 10.3612C12.7762 9.8281 13.1195 9.30656 13.7297 9.08056C13.825 9.04579 13.8441 8.99943 13.8441 8.9183C13.8378 8.75025 13.8378 8.58799 13.8441 8.41994C13.8505 8.22871 13.9712 8.11281 14.1683 8.11281C14.359 8.11281 14.4861 8.22871 14.4925 8.41994C14.4988 8.50686 14.4925 8.59379 14.4925 8.68071C14.4925 8.6923 14.4925 8.70389 14.4925 8.71548C14.4543 8.92989 14.5179 9.05159 14.7658 9.15589C15.2108 9.34133 15.4332 9.69482 15.4587 10.141C15.4714 10.3496 15.3569 10.4713 15.1599 10.4829C14.9565 10.4945 14.8357 10.3844 14.8167 10.1816C14.7849 9.8281 14.5115 9.58472 14.1492 9.59631C13.806 9.6079 13.5263 9.86287 13.5199 10.1816C13.5136 10.5177 13.7869 10.7611 14.1937 10.7785C14.8421 10.8074 15.3379 11.2073 15.4523 11.7926C15.554 12.2967 15.2108 12.8415 14.6387 13.0443ZM14.6387 16.6255C14.448 16.6313 14.2382 16.585 14.0793 16.6545C13.9903 16.6951 14.0602 16.9327 14.0539 17.0833C14.0539 17.1065 14.0475 18.0221 14.0539 18.0453C14.0793 18.196 14.0094 18.2191 13.8886 18.2191C10.0684 18.2133 6.24177 18.2133 2.42153 18.2191C2.28169 18.2191 2.25626 18.1728 2.25626 18.0395C2.26262 13.9831 2.26262 8.43732 2.25626 4.38089C2.25626 4.23601 2.2944 4.20704 2.42789 4.20704C6.24813 4.21283 10.0747 4.21283 13.895 4.20704C14.0284 4.20704 14.0666 4.2476 14.0602 4.38668C14.0475 4.54894 14.003 5.36602 14.0857 5.46454C14.181 5.58043 14.3908 5.48192 14.556 5.5051C14.6959 5.52248 14.7213 5.46454 14.7213 5.32546C14.7149 4.38668 14.7213 3.44211 14.7213 2.50334C14.7213 1.75 14.3272 1.33276 13.6216 1.33276C9.98573 1.33276 6.34347 1.33276 2.70757 1.33276C2.002 1.33276 1.61426 1.75579 1.61426 2.50913C1.61426 5.58623 1.61426 8.66333 1.61426 11.7462C1.61426 14.8465 1.61426 17.9468 1.61426 21.0471C1.61426 21.7656 2.02107 22.2002 2.6885 22.2002C6.34347 22.2002 9.99209 22.2002 13.6471 22.2002C14.3145 22.2002 14.7213 21.7714 14.7213 21.0702C14.7213 19.6679 14.7213 18.2597 14.7213 16.8573C14.7213 16.8168 14.7213 16.7704 14.7213 16.7298C14.7086 16.6603 14.6959 16.6255 14.6387 16.6255ZM7.42407 2.71775C7.67198 2.71775 7.91352 2.71775 8.16142 2.71775C8.40933 2.71775 8.65087 2.71195 8.89877 2.71775C9.15303 2.72354 9.29923 2.84524 9.29923 3.05385C9.30559 3.27406 9.15939 3.40734 8.89242 3.41314C8.40297 3.41893 7.90716 3.41893 7.41772 3.41314C7.15074 3.41314 7.00455 3.27985 7.00455 3.06544C7.00455 2.84524 7.15074 2.72354 7.42407 2.71775ZM8.14871 20.7979C7.51942 20.7979 7.00455 20.3111 7.0109 19.7374C7.01726 19.1753 7.53849 18.7059 8.16142 18.7117C8.79071 18.7117 9.30559 19.1927 9.29923 19.7722C9.28652 20.3343 8.76529 20.7979 8.14871 20.7979Z" fill="white"/>
</svg>
