<svg width="24" height="24" viewBox="0 0 24 24" fill="none" xmlns="http://www.w3.org/2000/svg">
<path fill-rule="evenodd" clip-rule="evenodd" d="M6.39038 6.43507C7.11072 5.71282 7.9496 5.14552 8.88425 4.74895C9.85272 4.33834 10.8805 4.13003 11.9392 4.13003C12.9979 4.13003 14.0257 4.33834 14.9941 4.74895C15.9288 5.14552 16.7679 5.71282 17.488 6.43507C17.7992 6.74719 18.0816 7.08185 18.3337 7.43665V6.59264C18.3337 3.88196 16.1427 1.68454 13.4399 1.68454H7.3691V0.588565C7.3691 0.126045 6.86099 -0.155146 6.47083 0.091408L0.273539 4.00768C-0.0911796 4.23818 -0.0911796 4.77149 0.273539 5.00204L5.13614 8.07484C5.47873 7.47763 5.89846 6.92842 6.39038 6.43507ZM5.55342 12.0005C5.55342 8.46311 8.41265 5.59535 11.9398 5.59535C15.4671 5.59535 18.3264 8.46311 18.3264 12.0005C18.3264 15.5379 15.4671 18.4057 11.9398 18.4057C8.41265 18.4057 5.55342 15.5379 5.55342 12.0005ZM14.0309 10.3987H13.7081V13.711C13.7081 14.0104 13.7152 14.3204 13.7246 14.577C13.7319 14.7745 13.574 14.9385 13.377 14.9385H12.9257C12.7467 14.9385 12.5968 14.8021 12.5795 14.6233L12.5514 14.3331H12.5346C12.2747 14.7955 11.7801 15.0309 11.252 15.0309C10.2797 15.0309 9.50009 14.1986 9.50009 12.9208C9.49177 11.5336 10.3552 10.7349 11.3359 10.7349C11.8388 10.7349 12.2328 10.9115 12.4172 11.1973H12.434V10.3987H11.2646C11.0725 10.3987 10.9167 10.2425 10.9167 10.0498C10.9167 9.85708 11.0725 9.70088 11.2646 9.70088H12.434V9.31836C12.434 9.12572 12.5897 8.96951 12.7818 8.96951H13.3603C13.5524 8.96951 13.7081 9.12572 13.7081 9.31836V9.70088H14.0309C14.2229 9.70088 14.3787 9.85708 14.3787 10.0498C14.3787 10.2425 14.2229 10.3987 14.0309 10.3987ZM11.6716 11.7098C11.0931 11.7098 10.7914 12.231 10.7914 12.8783C10.7914 13.5761 11.1351 14.0133 11.6631 14.0133C12.032 14.0133 12.3254 13.7611 12.4008 13.3995C12.426 13.3071 12.4344 13.2146 12.4344 13.1053V12.5672C12.4344 12.5 12.426 12.4075 12.4176 12.3403C12.3421 11.9955 12.0656 11.7098 11.6716 11.7098ZM18.7429 15.9254L23.6055 18.9982C23.9703 19.2288 23.9703 19.7621 23.6055 19.9926L17.4084 23.9088C17.0183 24.1554 16.5102 23.8742 16.5102 23.4117V22.3157H10.4392C7.73639 22.3157 5.54536 20.1183 5.54536 17.4076V16.5636C5.79747 16.9184 6.07984 17.2531 6.3911 17.5652C7.1112 18.2875 7.95027 18.8548 8.88493 19.2511C9.8534 19.6619 10.8812 19.8703 11.9399 19.8703C12.9986 19.8703 14.0264 19.6619 14.9949 19.2511C15.9295 18.8548 16.7684 18.2875 17.4887 17.5652C17.9806 17.0717 18.4003 16.5227 18.7429 15.9254Z" fill="white"/>
</svg>
