<svg width="25" height="21" viewBox="0 0 25 21" fill="none" xmlns="http://www.w3.org/2000/svg">
<path fill-rule="evenodd" clip-rule="evenodd" d="M23.6104 13.9428C23.702 13.9428 23.7732 13.8762 23.7732 13.7904V10.8995C23.7732 10.8137 23.6969 10.7471 23.6104 10.7471H17.6357C17.5441 10.7471 17.4728 10.8185 17.4728 10.8995V13.7904C17.4728 13.8762 17.5441 13.9428 17.6357 13.9428H23.6104ZM3.86395 12.3455C3.86395 14.9211 6.10318 17.0167 8.85549 17.0167C11.6076 17.0167 13.8468 14.9211 13.8468 12.3455C13.8468 9.76974 11.6076 7.67409 8.85549 7.67409C6.10318 7.67409 3.86395 9.76974 3.86395 12.3455ZM2.33817 2.07952C1.82416 2.07952 1.40685 2.47478 1.40685 2.95587C1.40685 3.4369 1.82416 3.82745 2.33817 3.82745H18.6286L18.6336 2.58914C18.6336 2.30809 18.3843 2.07952 18.084 2.07952H2.33817ZM23.0203 9.60422H23.6106C24.374 9.60422 24.9949 10.1853 24.9999 10.8997V13.7907C24.9999 14.5051 24.3791 15.0861 23.6157 15.0861H23.0254V18.4105C23.0254 19.7631 21.8498 20.8681 20.3994 20.8681H1.95632C0.979208 20.8681 0.185303 20.1251 0.185303 19.2107V2.95063V2.9221C0.20057 1.82186 1.16242 0.936035 2.33801 0.936035H18.0838C19.0609 0.936035 19.8548 1.67897 19.8548 2.59342L19.8497 3.82702H20.3943C21.8396 3.82702 23.0203 4.92716 23.0203 6.28454V9.60422ZM9.3642 12.8218H10.3045C10.5856 12.8218 10.8134 12.6086 10.8134 12.3456C10.8134 12.0827 10.5856 11.8693 10.3045 11.8693H9.3642H8.34638H7.40631C7.12519 11.8693 6.8974 12.0827 6.8974 12.3456C6.8974 12.6086 7.12519 12.8218 7.40631 12.8218H8.34638H9.3642ZM4.85837 12.3453C4.85837 10.2824 6.65168 8.60415 8.85588 8.60415C11.0599 8.60415 12.8532 10.2824 12.8532 12.3453C12.8532 14.408 11.0599 16.0863 8.85588 16.0863C6.65168 16.0863 4.85837 14.408 4.85837 12.3453Z" fill="#0465B0"/>
</svg>
