<svg width="235" height="120" viewBox="0 0 235 120" fill="none" xmlns="http://www.w3.org/2000/svg">
<mask id="mask0_130:8211" style="mask-type:alpha" maskUnits="userSpaceOnUse" x="0" y="-2" width="291" height="163">
<path fill-rule="evenodd" clip-rule="evenodd" d="M0 -2H291V135.507C291 135.507 218.25 161 145.5 161C72.75 161 0 135.507 0 135.507V-2Z" fill="white"/>
</mask>
<g mask="url(#mask0_130:8211)">
<path fill-rule="evenodd" clip-rule="evenodd" d="M0 -1H235V121.322C235 121.322 176.25 144 117.5 144C58.75 144 0 121.322 0 121.322V-1Z" fill="url(#paint0_linear_130:8211)"/>
<path d="M124 -1H0V22.3765C10.1939 24.0824 20.9371 25 32.0124 25C68.7895 25 101.76 14.9176 124 -1Z" fill="url(#paint1_linear_130:8211)"/>
<path opacity="0.6" d="M269.984 148.909L270 178L134.992 104.421C128.192 100.166 124 92.3303 124 83.8374C124 75.3446 128.192 67.4917 134.992 63.2539L270 -21V148.909H269.984Z" fill="url(#paint2_linear_130:8211)"/>
</g>
<defs>
<linearGradient id="paint0_linear_130:8211" x1="57.9667" y1="-10.2773" x2="207.742" y2="196.212" gradientUnits="userSpaceOnUse">
<stop offset="0.0606965" stop-color="#4A37FF"/>
<stop offset="0.291392" stop-color="#6933DB"/>
<stop offset="0.692925" stop-color="#D55975"/>
</linearGradient>
<linearGradient id="paint1_linear_130:8211" x1="-3.91263" y1="59.5745" x2="-16.3019" y2="-27.4978" gradientUnits="userSpaceOnUse">
<stop offset="0.344857" stop-color="#4C68EF"/>
<stop offset="0.703324" stop-color="#0091FF" stop-opacity="0.12052"/>
</linearGradient>
<linearGradient id="paint2_linear_130:8211" x1="247.345" y1="268.848" x2="333.593" y2="241.951" gradientUnits="userSpaceOnUse">
<stop offset="0.308938" stop-color="#D55975"/>
<stop offset="0.92535" stop-color="#9F46A9"/>
</linearGradient>
</defs>
</svg>
