<svg width="48" height="48" viewBox="0 0 48 48" fill="none" xmlns="http://www.w3.org/2000/svg">
<path d="M45.8887 33.1552C44.7631 28.9757 41.8904 26.5055 37.7044 25.5221C37.1064 25.3816 37.1064 25.405 37.1064 24.7845C37.0595 20.8977 37.2002 17.0108 37.0244 13.124C36.954 11.5669 36.4264 10.1855 35.3711 9.06158C33.4599 7.04792 31.5604 5.04597 29.5905 3.10256C29.1567 2.66939 28.6525 2.31817 28.1014 2.02548C27.351 1.62743 26.5654 1.4167 25.7212 1.36987C19.5888 1.36987 13.4682 1.36987 7.33591 1.36987C6.99588 1.46353 6.64412 1.44012 6.31581 1.60402C5.06121 2.2128 4.26389 3.19621 4.00593 4.56597C3.91213 5.04597 3.87695 5.54939 3.87695 6.0528C3.87695 16.9523 3.87695 27.8518 3.87695 38.7513C3.87695 39.3016 3.91213 39.8635 4.04111 40.4021C4.46322 42.2869 6.11648 43.563 8.10978 43.563C14.629 43.563 21.1483 43.563 27.6676 43.563C28.1014 43.563 28.4532 43.6684 28.7932 43.9494C29.9071 44.9094 31.1969 45.565 32.5805 46.0216C33.1902 46.2206 33.8234 46.2089 34.4331 46.326C35.1718 46.326 35.8987 46.326 36.6374 46.326C37.083 46.2323 37.5403 46.2791 37.9741 46.1855C39.944 45.7523 41.6676 44.8508 43.0863 43.4226C45.9356 40.5426 46.944 37.0655 45.8887 33.1552ZM26.1667 40.3787C26.2254 40.4957 26.2723 40.6128 26.3309 40.7299C26.3309 40.7416 26.3192 40.7533 26.3074 40.8001C26.1785 40.8001 26.0378 40.8001 25.8853 40.8001C20.011 40.8001 14.1366 40.8001 8.26221 40.8001C7.18349 40.8001 6.6793 40.3084 6.6793 39.2196C6.6793 28.0157 6.6793 16.8118 6.6793 5.59621C6.6793 4.48402 7.17176 4.00402 8.28566 4.00402C13.7497 4.00402 19.2136 4.01573 24.6776 3.99231C26.0143 3.99231 27.1165 4.4489 28.0311 5.4206C29.6609 7.14158 31.3141 8.83914 32.9791 10.525C33.8585 11.4148 34.2806 12.4567 34.2806 13.7094C34.2689 17.5026 34.2689 21.284 34.2806 25.0772C34.2806 25.4167 34.1751 25.5104 33.8585 25.5689C29.4381 26.365 26.1316 29.5845 25.2991 33.9865C24.9121 36.2108 25.2053 38.3416 26.1667 40.3787ZM35.5939 43.6918C31.2907 43.6801 27.7848 40.1679 27.7966 35.8596C27.8083 31.5279 31.3259 28.0391 35.6642 28.0626C40.0026 28.086 43.5319 31.5982 43.5202 35.8948C43.5084 40.2148 39.9557 43.7035 35.5939 43.6918ZM14.5587 14.1074C15.6726 14.1074 16.7865 14.1074 17.9004 14.1074C18.7564 14.1074 19.3426 14.646 19.3543 15.4187C19.3543 16.1913 18.7681 16.7416 17.9239 16.7416C15.6609 16.7416 13.3862 16.7416 11.1232 16.7416C10.279 16.7416 9.6927 16.1796 9.6927 15.4069C9.70442 14.6577 10.2907 14.1074 11.0997 14.1074C12.2371 14.1074 13.3979 14.1074 14.5587 14.1074ZM14.5001 21.1318C15.6257 21.1318 16.7513 21.1318 17.877 21.1318C18.7329 21.1318 19.3192 21.6704 19.3309 22.4313C19.3426 23.2157 18.7329 23.766 17.8652 23.766C15.6257 23.766 13.3862 23.766 11.1466 23.766C10.2672 23.766 9.66925 23.2274 9.66925 22.443C9.66925 21.6587 10.279 21.1318 11.1584 21.1318C12.284 21.1318 13.3979 21.1318 14.5001 21.1318ZM14.4766 30.7904C13.351 30.7904 12.2254 30.7904 11.0997 30.7904C10.2672 30.7904 9.66925 30.2284 9.68097 29.4557C9.6927 28.7065 10.279 28.1562 11.0997 28.1562C13.3862 28.1562 15.6609 28.1562 17.9473 28.1562C18.7564 28.1562 19.3426 28.7182 19.3426 29.4674C19.3426 30.2167 18.7564 30.7787 17.9473 30.7904C16.7982 30.7904 15.6374 30.7904 14.4766 30.7904ZM25.7798 14.1074C26.026 14.1074 26.2723 14.0957 26.5302 14.1074C27.2455 14.1426 27.7966 14.7162 27.7966 15.4187C27.7966 16.1211 27.2572 16.7065 26.5302 16.7299C26.0143 16.7533 25.5101 16.7533 24.9942 16.7299C24.279 16.6948 23.7396 16.0977 23.7513 15.3952C23.7631 14.7162 24.3024 14.1426 24.9942 14.1074C25.2522 14.0957 25.5101 14.1074 25.7798 14.1074ZM25.7564 21.1318C26.0026 21.1318 26.2488 21.1201 26.5068 21.1318C27.222 21.1669 27.7731 21.7289 27.7848 22.4313C27.7966 23.1338 27.2455 23.7191 26.5419 23.7543C26.026 23.7777 25.5218 23.7777 25.0059 23.7543C24.2907 23.7191 23.7513 23.1338 23.7513 22.4313C23.7513 21.7289 24.3024 21.1552 25.0177 21.1201C25.2639 21.1201 25.5101 21.1318 25.7564 21.1318ZM34.5738 35.5904C35.1952 34.8411 35.7932 34.1269 36.3912 33.4128C36.5319 33.2489 36.6609 33.0733 36.8133 32.9094C37.3175 32.3708 38.0914 32.3006 38.6307 32.7455C39.1818 33.1904 39.2873 34.0099 38.8183 34.5952C38.1852 35.3796 37.5285 36.1523 36.8837 36.925C36.3795 37.5338 35.8753 38.1426 35.3594 38.7396C34.6207 39.5943 33.5537 39.4772 33.0378 38.4704C32.5922 37.604 32.1584 36.726 31.7245 35.8479C31.361 35.1104 31.5955 34.3494 32.2639 34.0099C32.944 33.6704 33.6826 33.9279 34.0696 34.6655C34.2572 34.9582 34.3979 35.2509 34.5738 35.5904Z" fill="white"/>
</svg>
