<svg width="24" height="24" viewBox="0 0 24 24" fill="none" xmlns="http://www.w3.org/2000/svg">
<path d="M19.878 11.3585C19.878 14.5385 19.878 17.7185 19.878 20.8985C19.878 22.3265 19.152 23.2325 17.754 23.5385C17.742 23.5385 17.73 23.5565 17.718 23.5685C12.708 23.5685 7.69795 23.5685 2.68795 23.5685C1.87195 23.5085 1.28395 23.0825 0.845954 22.4165C0.659954 22.1345 0.569954 21.8285 0.527954 21.4985C0.527954 16.4285 0.527954 11.3585 0.527954 6.28846C0.611954 6.19246 0.599954 6.07246 0.635954 5.95846C0.959954 4.94446 1.88995 4.22446 2.95795 4.21846C6.26395 4.21246 9.56995 4.21246 12.882 4.21846C13.284 4.21846 13.578 4.51246 13.578 4.89046C13.578 5.28646 13.272 5.56846 12.84 5.56846C9.59995 5.56846 6.35995 5.56846 3.11995 5.56846C2.94595 5.56846 2.77795 5.58046 2.60995 5.64046C2.14795 5.81446 1.87795 6.22246 1.87795 6.74446C1.87795 8.65846 1.87795 10.5665 1.87795 12.4805C1.87795 15.3125 1.87795 18.1505 1.87795 20.9825C1.87795 21.7505 2.33995 22.2185 3.10195 22.2185C7.83595 22.2185 12.564 22.2185 17.298 22.2185C18.066 22.2185 18.528 21.7565 18.528 20.9825C18.528 17.7665 18.528 14.5505 18.528 11.3285C18.528 11.2085 18.522 11.0885 18.564 10.9745C18.672 10.6685 18.972 10.4765 19.284 10.5185C19.596 10.5605 19.848 10.8185 19.872 11.1365C19.878 11.2085 19.878 11.2865 19.878 11.3585ZM23.568 3.09046C23.568 3.27046 23.568 3.45046 23.568 3.63046C23.454 4.10446 23.148 4.45246 22.806 4.78846C19.56 8.02246 16.32 11.2625 13.086 14.5085C12.882 14.7125 12.666 14.8445 12.378 14.8985C11.394 15.0845 10.41 15.2885 9.42595 15.4805C8.90395 15.5825 8.50795 15.1805 8.60995 14.6585C8.80795 13.6385 9.01195 12.6185 9.21595 11.5985C9.25195 11.4125 9.33595 11.2505 9.47395 11.1125C12.84 7.75246 16.2 4.39246 19.56 1.02646C19.806 0.780461 20.106 0.648461 20.418 0.522461C20.598 0.522461 20.778 0.522461 20.958 0.522461C21.408 0.540461 21.732 0.786461 22.032 1.09246C22.362 1.42846 22.692 1.76446 23.028 2.09446C23.31 2.37046 23.532 2.68246 23.568 3.09046ZM20.274 5.15446C19.836 4.73446 19.404 4.30246 18.984 3.86446C18.846 3.72046 18.774 3.71446 18.624 3.85846C16.02 6.47446 13.41 9.07846 10.8 11.6825C10.608 11.8745 10.476 12.0725 10.434 12.3485C10.356 12.8285 10.248 13.3025 10.158 13.7825C10.146 13.8365 10.068 13.9565 10.176 13.9505C10.266 13.9385 10.296 13.9385 10.326 13.9325C10.866 13.8245 11.412 13.7165 11.952 13.6085C12.054 13.5905 12.144 13.5425 12.222 13.4645C14.904 10.7825 17.586 8.09446 20.268 5.41846C20.376 5.31046 20.388 5.25646 20.274 5.15446ZM22.104 3.16246C21.708 2.77246 21.318 2.38246 20.928 1.98646C20.868 1.92646 20.814 1.86646 20.718 1.87246C20.634 1.87246 20.58 1.91446 20.526 1.96846C20.304 2.19046 20.082 2.41846 19.86 2.63446C19.782 2.70646 19.782 2.75446 19.86 2.82646C20.328 3.28846 20.796 3.75646 21.258 4.22446C21.33 4.29646 21.372 4.31446 21.45 4.23046C21.666 4.00246 21.894 3.78046 22.116 3.56446C22.254 3.42646 22.242 3.30046 22.104 3.16246Z" fill="#4C68EF"/>
</svg>
