<svg width="32" height="32" viewBox="0 0 32 32" fill="none" xmlns="http://www.w3.org/2000/svg">
<path d="M31.2599 13.7359C31.0027 11.9734 30.457 10.3113 29.6291 8.73703C28.7448 7.05612 27.5844 5.60727 26.1795 4.34659C24.8812 3.17999 23.4073 2.27054 21.7891 1.61825C20.2775 1.00986 18.722 0.570818 17.0725 0.583362C16.8843 0.564546 16.6836 0.620995 16.4955 0.552002C16.138 0.552002 15.7742 0.552002 15.4167 0.552002C15.2285 0.620995 15.0341 0.564546 14.8396 0.583362C14.5009 0.564546 14.156 0.583362 13.8236 0.627267C11.8416 0.884421 9.99134 1.54299 8.26653 2.5277C6.72361 3.41206 5.38139 4.54103 4.22733 5.88952C2.38335 8.02201 1.21675 10.4744 0.721254 13.2466C0.633446 13.717 0.639718 14.2 0.564453 14.6704C0.564453 15.5108 0.564453 16.3513 0.564453 17.1918C0.620902 17.474 0.595813 17.7688 0.633446 18.051C0.802791 19.3619 1.14775 20.6226 1.65579 21.8393C2.49624 23.8276 3.68793 25.5775 5.24967 27.0765C6.57935 28.356 8.09091 29.347 9.76555 30.1059C12.2556 31.2349 14.8835 31.5234 17.5743 31.3039C19.7068 31.1282 21.7013 30.4383 23.5641 29.3846C25.1509 28.4877 26.5245 27.3337 27.7036 25.9538C29.1713 24.2415 30.2124 22.2972 30.8334 20.1271C31.147 19.0357 31.3477 17.9256 31.3602 16.7903C31.3728 15.768 31.4104 14.7457 31.2599 13.7359ZM20.0831 13.5853C19.9764 14.4571 19.8824 15.3352 19.8071 16.2133C19.7883 16.414 19.7381 16.483 19.5311 16.4767C18.8726 16.4642 18.2077 16.483 17.5492 16.4642C17.3296 16.4579 17.2669 16.5081 17.2669 16.7402C17.2795 18.1451 17.2732 19.5438 17.2732 20.9487C17.2732 22.3411 17.2669 23.7335 17.2795 25.1259C17.2795 25.3517 17.2293 25.4081 17.0035 25.4019C15.9498 25.3893 14.9024 25.3893 13.8487 25.4019C13.604 25.4081 13.5539 25.3266 13.5539 25.1008C13.5601 22.3286 13.5539 19.55 13.5664 16.7778C13.5664 16.5269 13.51 16.4579 13.2591 16.4705C12.8389 16.4956 12.4186 16.4705 11.9984 16.483C11.8353 16.4893 11.7977 16.4328 11.804 16.2823C11.8102 15.3729 11.8165 14.4571 11.804 13.5477C11.804 13.3533 11.8667 13.3219 12.0423 13.3219C12.4751 13.3344 12.9016 13.3156 13.3343 13.3282C13.5225 13.3344 13.5664 13.278 13.5727 13.0898C13.579 12.3497 13.5225 11.6096 13.5978 10.8695C13.8173 8.7872 14.9839 7.65196 17.0725 7.54534C18.0008 7.50143 18.9353 7.54534 19.8636 7.53907C20.0329 7.53907 20.058 7.61433 20.058 7.75859C20.0517 8.64295 20.0517 9.52103 20.058 10.4054C20.058 10.5873 19.9953 10.6186 19.8322 10.6186C19.274 10.6124 18.7095 10.6124 18.1513 10.6186C17.5617 10.6249 17.2857 10.8946 17.2795 11.4779C17.2732 12.0173 17.2857 12.5567 17.2732 13.1024C17.2669 13.2905 17.3296 13.3344 17.5115 13.3344C18.2955 13.3219 19.0733 13.3407 19.8573 13.3219C20.0768 13.3094 20.1082 13.3783 20.0831 13.5853Z" fill="#A8A8A8"/>
</svg>
