<svg width="24" height="24" viewBox="0 0 24 24" fill="none" xmlns="http://www.w3.org/2000/svg">
<path d="M22.7256 10.5669C22.5605 9.31805 22.1837 8.13266 21.5994 7.01923C20.9263 5.73223 20.0203 4.62304 18.9027 3.69166C17.4294 2.45546 15.7444 1.67649 13.8478 1.33357C13.4541 1.2616 13.0519 1.2743 12.6582 1.2235C12.6285 1.2235 12.6031 1.2235 12.5735 1.2235C12.4169 1.2235 12.2645 1.2235 12.1078 1.2235C11.9935 1.2235 11.8834 1.2235 11.7691 1.2235C11.6125 1.2235 11.4601 1.2235 11.3034 1.2235C11.2484 1.2235 11.1891 1.2235 11.1341 1.2235C10.9055 1.2616 10.6726 1.24467 10.444 1.2743C9.2036 1.43941 8.02244 1.81196 6.91325 2.38773C5.62625 3.06086 4.51283 3.96261 3.58145 5.07603C2.33678 6.56201 1.54934 8.25966 1.20642 10.169C1.14292 10.5288 1.15562 10.8972 1.10059 11.257C1.10059 11.3121 1.10059 11.3713 1.10059 11.4264C1.10059 11.583 1.10059 11.7354 1.10059 11.892C1.10059 12.0064 1.10059 12.1164 1.10059 12.2307C1.10059 12.3874 1.10059 12.5398 1.10059 12.6964C1.10059 12.7515 1.10059 12.8107 1.10059 12.8658C1.13869 13.0944 1.12175 13.3272 1.15139 13.5558C1.3165 14.7963 1.68905 15.9774 2.26481 17.0866C2.93795 18.3736 3.83969 19.487 4.95312 20.4184C6.43909 21.6631 8.13675 22.4505 10.0461 22.7934C10.4059 22.8569 10.7742 22.8442 11.1341 22.8993C11.1891 22.8993 11.2484 22.8993 11.3034 22.8993C11.4601 22.8993 11.6125 22.8993 11.7691 22.8993C11.8834 22.8993 11.9935 22.8993 12.1078 22.8993C12.2475 22.8993 12.3915 22.8993 12.5312 22.8993C12.5735 22.8993 12.6158 22.8993 12.6582 22.8993C12.9164 22.8612 13.1747 22.8823 13.4329 22.8485C14.6733 22.6834 15.8545 22.3151 16.9637 21.7351C18.2592 21.0577 19.3726 20.1517 20.3124 19.0298C21.5444 17.5523 22.3276 15.8674 22.6705 13.975C22.7383 13.6066 22.7256 13.2341 22.7806 12.87C22.7806 12.815 22.7806 12.7557 22.7806 12.7007C22.7806 12.544 22.7806 12.3916 22.7806 12.235C22.7806 12.1207 22.7806 12.0106 22.7806 11.8963C22.7806 11.7396 22.7806 11.5872 22.7806 11.4306C22.7806 11.3883 22.7806 11.3459 22.7806 11.3036C22.7383 11.0538 22.7594 10.8083 22.7256 10.5669ZM20.2278 12.6922C20.5961 12.6964 20.9602 12.6964 21.3285 12.6922C21.4428 12.6922 21.4809 12.7091 21.4724 12.8404C21.3454 14.3009 20.9178 15.6684 20.1685 16.9257C19.1651 18.6065 17.7765 19.8681 16.0112 20.7105C14.9739 21.2059 13.8732 21.4937 12.7259 21.5911C12.5735 21.6038 12.5693 21.5488 12.5735 21.4302C12.5777 21.0831 12.5777 20.7402 12.5735 20.393C12.5693 19.9612 12.3195 19.6775 11.9427 19.6733C11.5575 19.6733 11.3077 19.9485 11.3077 20.3803C11.3077 20.7275 11.3034 21.0704 11.3119 21.4175C11.3161 21.5488 11.2907 21.5996 11.1426 21.5826C9.70316 21.4556 8.35689 21.0323 7.11223 20.2999C5.70669 19.4701 4.58056 18.3567 3.74232 16.9554C3.04802 15.7911 2.60773 14.538 2.45956 13.1917C2.44262 13.0309 2.35795 12.8065 2.43415 12.7261C2.52729 12.6202 2.75167 12.7007 2.92101 12.6922C3.01415 12.688 3.10306 12.6922 3.19619 12.6922C3.39517 12.6922 3.58991 12.6964 3.78889 12.6922C4.16568 12.6837 4.44509 12.4128 4.44932 12.0614C4.45356 11.71 4.16991 11.4306 3.79736 11.4264C3.38247 11.4221 2.96335 11.4221 2.54846 11.4264C2.43839 11.4264 2.40875 11.401 2.42145 11.2867C2.54423 9.82608 2.97605 8.45864 3.72115 7.19704C4.5594 5.7788 5.69399 4.64844 7.11223 3.81443C8.25105 3.1413 9.48302 2.71794 10.8039 2.574C10.969 2.55707 11.1849 2.45546 11.2865 2.55284C11.3881 2.65021 11.3119 2.87459 11.3161 3.03969C11.3204 3.30641 11.3119 3.57735 11.3204 3.84407C11.3331 4.22085 11.6083 4.48757 11.9639 4.48333C12.3237 4.4791 12.582 4.20815 12.5862 3.8229C12.5904 3.44188 12.5947 3.06086 12.582 2.67984C12.5777 2.5486 12.6116 2.51473 12.7471 2.52743C13.8944 2.62904 14.9909 2.91692 16.0323 3.41225C17.4887 4.11078 18.7037 5.1099 19.6605 6.4096C20.5199 7.57806 21.0787 8.87776 21.3497 10.3045C21.4089 10.622 21.4343 10.948 21.4809 11.2697C21.4978 11.3883 21.4724 11.4264 21.3454 11.4221C20.9771 11.4137 20.613 11.4179 20.2447 11.4179C19.834 11.4221 19.5546 11.6846 19.5589 12.0614C19.5504 12.4339 19.8256 12.6922 20.2278 12.6922ZM13.7123 13.0647C13.6192 12.9716 13.598 12.9123 13.6531 12.7811C13.8224 12.4043 13.852 12.0064 13.742 11.6042C13.7081 11.4814 13.7335 11.4137 13.8182 11.329C14.3939 10.7575 14.9655 10.1817 15.5412 9.61016C15.6936 9.45352 15.8587 9.30535 15.9985 9.14024C16.1763 8.9328 16.1932 8.68725 16.0704 8.45017C15.9476 8.20886 15.736 8.09879 15.4608 8.11572C15.2618 8.12419 15.1221 8.23426 14.9866 8.3655C14.3304 9.02593 13.6658 9.68213 13.0138 10.3426C12.9249 10.4315 12.8614 10.4442 12.7471 10.3849C12.51 10.2579 12.2475 10.1986 11.9766 10.1944C11.2188 10.1859 10.5329 10.6008 10.2324 11.3121C9.92331 12.0402 10.0291 12.7303 10.5668 13.3145C11.0833 13.8776 11.7353 14.0512 12.4719 13.8352C12.6116 13.7929 12.6836 13.831 12.7767 13.9242C14.1738 15.3297 15.5793 16.731 16.9806 18.1323C17.0399 18.1916 17.0992 18.2551 17.1669 18.3059C17.5479 18.5938 18.0729 18.3948 18.1703 17.9249C18.2253 17.6497 18.0983 17.4507 17.9163 17.2687C16.5149 15.8674 15.1179 14.466 13.7123 13.0647ZM11.9342 12.6541C11.6083 12.6541 11.3458 12.3916 11.3415 12.0656C11.3373 11.7312 11.604 11.4602 11.9385 11.4645C12.2645 11.4645 12.5269 11.7269 12.5312 12.0529C12.5354 12.3874 12.2687 12.6541 11.9342 12.6541Z" fill="#A8A8A8"/>
</svg>
