<svg width="32" height="32" viewBox="0 0 32 32" fill="none" xmlns="http://www.w3.org/2000/svg">
<path d="M31.3728 14.6765C31.354 13.1775 30.9777 11.76 30.4383 10.3739C29.4661 7.86506 27.9295 5.74511 25.8597 4.02029C23.9279 2.40838 21.7202 1.35467 19.2678 0.802733C18.559 0.645931 17.844 0.602027 17.129 0.539307C16.345 0.539307 15.561 0.539307 14.777 0.539307C14.4697 0.595755 14.1623 0.570667 13.855 0.608299C12.1804 0.821549 10.5873 1.32331 9.0757 2.07596C7.12509 3.0544 5.45046 4.39035 4.05806 6.07126C2.45242 8.00305 1.38617 10.1983 0.840499 12.6506C0.68997 13.328 0.633521 14.0117 0.570801 14.6953C0.570801 15.5358 0.570801 16.3825 0.570801 17.223C0.627249 17.5177 0.602161 17.8188 0.646065 18.1136C0.915764 20.1144 1.57433 21.9897 2.5904 23.7396C3.61274 25.5083 4.95496 27.0011 6.56688 28.2492C8.39832 29.6667 10.4493 30.6075 12.7072 31.1156C13.3909 31.2724 14.0871 31.3225 14.7833 31.3852C15.5485 31.3852 16.3074 31.3852 17.0726 31.3852C17.4363 31.3288 17.8064 31.3539 18.1764 31.3037C20.171 31.034 22.0338 30.3692 23.7711 29.3656C25.5398 28.3433 27.0326 27.0074 28.2807 25.3892C29.8236 23.3884 30.8084 21.143 31.2537 18.653C31.3477 18.1387 31.3415 17.6181 31.4105 17.1038C31.4105 16.3198 31.4105 15.5358 31.4105 14.7518C31.3791 14.733 31.3728 14.7079 31.3728 14.6765ZM24.7684 19.8008C24.6931 21.5193 24.0784 22.987 22.5669 23.9591C21.7327 24.4923 20.7982 24.7118 19.826 24.7557C17.2607 24.8623 14.6892 24.8686 12.1176 24.7557C10.4556 24.6804 9.02552 24.0971 8.05336 22.6671C7.47633 21.8204 7.23799 20.8607 7.19409 19.8572C7.08119 17.2669 7.07492 14.6765 7.19409 12.0924C7.26935 10.4303 7.86519 9.00657 9.30149 8.04068C10.167 7.45738 11.1517 7.24413 12.1741 7.18768C13.4473 7.11241 14.7205 7.13123 16 7.12496C17.267 7.13123 18.5277 7.11241 19.7946 7.18768C21.3815 7.28176 22.7801 7.77725 23.7711 9.10065C24.4485 9.99756 24.7182 11.0387 24.7621 12.1363C24.875 14.6828 24.8813 17.2418 24.7684 19.8008ZM23.2004 12.5315C23.2004 12.3308 23.169 12.1301 23.1565 11.9293C23.0185 10.0854 21.8644 8.90622 20.0142 8.7996C17.3297 8.64907 14.639 8.64907 11.9546 8.7996C10.1106 8.90622 8.92517 10.0854 8.82482 11.9293C8.66802 14.6138 8.66802 17.3045 8.82482 19.9889C8.93144 21.8329 10.1106 23.0183 11.9546 23.1187C14.639 23.2692 17.3297 23.2692 20.0142 23.1187C21.8581 23.0121 23.0059 21.8266 23.1565 19.9827C23.2631 18.6404 23.2066 17.2982 23.2004 15.9497C23.2004 14.8208 23.2004 13.673 23.2004 12.5315ZM15.9812 20.5032C13.4661 20.497 11.434 18.4648 11.4403 15.9497C11.4465 13.4346 13.4912 11.4025 16 11.4213C18.5089 11.4339 20.5222 13.4535 20.5222 15.9623C20.5285 18.4774 18.4963 20.5095 15.9812 20.5032ZM20.6978 12.2931C20.102 12.2869 19.6441 11.8102 19.6566 11.2081C19.6692 10.6248 20.1396 10.1732 20.7292 10.1794C21.3125 10.1857 21.7766 10.6499 21.7766 11.2332C21.7703 11.829 21.2937 12.2994 20.6978 12.2931ZM18.9354 15.9685C18.9354 17.593 17.612 18.9101 15.9875 18.9164C14.3693 18.9164 13.0396 17.593 13.0334 15.9748C13.0271 14.3378 14.363 13.0081 16 13.0144C17.6182 13.0207 18.9354 14.3441 18.9354 15.9685Z" fill="#A8A8A8"/>
</svg>
