<svg width="24" height="24" viewBox="0 0 24 24" fill="none" xmlns="http://www.w3.org/2000/svg">
<path d="M9.216 15.7726V14.9648C9.46519 14.9648 9.68579 14.9219 9.87983 14.8351C10.0729 14.7483 10.2403 14.6277 10.3813 14.4735C10.6519 14.1763 10.7877 13.7607 10.7877 13.2276C10.7877 12.7946 10.6734 12.432 10.4446 12.1399C10.2158 11.8478 9.79609 11.5445 9.18434 11.231V9.56936C9.33855 9.56936 9.46009 9.63779 9.54996 9.77464C9.63881 9.91149 9.68375 10.0923 9.68375 10.3169V10.4017H10.6458V10.2843C10.6458 9.7971 10.5243 9.4274 10.2802 9.17617C10.0289 8.91676 9.67353 8.78604 9.21702 8.78604V8.22128H8.75847V8.77787C8.53685 8.77787 8.33668 8.81668 8.16 8.89532C7.9823 8.97396 7.82809 9.08528 7.69532 9.22825C7.44102 9.50706 7.31336 9.88085 7.31336 10.3486C7.31336 10.752 7.42775 11.1033 7.65651 11.4026C7.88528 11.7018 8.26519 11.9969 8.79524 12.29V14.1334C8.59813 14.0987 8.45311 14.0027 8.36324 13.8475C8.27234 13.6923 8.22741 13.4717 8.22741 13.1877L8.23149 13.0948L8.23558 12.9978H7.24902V13.1561C7.24902 13.73 7.37464 14.1671 7.6269 14.4674C7.76273 14.6267 7.92409 14.7503 8.112 14.8371C8.29992 14.9239 8.51643 14.9668 8.75949 14.9668V15.7746H9.216V15.7726ZM9.18332 12.4882C9.39166 12.626 9.53668 12.7619 9.61736 12.8946C9.69907 13.0274 9.7389 13.1939 9.7389 13.394C9.7389 13.6024 9.69089 13.7699 9.59489 13.8955C9.49889 14.0211 9.36102 14.1008 9.1823 14.1334V12.4882H9.18332ZM8.42247 10.6468C8.34281 10.5181 8.30298 10.3782 8.30298 10.2271C8.30298 10.03 8.34485 9.87268 8.4286 9.75625C8.47455 9.69396 8.52766 9.64596 8.58894 9.61225C8.65021 9.57855 8.7166 9.56119 8.79013 9.56119L8.79421 11.0063C8.6257 10.895 8.50213 10.7755 8.42247 10.6468Z" fill="#A8A8A8"/>
<path d="M16.4264 19.9475H13.3657C12.9909 19.9475 12.6865 20.2519 12.6865 20.6267C12.6865 21.0015 12.9909 21.3058 13.3657 21.3058H16.4264C16.8013 21.3058 17.1056 21.0015 17.1056 20.6267C17.1056 20.2519 16.8013 19.9475 16.4264 19.9475Z" fill="#A8A8A8"/>
<path d="M19.0562 0.909927H10.6419C9.38877 0.909927 8.36953 1.92916 8.36953 3.18227V5.53223C5.16783 5.90193 2.67285 8.62771 2.67285 11.9264C2.67285 15.2252 5.16783 17.952 8.36953 18.3207V20.7635C8.36953 22.0167 9.38877 23.0359 10.6419 23.0359H19.0562C20.3093 23.0359 21.3285 22.0167 21.3285 20.7635V3.18227C21.3285 1.92916 20.3093 0.909927 19.0562 0.909927ZM10.6409 2.2672H19.0552C19.5597 2.2672 19.9702 2.67776 19.9702 3.18227V3.81035H9.72681V3.18227C9.72681 2.67776 10.1363 2.2672 10.6409 2.2672ZM14.1469 15.936L14.295 15.7501V8.10278L14.1469 7.91691C14.0049 7.7392 13.8528 7.57069 13.6934 7.40933C13.8221 7.32354 13.9845 7.27146 14.1612 7.27146C14.5769 7.27146 14.9149 7.55435 14.9149 7.90261V16.0442C14.9149 16.3925 14.5769 16.6754 14.1612 16.6754C13.96 16.6754 13.7772 16.609 13.6414 16.4997C13.8191 16.323 13.9876 16.1351 14.1469 15.936ZM12.5466 17.3729C12.9581 17.7232 13.529 17.9418 14.1602 17.9418C15.4092 17.9418 16.4254 17.09 16.4254 16.0432V7.90261C16.4254 6.8558 15.4092 6.00406 14.1602 6.00406C13.5586 6.00406 13.0123 6.20218 12.6058 6.52389C12.3484 6.3564 12.0809 6.20525 11.8031 6.07759C11.1423 5.77223 10.4458 5.58635 9.72579 5.51895V5.16763H19.9702V18.2042H10.5428C11.2557 18.0439 11.9328 17.762 12.5466 17.3729ZM4.03013 11.9264C4.03013 9.12508 6.30962 6.84559 9.11098 6.84559C9.85243 6.84559 10.5673 7.00184 11.2352 7.31027C11.8817 7.60848 12.4659 8.04763 12.9367 8.58584V15.267C11.9695 16.3761 10.5877 17.0073 9.11098 17.0073C6.30962 17.0073 4.03013 14.7278 4.03013 11.9264ZM19.0562 21.6786H10.6419C10.1374 21.6786 9.72681 21.2681 9.72681 20.7635V19.5625H19.9712V20.7635C19.9702 21.2681 19.5597 21.6786 19.0562 21.6786Z" fill="#A8A8A8"/>
</svg>
