<svg width="24" height="24" viewBox="0 0 24 24" fill="none" xmlns="http://www.w3.org/2000/svg">
<path fill-rule="evenodd" clip-rule="evenodd" d="M20.4802 7.41661L20.4796 7.40108C20.4709 7.20932 20.4651 7.00644 20.4616 6.78072C20.4453 5.67998 19.5703 4.76948 18.4694 4.70794C16.1741 4.57985 14.3985 3.8314 12.8813 2.35263L12.8684 2.3403C12.3735 1.88657 11.6271 1.88657 11.1321 2.3403L11.1191 2.35263C9.60196 3.8314 7.82634 4.57985 5.53104 4.7081C4.4303 4.76948 3.55513 5.67998 3.53883 6.78087C3.53548 7.00507 3.52954 7.20795 3.52086 7.40108L3.51995 7.43717C3.47532 9.77771 3.41988 12.6906 4.39435 15.3346C4.93018 16.7885 5.74168 18.0524 6.80617 19.0913C8.01855 20.2744 9.60653 21.2137 11.5259 21.8829C11.5884 21.9047 11.6533 21.9224 11.7194 21.9356C11.8126 21.9542 11.9064 21.9635 12.0002 21.9635C12.094 21.9635 12.188 21.9542 12.2811 21.9356C12.3472 21.9224 12.4125 21.9046 12.4753 21.8826C14.3924 21.2122 15.9787 20.2724 17.19 19.0894C18.254 18.0502 19.0655 16.7861 19.6018 15.3318C20.58 12.68 20.5247 9.76157 20.4802 7.41661ZM18.5028 14.9265C17.475 17.7132 15.3769 19.6269 12.0887 20.7769C12.077 20.7808 12.0645 20.7843 12.0515 20.7869C12.0176 20.7936 11.983 20.7936 11.9486 20.7868C11.9358 20.7842 11.9233 20.7808 11.9117 20.7769C8.62002 19.6291 6.52059 17.7164 5.49357 14.9296C4.5954 12.4925 4.64627 9.81853 4.6912 7.45956L4.69151 7.44647C4.70065 7.24374 4.70674 7.03142 4.71009 6.79808C4.7174 6.30932 5.1067 5.90494 5.59638 5.87768C6.89527 5.80518 8.03637 5.55417 9.08487 5.11035C10.132 4.66713 11.062 4.04235 11.9277 3.20039C11.9717 3.16322 12.0289 3.16307 12.0727 3.20039C12.9386 4.04235 13.8686 4.66713 14.9156 5.11035C15.9641 5.55417 17.1052 5.80518 18.4042 5.87768C18.8939 5.90494 19.2832 6.30932 19.2903 6.79824C19.2939 7.03279 19.2999 7.24511 19.3091 7.44647C19.3539 9.80817 19.4035 12.4842 18.5028 14.9265ZM16.1618 9.19414C15.8859 8.91826 15.4387 8.91826 15.1628 9.19414L11.0861 13.2708L9.29759 11.4822C9.0217 11.2063 8.57441 11.2063 8.29852 11.4822C8.02264 11.7581 8.02264 12.2054 8.29852 12.4813L10.5866 14.7694C10.8625 15.0453 11.3098 15.0453 11.5857 14.7694L16.1618 10.1932C16.4377 9.91732 16.4377 9.47003 16.1618 9.19414Z" fill="#A8A8A8"/>
</svg>
