<svg width="49" height="48" viewBox="0 0 49 48" fill="none" xmlns="http://www.w3.org/2000/svg">
<g clip-path="url(#clip0_445:1243)">
<path d="M46.738 33.1552C45.6124 28.9757 42.7397 26.5055 38.5538 25.5221C37.9558 25.3816 37.9558 25.405 37.9558 24.7845C37.9089 20.8977 38.0496 17.0109 37.8737 13.124C37.8034 11.5669 37.2757 10.1855 36.2204 9.06158C34.3092 7.04792 32.4097 5.04597 30.4399 3.10256C30.006 2.66939 29.5019 2.31817 28.9508 2.02548C28.2004 1.62743 27.4148 1.4167 26.5705 1.36987C20.4382 1.36987 14.3176 1.36987 8.18528 1.36987C7.84525 1.46353 7.49349 1.44012 7.16518 1.60402C5.91057 2.2128 5.11325 3.19621 4.8553 4.56597C4.76149 5.04597 4.72632 5.54939 4.72632 6.0528C4.72632 16.9523 4.72632 27.8518 4.72632 38.7513C4.72632 39.3016 4.76149 39.8635 4.89047 40.4021C5.31258 42.2869 6.96585 43.563 8.95915 43.563C15.4784 43.563 21.9977 43.563 28.5169 43.563C28.9508 43.563 29.3025 43.6684 29.6426 43.9494C30.7565 44.9094 32.0462 45.565 33.4298 46.0216C34.0395 46.2206 34.6727 46.2089 35.2824 46.326C36.0211 46.326 36.7481 46.326 37.4868 46.326C37.9323 46.2323 38.3896 46.2791 38.8235 46.1855C40.7933 45.7523 42.5169 44.8508 43.9357 43.4226C46.7849 40.5426 47.7933 37.0655 46.738 33.1552ZM27.0161 40.3787C27.0747 40.4957 27.1216 40.6128 27.1803 40.7299C27.1803 40.7416 27.1685 40.7533 27.1568 40.8001C27.0278 40.8001 26.8871 40.8001 26.7347 40.8001C20.8603 40.8001 14.9859 40.8001 9.11158 40.8001C8.03285 40.8001 7.52866 40.3084 7.52866 39.2196C7.52866 28.0157 7.52866 16.8118 7.52866 5.59621C7.52866 4.48402 8.02113 4.00402 9.13503 4.00402C14.599 4.00402 20.063 4.01573 25.527 3.99231C26.8637 3.99231 27.9658 4.4489 28.8804 5.4206C30.5102 7.14158 32.1635 8.83914 33.8285 10.525C34.7079 11.4148 35.13 12.4567 35.13 13.7094C35.1183 17.5026 35.1183 21.284 35.13 25.0772C35.13 25.4167 35.0245 25.5104 34.7079 25.5689C30.2875 26.365 26.9809 29.5845 26.1484 33.9865C25.7615 36.2108 26.0546 38.3416 27.0161 40.3787ZM36.4432 43.6918C32.1401 43.6801 28.6342 40.1679 28.6459 35.8596C28.6576 31.5279 32.1752 28.0391 36.5136 28.0626C40.8519 28.086 44.3813 31.5982 44.3695 35.8948C44.3578 40.2148 40.805 43.7035 36.4432 43.6918ZM15.4081 14.1074C16.522 14.1074 17.6359 14.1074 18.7498 14.1074C19.6057 14.1074 20.192 14.646 20.2037 15.4187C20.2037 16.1913 19.6174 16.7416 18.7732 16.7416C16.5102 16.7416 14.2355 16.7416 11.9725 16.7416C11.1283 16.7416 10.5421 16.1796 10.5421 15.4069C10.5538 14.6577 11.1401 14.1074 11.9491 14.1074C13.0865 14.1074 14.2473 14.1074 15.4081 14.1074ZM15.3494 21.1318C16.4751 21.1318 17.6007 21.1318 18.7263 21.1318C19.5823 21.1318 20.1685 21.6704 20.1803 22.4313C20.192 23.2157 19.5823 23.766 18.7146 23.766C16.4751 23.766 14.2355 23.766 11.996 23.766C11.1166 23.766 10.5186 23.2274 10.5186 22.443C10.5186 21.6587 11.1283 21.1318 12.0077 21.1318C13.1334 21.1318 14.2473 21.1318 15.3494 21.1318ZM15.326 30.7904C14.2004 30.7904 13.0747 30.7904 11.9491 30.7904C11.1166 30.7904 10.5186 30.2284 10.5303 29.4557C10.5421 28.7065 11.1283 28.1562 11.9491 28.1562C14.2355 28.1562 16.5102 28.1562 18.7967 28.1562C19.6057 28.1562 20.192 28.7182 20.192 29.4674C20.192 30.2167 19.6057 30.7787 18.7967 30.7904C17.6476 30.7904 16.4868 30.7904 15.326 30.7904ZM26.6292 14.1074C26.8754 14.1074 27.1216 14.0957 27.3796 14.1074C28.0948 14.1426 28.6459 14.7162 28.6459 15.4187C28.6459 16.1211 28.1066 16.7065 27.3796 16.7299C26.8637 16.7533 26.3595 16.7533 25.8436 16.7299C25.1283 16.6948 24.589 16.0977 24.6007 15.3952C24.6124 14.7162 25.1518 14.1426 25.8436 14.1074C26.1015 14.0957 26.3595 14.1074 26.6292 14.1074ZM26.6057 21.1318C26.8519 21.1318 27.0982 21.1201 27.3561 21.1318C28.0714 21.1669 28.6225 21.7289 28.6342 22.4313C28.6459 23.1338 28.0948 23.7191 27.3913 23.7543C26.8754 23.7777 26.3712 23.7777 25.8553 23.7543C25.1401 23.7191 24.6007 23.1338 24.6007 22.4313C24.6007 21.7289 25.1518 21.1552 25.867 21.1201C26.1133 21.1201 26.3595 21.1318 26.6057 21.1318Z" fill="white"/>
<path fill-rule="evenodd" clip-rule="evenodd" d="M35.1248 32.3905C34.6041 31.8698 33.7599 31.8698 33.2392 32.3905C32.7185 32.9112 32.7185 33.7554 33.2392 34.2761L34.963 36L33.2392 37.7239C32.7185 38.2446 32.7185 39.0888 33.2392 39.6095C33.7599 40.1302 34.6041 40.1302 35.1248 39.6095L36.8486 37.8856L38.5725 39.6095C39.0932 40.1302 39.9374 40.1302 40.4581 39.6095C40.9788 39.0888 40.9788 38.2446 40.4581 37.7239L38.7343 36L40.4581 34.2761C40.9788 33.7554 40.9788 32.9112 40.4581 32.3905C39.9374 31.8698 39.0932 31.8698 38.5725 32.3905L36.8486 34.1144L35.1248 32.3905Z" fill="white"/>
</g>
<defs>
<clipPath id="clip0_445:1243">
<rect width="48" height="48" fill="white" transform="translate(0.849365)"/>
</clipPath>
</defs>
</svg>
