<svg width="24" height="24" viewBox="0 0 24 24" fill="none" xmlns="http://www.w3.org/2000/svg">
<path fill-rule="evenodd" clip-rule="evenodd" d="M13.0638 3.64764V3.2766H10.9362V3.64766C10.9363 3.65607 10.9363 3.66446 10.9362 3.67283V7.22234C11.2787 7.14642 11.6347 7.10638 12 7.10638C12.3653 7.10638 12.7213 7.14642 13.0638 7.22234V3.67284C13.0637 3.66447 13.0637 3.65607 13.0638 3.64764ZM14.3404 7.70128C15.1664 8.15191 15.8481 8.83364 16.2987 9.65957H19.5187C18.7517 7.19426 16.8051 5.24748 14.3404 4.48117V7.70128ZM16.7777 10.9362C16.8536 11.2787 16.8936 11.6347 16.8936 12C16.8936 12.3653 16.8536 12.7213 16.7777 13.0638H20.3272C20.3355 13.0637 20.3439 13.0637 20.3524 13.0638H20.7234V10.9362H20.3524C20.3439 10.9363 20.3355 10.9363 20.3272 10.9362H16.7777ZM16.2987 14.3404C15.8481 15.1664 15.1664 15.8481 14.3404 16.2987V19.5187C16.8057 18.7517 18.7525 16.8051 19.5188 14.3404H16.2987ZM13.0638 16.7777C12.7213 16.8536 12.3653 16.8936 12 16.8936C11.6347 16.8936 11.2787 16.8536 10.9362 16.7777V20.3272C10.9363 20.3355 10.9363 20.3439 10.9362 20.3523V20.7234H13.0638V20.3524C13.0637 20.3439 13.0637 20.3355 13.0638 20.3272V16.7777ZM9.65957 16.2987C8.83364 15.8481 8.15191 15.1664 7.70128 14.3404H4.48134C5.24828 16.8057 7.19489 18.7525 9.65957 19.5188V16.2987ZM7.22234 13.0638C7.14642 12.7213 7.10638 12.3653 7.10638 12C7.10638 11.6347 7.14642 11.2787 7.22234 10.9362H3.67283C3.66446 10.9363 3.65607 10.9363 3.64766 10.9362H3.2766V13.0638H3.64765C3.65607 13.0637 3.66447 13.0637 3.67284 13.0638H7.22234ZM7.70128 9.65957C8.15191 8.83364 8.83364 8.15191 9.65957 7.70128V4.48116C7.19452 5.24754 5.24754 7.19452 4.48116 9.65957H7.70128ZM9.65957 3.15325C6.48735 3.99018 3.99018 6.48735 3.15325 9.65957H2.6383C2.28578 9.65957 2 9.94535 2 10.2979V13.7021C2 14.0547 2.28578 14.3404 2.6383 14.3404H3.15336C3.99098 17.5129 6.48768 20.0099 9.65957 20.8467V21.3617C9.65957 21.7142 9.94535 22 10.2979 22H13.7021C14.0547 22 14.3404 21.7142 14.3404 21.3617V20.8466C17.5129 20.009 20.0099 17.5123 20.8467 14.3404H21.3617C21.7142 14.3404 22 14.0547 22 13.7021V10.2979C22 9.94535 21.7142 9.65957 21.3617 9.65957H20.8466C20.009 6.48708 17.5123 3.99012 14.3404 3.15325V2.6383C14.3404 2.28578 14.0547 2 13.7021 2H10.2979C9.94535 2 9.65957 2.28578 9.65957 2.6383V3.15325ZM12 15.617C10.0024 15.617 8.38298 13.9976 8.38298 12C8.38298 10.0024 10.0024 8.38298 12 8.38298C13.9976 8.38298 15.617 10.0024 15.617 12C15.617 13.9976 13.9976 15.617 12 15.617Z" fill="#A8A8A8"/>
</svg>
