<svg width="24" height="24" viewBox="0 0 24 24" fill="none" xmlns="http://www.w3.org/2000/svg">
<path d="M2.23529 18.1426C2.56529 17.8651 16.4178 6.30009 21.4728 2.10009C21.7653 1.86009 22.4628 1.38759 22.9953 1.92009C23.6778 2.61009 22.6803 3.52509 22.6803 3.52509C22.6803 3.52509 9.87029 17.0326 5.52779 21.3376C4.86029 21.9976 3.25529 23.2651 1.80029 21.7951C0.517787 20.5051 1.09529 19.0876 2.23529 18.1426Z" fill="#EE6B6B"/>
<path d="M5.54252 2.80513C5.82752 3.12763 17.7675 16.5451 22.1025 21.4426C22.35 21.7276 22.8375 22.4026 22.29 22.9201C21.5775 23.5876 20.6325 22.6126 20.6325 22.6126C20.6325 22.6126 6.69002 10.2001 2.24252 5.99263C1.56002 5.34763 0.255021 3.79513 1.77002 2.37763C3.09752 1.14013 4.56752 1.69513 5.54252 2.80513Z" fill="#EE6B6B"/>
</svg>
