<svg width="24" height="24" viewBox="0 0 24 24" fill="none" xmlns="http://www.w3.org/2000/svg">
<path d="M22.6876 2.91734C22.4401 3.90734 21.8026 4.68734 21.2626 5.51984C17.8726 10.8073 14.4751 16.0873 11.0776 21.3673C10.1926 22.7398 8.4376 22.8748 7.3726 21.6373C5.6026 19.5748 3.8401 17.5123 2.0776 15.4498C1.3276 14.5648 1.2601 13.5373 1.8751 12.5998C2.5876 11.5123 4.2826 11.3023 5.2051 12.2173C6.0526 13.0498 6.7651 14.0023 7.5526 14.8948C8.0251 15.4348 8.4901 15.9898 8.9626 16.5373C9.0526 16.5073 9.0901 16.4248 9.1426 16.3648C12.8101 11.9473 16.4701 7.52984 20.1301 3.11234C20.4676 2.70734 20.7826 2.27984 21.2551 2.00984C21.2776 1.99484 21.3001 1.98734 21.3226 1.97234C21.9676 1.61984 22.4026 1.75484 22.6951 2.39984C22.6876 2.57234 22.6876 2.74484 22.6876 2.91734Z" fill="#00A244"/>
</svg>
