<svg width="24" height="24" viewBox="0 0 24 24" fill="none" xmlns="http://www.w3.org/2000/svg">
<rect x="10" y="6" width="4" height="12" fill="white"/>
<path fill-rule="evenodd" clip-rule="evenodd" d="M22 12C22 6.47715 17.5228 2 12 2C6.47715 2 2 6.47715 2 12C2 17.5228 6.47715 22 12 22C17.5228 22 22 17.5228 22 12ZM12.8162 16.2553C12.8162 15.7853 12.4351 15.4043 11.9651 15.4043C11.4951 15.4043 11.114 15.7853 11.114 16.2553C11.114 16.7253 11.4951 17.1064 11.9651 17.1064C12.4351 17.1064 12.8162 16.7253 12.8162 16.2553ZM11.3268 12.8511V7.74468C11.3268 7.39216 11.6126 7.10638 11.9651 7.10638C12.3176 7.10638 12.6034 7.39216 12.6034 7.74468V12.8511C12.6034 13.2036 12.3176 13.4894 11.9651 13.4894C11.6126 13.4894 11.3268 13.2036 11.3268 12.8511Z" fill="#ECCB47"/>
</svg>
