<svg width="24" height="24" viewBox="0 0 24 24" fill="none" xmlns="http://www.w3.org/2000/svg">
<path d="M11.3169 3.97366C11.2943 2.81091 10.7186 1.97554 9.68 1.4619C9.42036 1.33208 9.13814 1.29821 8.86721 1.21355C7.08922 1.21355 5.31123 1.21355 3.53325 1.21355C2.77125 1.3095 2.1673 1.68203 1.69317 2.28034C1.39402 2.66416 1.2134 3.09878 1.1626 3.5842C1.1626 5.3904 1.1626 7.19661 1.1626 9.00282C1.23597 9.03669 1.20775 9.11571 1.22469 9.17215C1.55206 10.5042 2.64143 11.3735 4.00738 11.3735C5.52572 11.3735 7.03842 11.3791 8.55676 11.3735C10.0751 11.3678 11.3112 10.1261 11.3225 8.61336C11.3282 7.06115 11.3451 5.52023 11.3169 3.97366ZM8.46645 10.0188C6.98762 10.0188 5.50314 10.0188 4.02431 10.0188C3.13814 10.0188 2.5229 9.40357 2.5229 8.5174C2.5229 7.77234 2.5229 7.02164 2.5229 6.27658C2.5229 5.5428 2.5229 4.80903 2.5229 4.07526C2.5229 3.18909 3.13814 2.57385 4.02431 2.57385C5.50314 2.57385 6.98762 2.57385 8.46645 2.57385C9.35262 2.57385 9.96786 3.18909 9.96786 4.07526C9.96786 5.55409 9.96786 7.03857 9.96786 8.5174C9.96786 9.39793 9.35262 10.0188 8.46645 10.0188Z" fill="#A8A8A8"/>
<path d="M11.3225 15.5108C11.3169 13.9699 10.0751 12.7337 8.53419 12.7281C7.00455 12.7224 5.47492 12.7224 3.94529 12.7281C2.69223 12.7337 1.58593 13.5804 1.25855 14.7883C1.23033 14.8955 1.23033 15.0084 1.1626 15.0987C1.1626 16.9049 1.1626 18.7112 1.1626 20.5174C1.23597 20.5512 1.20775 20.6303 1.22469 20.6867C1.55206 22.0188 2.64143 22.888 4.00738 22.888C5.51443 22.888 7.02713 22.8937 8.53419 22.888C10.0751 22.8824 11.3169 21.6406 11.3225 20.1053C11.3282 18.57 11.3282 17.0404 11.3225 15.5108ZM8.46645 21.5334C6.98762 21.5334 5.50314 21.5334 4.02431 21.5334C3.13814 21.5334 2.5229 20.9181 2.5229 20.0319C2.5229 19.2869 2.5229 18.5362 2.5229 17.7911C2.5229 17.0573 2.5229 16.3236 2.5229 15.5898C2.5229 14.7036 3.13814 14.0884 4.02431 14.0884C5.50314 14.0884 6.98762 14.0884 8.46645 14.0884C9.35263 14.0884 9.96787 14.7036 9.96787 15.5898C9.96787 17.0686 9.96787 18.5531 9.96787 20.0319C9.96787 20.9125 9.35263 21.5334 8.46645 21.5334Z" fill="#A8A8A8"/>
<path d="M22.8318 3.97364C22.8149 2.82218 22.2448 1.98681 21.2175 1.46752C20.9522 1.33205 20.6644 1.29254 20.3878 1.20788C18.6098 1.20788 16.8318 1.20788 15.0538 1.20788C15.02 1.28126 14.9409 1.25303 14.8845 1.26997C13.5468 1.5917 12.6832 2.68671 12.6832 4.05266C12.6832 5.55971 12.6775 7.07241 12.6832 8.57947C12.6888 10.1091 13.9193 11.3565 15.4433 11.3678C16.9899 11.3734 18.5308 11.3734 20.0773 11.3678C21.5957 11.3622 22.8318 10.1204 22.8375 8.60205C22.8431 7.06112 22.86 5.51456 22.8318 3.97364ZM21.4828 8.51173C21.4828 9.39791 20.8676 10.0131 19.9814 10.0131C18.5026 10.0131 17.0181 10.0131 15.5392 10.0131C14.6531 10.0131 14.0378 9.39226 14.0378 8.51173C14.0378 7.77232 14.0378 7.0329 14.0378 6.28784C14.0378 5.54842 14.0378 4.80901 14.0378 4.06395C14.0378 3.17777 14.6531 2.56253 15.5392 2.56253C17.0181 2.56253 18.5026 2.56253 19.9814 2.56253C20.8676 2.56253 21.4828 3.17777 21.4828 4.06395C21.4884 5.55407 21.4884 7.0329 21.4828 8.51173Z" fill="#A8A8A8"/>
<path d="M17.7687 12.7282C14.9691 12.7226 12.6831 15.0029 12.6831 17.8025C12.6831 20.5965 14.9521 22.8768 17.7461 22.8881C20.5457 22.8994 22.8374 20.6191 22.843 17.8194C22.843 15.0198 20.5683 12.7338 17.7687 12.7282ZM17.7574 21.5335C15.7085 21.5335 14.0321 19.8571 14.0321 17.8082C14.0321 15.7536 15.7085 14.0829 17.7574 14.0829C19.812 14.0829 21.4827 15.7536 21.4827 17.8082C21.4827 19.8627 19.812 21.5335 17.7574 21.5335Z" fill="#A8A8A8"/>
</svg>
