<svg width="24" height="24" viewBox="0 0 24 24" fill="none" xmlns="http://www.w3.org/2000/svg">
<path d="M8.65082 10.1373C6.84187 10.1373 5.03291 10.1373 3.21798 10.1373C3.1344 10.1373 3.05082 10.1433 2.96724 10.1612C2.57321 10.2448 2.36425 10.5194 2.23291 10.8717C2.23291 14.0836 2.23291 17.2956 2.23291 20.5075C2.42993 21.0627 2.82992 21.2538 3.40306 21.2478C5.14634 21.2299 6.8956 21.2418 8.63888 21.2418C9.23589 21.2418 9.62992 20.8538 9.62992 20.2568C9.62992 17.212 9.62992 14.1732 9.62992 11.1284C9.6359 10.5194 9.24783 10.1373 8.65082 10.1373ZM9.02097 20.203C9.02097 20.5194 8.91948 20.6209 8.60903 20.6209C6.82395 20.6209 5.03888 20.6209 3.25381 20.6209C2.9553 20.6209 2.85381 20.5194 2.85381 20.215C2.85381 18.6985 2.85381 17.1821 2.85381 15.6717C2.85381 14.1732 2.85381 12.6806 2.85381 11.1821C2.85381 10.8538 2.94933 10.7582 3.27769 10.7582C5.05679 10.7582 6.8359 10.7582 8.615 10.7582C8.92545 10.7582 9.02694 10.8597 9.02694 11.1762C9.02097 14.1791 9.02097 17.1941 9.02097 20.203ZM20.8001 10.1314C19.0568 10.1493 17.3075 10.1373 15.5643 10.1373C14.9613 10.1373 14.5732 10.5254 14.5732 11.1224C14.5732 14.1672 14.5732 17.206 14.5732 20.2508C14.5732 20.8478 14.9613 21.2359 15.5643 21.2359C17.3732 21.2359 19.1822 21.2359 20.9971 21.2359C21.0807 21.2359 21.1643 21.2299 21.2478 21.212C21.6419 21.1344 21.8449 20.8538 21.9822 20.5015C21.9822 17.2896 21.9822 14.0776 21.9822 10.8657C21.7732 10.3105 21.3732 10.1194 20.8001 10.1314ZM20.9195 20.6209C19.1523 20.6209 17.3911 20.6209 15.624 20.6209C15.2837 20.6209 15.1881 20.5314 15.1881 20.1911C15.1881 18.6866 15.1881 17.1881 15.1881 15.6836C15.1881 14.1791 15.1881 12.6806 15.1881 11.1762C15.1881 10.8538 15.2837 10.7582 15.612 10.7582C17.3851 10.7582 19.1583 10.7582 20.9254 10.7582C21.2538 10.7582 21.3493 10.8538 21.3493 11.1821C21.3493 14.1851 21.3493 17.1941 21.3493 20.1971C21.3553 20.5254 21.2598 20.6209 20.9195 20.6209ZM16.1135 7.90451C16.1135 7.46272 16.1195 7.02093 16.1135 6.57317C16.1135 6.46571 16.1374 6.42989 16.2508 6.43586C16.5732 6.44183 16.8956 6.44183 17.212 6.43586C17.3195 6.43586 17.3553 6.45974 17.3493 6.57317C17.3434 6.83586 17.3493 7.09854 17.3493 7.36123C17.3493 7.65974 17.3493 7.65974 17.0628 7.67168C16.9195 7.67765 16.818 7.73735 16.7583 7.86869C16.7046 7.99407 16.7344 8.11347 16.8299 8.20302C17.2359 8.61496 17.6419 9.02093 18.0538 9.4269C18.1792 9.55227 18.3404 9.57018 18.4717 9.44481C18.9016 9.0269 19.3195 8.60302 19.7374 8.17914C19.8269 8.08959 19.8449 7.97616 19.7851 7.85675C19.7314 7.74332 19.6419 7.67765 19.5165 7.67168C19.4628 7.66571 19.415 7.66571 19.3613 7.67168C19.224 7.69556 19.1941 7.64183 19.1941 7.50451C19.2001 6.91944 19.1702 6.33436 19.206 5.74929C19.2538 4.97914 18.7822 4.53138 18.0419 4.57317C17.4449 4.60899 16.8478 4.57914 16.2508 4.58511C16.1434 4.58511 16.1135 4.55526 16.1135 4.4478C16.1195 4.00601 16.1195 3.56421 16.1135 3.11645C16.1135 2.84183 16.006 2.72839 15.7314 2.72839C13.3195 2.72839 10.9016 2.72839 8.48963 2.72839C8.20903 2.72839 8.10157 2.83586 8.10157 3.11048C8.10157 3.53436 8.0956 3.95824 8.10754 4.38213C8.11351 4.53735 8.08366 4.58511 7.91649 4.58511C7.25978 4.57317 6.60903 4.57914 5.95231 4.57914C5.415 4.59108 5.015 4.99108 5.015 5.51645C5.00903 6.72839 5.015 7.9463 5.015 9.15824C5.015 9.40899 5.12843 9.51645 5.38515 9.51645C5.73739 9.51645 6.08963 9.51645 6.44187 9.51645C6.76425 9.51645 6.85978 9.42093 6.85978 9.09257C6.85978 8.26272 6.86575 7.43287 6.85381 6.60899C6.85381 6.45974 6.8956 6.42989 7.03291 6.43586C7.34336 6.4478 7.64784 6.44183 7.95828 6.43586C8.07172 6.43586 8.0956 6.47168 8.0956 6.57317C8.08963 7.00899 8.0956 7.44481 8.0956 7.88063C8.0956 8.17914 8.19709 8.28063 8.50157 8.28063C9.70157 8.28063 10.9016 8.28063 12.1016 8.28063C13.3075 8.28063 14.5135 8.28063 15.7254 8.28063C16.0001 8.2866 16.1135 8.17914 16.1135 7.90451ZM16.5613 5.20601C17.1046 5.20601 17.6538 5.20601 18.1971 5.20601C18.4717 5.20601 18.5792 5.31347 18.5792 5.59407C18.5792 6.35824 18.5851 7.12242 18.5792 7.8866C18.5792 8.05377 18.615 8.18511 18.7941 8.2866C18.6389 8.43586 18.4896 8.5672 18.3463 8.71048C18.2866 8.77615 18.2449 8.76421 18.1911 8.70451C18.1254 8.63287 18.0538 8.5672 17.9881 8.50153C17.8807 8.39407 17.6956 8.29854 17.9225 8.12541C17.9762 8.08362 17.9643 7.99407 17.9643 7.92242C17.9643 7.34929 17.9643 6.78212 17.9643 6.20899C17.9643 5.93436 17.8568 5.83287 17.5762 5.83287C17.1463 5.83287 16.7165 5.8269 16.2866 5.83287C16.1613 5.83287 16.1135 5.81496 16.1135 5.67168C16.1135 5.20601 16.1075 5.20601 16.5613 5.20601ZM7.62993 5.82093C7.28963 5.82093 6.94933 5.82093 6.60903 5.82093C6.35828 5.82093 6.25082 5.93436 6.24485 6.19108C6.24485 7.03884 6.23888 7.8866 6.24485 8.72839C6.24485 8.86571 6.22097 8.91347 6.07172 8.9075C5.62395 8.89556 5.62395 8.9075 5.62395 8.46571C5.62395 8.02989 5.62395 7.59407 5.62395 7.15824C5.62395 6.63287 5.62395 6.1075 5.62395 5.58212C5.62395 5.31944 5.73739 5.21198 6.00007 5.20601C6.64485 5.20601 7.2956 5.20601 7.94037 5.20004C8.05381 5.20004 8.08963 5.21795 8.08963 5.34332C8.10157 5.82093 8.10754 5.82093 7.62993 5.82093ZM15.4986 7.49257C15.4986 7.62989 15.4747 7.67168 15.3254 7.67168C14.2449 7.66571 13.1702 7.66571 12.0896 7.66571C11.021 7.66571 9.95828 7.66571 8.88963 7.67168C8.75231 7.67168 8.71052 7.6478 8.71052 7.49854C8.71649 6.17317 8.71649 4.85377 8.71052 3.52839C8.71052 3.39108 8.7344 3.34929 8.88366 3.34929C11.0269 3.35526 13.1762 3.35526 15.3195 3.34929C15.4568 3.34929 15.4986 3.37317 15.4986 3.52242C15.4926 4.8478 15.4926 6.17317 15.4986 7.49257ZM13.0269 6.01795C13.0747 6.37018 12.8837 6.7463 12.5672 6.92541C12.4837 6.97317 12.418 7.00899 12.4001 7.12839C12.3822 7.27168 12.2628 7.36123 12.1135 7.36123C11.9523 7.36123 11.8389 7.27168 11.809 7.11645C11.7911 7.02093 11.7553 6.97914 11.6777 6.93735C11.4031 6.79407 11.2478 6.56123 11.1941 6.26272C11.1523 6.03586 11.2538 5.86272 11.4389 5.8269C11.624 5.79108 11.7613 5.91048 11.8031 6.14929C11.8329 6.33436 11.9643 6.4478 12.1314 6.43586C12.2926 6.42392 12.418 6.2866 12.418 6.13138C12.418 5.95824 12.2926 5.83884 12.0956 5.82093C11.6657 5.78511 11.3434 5.5463 11.2299 5.17615C11.1165 4.81198 11.2299 4.42989 11.5284 4.19108C11.6598 4.08362 11.8269 4.02989 11.8568 3.81496C11.8747 3.70153 12.018 3.65377 12.1434 3.67168C12.2747 3.68959 12.3822 3.7672 12.4001 3.89257C12.418 4.01795 12.4837 4.05974 12.5732 4.1075C12.8478 4.25675 13.0269 4.57317 13.0329 4.86571C13.0329 5.05675 12.9135 5.20004 12.7404 5.20601C12.5732 5.21795 12.4478 5.09854 12.418 4.91944C12.412 4.89556 12.418 4.86571 12.412 4.84183C12.3762 4.68063 12.2269 4.57317 12.0717 4.59108C11.9225 4.60899 11.7971 4.7463 11.8031 4.89556C11.809 5.06869 11.9046 5.17018 12.0657 5.20004C12.1553 5.21795 12.2449 5.21795 12.3284 5.23586C12.7046 5.33138 12.9732 5.63586 13.0269 6.01795ZM10.2508 3.95824C10.2568 4.12541 10.1314 4.25675 9.95231 4.27466C9.85082 4.28063 9.71948 4.25078 9.65978 4.29854C9.58813 4.35227 9.64186 4.48959 9.63589 4.59108C9.61798 4.77018 9.49261 4.89556 9.32545 4.89556C9.15828 4.89556 9.03291 4.77018 9.02097 4.58511C9.015 4.47765 9.02097 4.37018 9.02097 4.25675C9.02097 3.68959 9.05082 3.65974 9.61201 3.65974C9.72545 3.65974 9.84485 3.65377 9.95828 3.65974C10.1254 3.67765 10.2508 3.80302 10.2508 3.95824ZM15.1881 3.96421C15.1941 4.07168 15.1881 4.17914 15.1881 4.29257C15.1881 4.39407 15.1941 4.49556 15.1881 4.59705C15.1762 4.77615 15.0389 4.90153 14.8717 4.89556C14.7165 4.88959 14.5911 4.77018 14.5732 4.60302C14.5613 4.49556 14.621 4.35824 14.5434 4.29257C14.4777 4.24481 14.3463 4.2866 14.2449 4.27466C14.0777 4.25675 13.9583 4.12541 13.9583 3.97018C13.9583 3.80899 14.0777 3.67168 14.2449 3.66571C14.4598 3.65377 14.6807 3.65377 14.8956 3.66571C15.0687 3.67765 15.1702 3.78511 15.1881 3.96421ZM10.2508 7.05675C10.2448 7.22392 10.1195 7.34929 9.94037 7.36123C9.83888 7.3672 9.73739 7.36123 9.63589 7.36123C9.04485 7.36123 9.02097 7.33735 9.02097 6.7463C9.02097 6.64481 9.015 6.54332 9.02097 6.44183C9.03291 6.26272 9.15231 6.13138 9.31948 6.13138C9.48664 6.12541 9.61798 6.25078 9.63589 6.42989C9.64186 6.53138 9.61201 6.66272 9.65978 6.72242C9.71351 6.79406 9.85082 6.73436 9.95231 6.7463C10.1314 6.76421 10.2568 6.88959 10.2508 7.05675ZM15.1881 6.43586C15.1941 6.53735 15.1881 6.63884 15.1881 6.74033C15.1881 7.33138 15.1643 7.36123 14.5792 7.36123C14.4717 7.36123 14.3583 7.3672 14.2508 7.36123C14.0717 7.34929 13.9523 7.21198 13.9583 7.04481C13.9643 6.88362 14.0837 6.76421 14.2508 6.7463C14.3523 6.74033 14.4837 6.77615 14.5493 6.72242C14.621 6.66869 14.5672 6.53138 14.5732 6.42989C14.5911 6.25078 14.7165 6.12541 14.8837 6.12541C15.0448 6.13138 15.1762 6.25675 15.1881 6.43586ZM8.32246 11.6776C6.7344 11.6776 5.15231 11.6776 3.56425 11.6776C3.26575 11.6776 3.16425 11.7791 3.16425 12.0836C3.16425 13.2836 3.16425 14.4836 3.16425 15.6836C3.16425 16.8896 3.16425 18.0956 3.16425 19.3015C3.16425 19.5762 3.27172 19.6896 3.54634 19.6896C5.14037 19.6896 6.72843 19.6896 8.32246 19.6896C8.60903 19.6896 8.71649 19.5821 8.71649 19.2896C8.71649 16.8836 8.71649 14.4776 8.71649 12.0657C8.71052 11.7851 8.60903 11.6776 8.32246 11.6776ZM7.92843 19.0806C6.59709 19.0747 5.27172 19.0747 3.94037 19.0806C3.82097 19.0806 3.77918 19.0568 3.77918 18.9254C3.78515 16.7702 3.78515 14.609 3.77918 12.4538C3.77918 12.3344 3.80306 12.2926 3.9344 12.2926C5.27172 12.2985 6.60903 12.2985 7.94037 12.2926C8.08366 12.2926 8.10157 12.3463 8.10157 12.4657C8.0956 13.5463 8.10157 14.6209 8.10157 15.7015C8.10157 16.7702 8.10157 17.8329 8.10754 18.9015C8.10157 19.0388 8.07769 19.0806 7.92843 19.0806ZM20.6329 11.6776C19.0628 11.6776 17.4866 11.6776 15.9165 11.6776C15.6001 11.6776 15.4986 11.7732 15.4986 12.0896C15.4986 13.2896 15.4986 14.4896 15.4986 15.6896C15.4986 16.8836 15.4986 18.0776 15.4986 19.2717C15.4986 19.6 15.5941 19.6956 15.9225 19.6956C17.4866 19.6956 19.0568 19.6956 20.621 19.6956C20.9493 19.6956 21.0449 19.6 21.0449 19.2776C21.0449 16.8836 21.0449 14.4896 21.0449 12.0956C21.0449 11.7732 20.9434 11.6776 20.6329 11.6776ZM20.2568 19.0806C18.9314 19.0747 17.612 19.0747 16.2866 19.0806C16.1434 19.0806 16.1075 19.0448 16.1075 18.9015C16.1135 17.8209 16.1135 16.7463 16.1135 15.6657C16.1135 14.5971 16.1195 13.5344 16.1075 12.4657C16.1075 12.3224 16.1434 12.2866 16.2866 12.2866C17.612 12.2926 18.9314 12.2926 20.2568 12.2866C20.4001 12.2866 20.4359 12.3224 20.4359 12.4657C20.4299 14.609 20.4299 16.7582 20.4359 18.9015C20.4299 19.0448 20.4001 19.0806 20.2568 19.0806ZM6.92545 15.7433C6.81798 15.6538 6.82395 15.612 6.90157 15.5105C7.33142 14.9612 7.22395 14.1911 6.66873 13.7672C6.11948 13.3553 5.33739 13.4747 4.93142 14.0418C4.60903 14.4896 4.62694 15.0747 4.97321 15.5284C5.00306 15.5702 5.11649 15.612 5.00903 15.6896C4.51948 16.0657 4.35828 16.5732 4.3941 17.1642C4.40604 17.415 4.51351 17.5284 4.75828 17.5284C5.15231 17.5284 5.54037 17.5284 5.9344 17.5284C6.3344 17.5284 6.72843 17.5284 7.12843 17.5284C7.32545 17.5284 7.45679 17.4329 7.4747 17.2657C7.52843 16.6806 7.40903 16.1433 6.92545 15.7433ZM5.94037 14.1433C6.28067 14.1433 6.56127 14.4299 6.5553 14.7702C6.54933 15.1045 6.26873 15.3791 5.94037 15.3791C5.60007 15.3791 5.31948 15.0926 5.32545 14.7523C5.32545 14.4179 5.60604 14.1433 5.94037 14.1433ZM6.74634 16.9194C6.47769 16.9135 6.20903 16.9194 5.94037 16.9194C5.67172 16.9194 5.40306 16.9135 5.1344 16.9194C5.02694 16.9254 5.00903 16.8836 5.02097 16.7881C5.08067 16.3403 5.48664 15.9941 5.94037 15.9941C6.3941 15.9941 6.7941 16.3403 6.85978 16.7881C6.87172 16.8836 6.85978 16.9254 6.74634 16.9194ZM19.2657 15.7493C19.1463 15.6478 19.1643 15.606 19.2478 15.5045C19.5881 15.0747 19.5881 14.4776 19.2657 14.0359C18.9374 13.5881 18.3643 13.415 17.8449 13.606C17.0568 13.8985 16.7881 14.8538 17.3016 15.5224C17.3374 15.5702 17.4508 15.612 17.3314 15.7015C16.8478 16.0717 16.6926 16.5791 16.7225 17.1642C16.7344 17.4269 16.8359 17.5344 17.0986 17.5344C17.4807 17.5344 17.8687 17.5344 18.2508 17.5344C18.6508 17.5344 19.0449 17.5344 19.4449 17.5344C19.6419 17.5344 19.7792 17.4448 19.7971 17.2776C19.8628 16.6866 19.7434 16.1433 19.2657 15.7493ZM18.2747 14.1433C18.615 14.1433 18.8956 14.4299 18.8896 14.7702C18.8837 15.0985 18.6031 15.3732 18.2687 15.3732C17.9284 15.3732 17.6478 15.0866 17.6538 14.7463C17.6598 14.412 17.9404 14.1433 18.2747 14.1433ZM19.0687 16.9194C18.8001 16.9075 18.5314 16.9194 18.2628 16.9194C18.0001 16.9194 17.7374 16.9135 17.4747 16.9194C17.3672 16.9254 17.3314 16.8956 17.3493 16.7821C17.421 16.3403 17.809 16 18.2568 15.9941C18.7165 15.9881 19.1105 16.3224 19.1881 16.7762C19.206 16.8776 19.1941 16.9254 19.0687 16.9194Z" fill="#979797"/>
</svg>
