<svg width="24" height="24" viewBox="0 0 24 24" fill="none" xmlns="http://www.w3.org/2000/svg">
<path d="M14.9199 10.2606C14.9199 11.6467 14.9199 13.0328 14.9199 14.4189V16.3683C14.9199 17.5225 14.9199 18.6766 14.9199 19.8308C14.9199 20.3664 15.2457 20.5653 15.5494 20.5763C15.555 20.5763 15.566 20.5763 15.5715 20.5763C15.7869 20.5763 15.925 20.4879 16.0078 20.4106C16.1458 20.2781 16.2232 20.0848 16.2287 19.8363C16.2287 19.7866 16.2287 19.7369 16.2287 19.6927V14.198C16.2287 12.8837 16.2287 11.5749 16.2287 10.2606V10.233C16.2287 10.1446 16.2287 10.0397 16.2066 9.93479C16.1348 9.59793 15.8697 9.3936 15.5218 9.41569C15.1905 9.43778 14.9641 9.65867 14.9254 9.99001C14.9144 10.0728 14.9144 10.1502 14.9199 10.2164V10.2606Z" fill="#EB1F3A"/>
<path d="M21.3699 4.47308C21.1822 3.13668 20.0943 2.23102 18.664 2.21445C18.0289 2.20893 17.3828 2.20893 16.7533 2.20893C16.4827 2.20893 16.2121 2.20893 15.947 2.20893C15.947 2.04878 15.947 1.89416 15.947 1.73401C15.936 0.712379 15.2125 0 14.1909 0C12.8821 0 11.5733 0 10.259 0C9.17111 0 8.46978 0.706857 8.46425 1.79475C8.46425 1.93281 8.46425 2.06535 8.46425 2.20893C8.19366 2.20893 7.91755 2.20893 7.64695 2.20893C6.96218 2.20893 6.26085 2.20341 5.56504 2.22549C4.3446 2.25863 3.27327 3.15324 3.07999 4.31293C2.99163 4.83755 2.99716 5.36769 3.00268 5.88679C3.00268 6.05246 3.0082 6.21813 3.00268 6.3838C3.00268 6.73171 3.26775 6.98021 3.65431 6.98573C3.76476 6.98573 3.88073 6.98573 3.9967 6.98573C3.9967 6.99678 3.9967 7.00782 3.9967 7.01887C4.16237 9.78555 4.32804 12.5522 4.49371 15.3189C4.53788 16.0313 4.57654 16.7437 4.62072 17.4561C4.70908 18.9471 4.79743 20.4878 4.89684 22.0064C4.97415 23.2379 5.8025 24 7.05606 24C8.69619 24 10.3308 24 11.9709 24C13.7546 24 15.5439 24 17.3276 24C18.5922 24 19.4261 23.2214 19.5034 21.9733C19.6249 19.9963 19.7464 17.9862 19.8623 16.0479L19.9452 14.6838C20.017 13.5076 20.0832 12.3369 20.155 11.1606C20.2213 10.0727 20.282 8.98481 20.3483 7.89692C20.3649 7.62632 20.3814 7.36125 20.4035 7.07961C20.4035 7.04648 20.409 7.01335 20.409 6.98021C20.5305 6.98021 20.6465 6.98021 20.7625 6.98021C21.138 6.97469 21.3975 6.72066 21.4031 6.37276C21.4031 6.21813 21.4086 6.06903 21.4086 5.9144C21.4307 5.44501 21.4417 4.95904 21.3699 4.47308ZM19.1002 7.01335C19.0892 7.24528 19.0782 7.47722 19.0616 7.70364C18.9401 9.6751 18.8241 11.6521 18.7026 13.6236L18.4762 17.4008C18.3823 18.925 18.294 20.4436 18.2001 21.9678C18.1725 22.4096 17.8909 22.6857 17.4546 22.6857C14.0749 22.6912 10.5462 22.6912 6.96771 22.6857C6.52592 22.6857 6.24428 22.4206 6.21667 21.9788C6.14488 20.8081 6.07309 19.6208 6.00682 18.4722C5.96264 17.699 5.91294 16.9314 5.86876 16.1583C5.79145 14.8771 5.71414 13.5904 5.63683 12.3092C5.57608 11.3208 5.51533 10.3378 5.45459 9.34929C5.41593 8.74735 5.3828 8.15094 5.34967 7.53797L5.31653 7.01335H19.1002ZM20.0887 5.5168C20.0887 5.5665 20.0832 5.6162 20.0832 5.6659H4.33356C4.33356 5.62172 4.32804 5.57202 4.32804 5.52784C4.31699 5.20755 4.30595 4.90934 4.3446 4.62218C4.42192 4.06443 4.94101 3.59503 5.54847 3.53428C5.65339 3.52324 5.76936 3.51772 5.92399 3.51772C6.66398 3.51772 7.40949 3.52324 8.14948 3.52324C9.46932 3.52876 10.8389 3.53428 12.1808 3.53428C13.3129 3.53428 14.467 3.52876 15.5825 3.52876C16.5931 3.52324 17.5982 3.52324 18.6088 3.52324C19.3819 3.52324 19.9507 3.94846 20.0611 4.61114C20.1108 4.89277 20.0998 5.1965 20.0887 5.5168ZM9.79513 1.60699C9.8117 1.44133 9.94424 1.31983 10.1154 1.31983C11.5236 1.31431 12.9318 1.30879 14.3013 1.31983C14.4725 1.31983 14.6106 1.44685 14.6272 1.62908C14.6382 1.76162 14.6382 1.89968 14.6382 2.04326C14.6382 2.08744 14.6382 2.13161 14.6382 2.17027H9.78961C9.78409 1.98251 9.77857 1.78923 9.79513 1.60699Z" fill="#EB1F3A"/>
<path d="M11.5512 10.2223C11.5512 13.3977 11.5512 16.573 11.5512 19.7428C11.5512 19.7594 11.5512 19.776 11.5512 19.7925C11.5512 19.8698 11.5457 19.9637 11.5733 20.0631C11.6561 20.3834 11.8936 20.5712 12.2083 20.5712C12.2083 20.5712 12.2083 20.5712 12.2139 20.5712C12.5342 20.5712 12.7716 20.3779 12.8489 20.0576C12.871 19.9582 12.871 19.8643 12.871 19.7925C12.871 19.776 12.871 19.7594 12.871 19.7428C12.871 18.1579 12.871 16.5785 12.871 14.9936V14.099C12.871 12.8068 12.871 11.5146 12.871 10.2223C12.871 10.2058 12.871 10.1947 12.871 10.1782C12.871 10.1009 12.8765 10.0014 12.8434 9.89653C12.744 9.53757 12.4403 9.33877 12.12 9.42713C11.9101 9.48235 11.7555 9.64802 11.6451 9.78608C11.5346 9.92414 11.5457 10.0843 11.5567 10.1782C11.5512 10.1947 11.5512 10.2113 11.5512 10.2223Z" fill="#EB1F3A"/>
<path d="M8.19357 10.2273C8.19357 13.4026 8.19357 16.5724 8.19357 19.7478C8.19357 19.8472 8.19357 19.9632 8.2267 20.0902C8.27088 20.2724 8.38133 20.4215 8.52491 20.5043C8.60774 20.554 8.70162 20.5761 8.7955 20.5761C8.85072 20.5761 8.90595 20.5706 8.96117 20.554C9.13236 20.5043 9.28147 20.3773 9.42505 20.162C9.51893 20.0239 9.50788 19.8748 9.49684 19.7754C9.49684 19.7588 9.49132 19.7423 9.49132 19.7257C9.49132 18.4445 9.49132 17.1633 9.49132 15.8822V14.1758C9.49132 12.867 9.49132 11.5637 9.49132 10.2549C9.49132 10.2383 9.49132 10.2218 9.49684 10.2052C9.50236 10.1058 9.5134 9.9567 9.41952 9.81865C9.25385 9.57014 9.07162 9.44313 8.88386 9.4376C8.61326 9.43208 8.38685 9.64745 8.30401 9.74685C8.177 9.89043 8.18252 10.0727 8.18805 10.1942C8.19357 10.1942 8.19357 10.2107 8.19357 10.2273Z" fill="#EB1F3A"/>
</svg>
