<svg width="59" height="64" viewBox="0 0 59 64" fill="none" xmlns="http://www.w3.org/2000/svg">
<path d="M57.496 40.7465C55.5147 34.0682 51.0597 29.8387 44.3526 28.0331C43.9465 27.9218 43.8235 27.7734 43.8235 27.3405C43.8481 23.6675 43.8235 20.0068 43.8358 16.3338C43.8358 15.6907 43.6389 15.1837 43.2081 14.7261C38.9624 10.2615 34.7166 5.77229 30.4832 1.29539C30.1755 0.961481 29.8432 0.677038 29.4371 0.466797C21.8932 0.466797 14.337 0.466797 6.79306 0.466797C6.3008 0.615202 5.78392 0.590468 5.30397 0.788342C2.49807 1.93848 0.701319 4.58505 0.701319 7.63972C0.701319 14.0459 0.701319 20.4644 0.701319 26.8706C0.701319 33.8827 0.689012 40.8825 0.713625 47.8947C0.725932 50.2568 1.68584 52.2108 3.54413 53.6701C4.94708 54.7708 6.57154 55.1913 8.31907 55.1913C13.4017 55.2036 18.4966 55.2036 23.5792 55.1789C24.293 55.1789 24.736 55.4139 25.1421 56.0075C27.0496 58.8396 29.5725 60.942 32.686 62.3518C34.4705 63.1681 36.3411 63.6875 38.2978 63.7864C39.4423 63.7864 40.5991 63.7864 41.7436 63.7864C41.8052 63.6256 41.9406 63.6875 42.0513 63.6751C43.2943 63.5391 44.5249 63.3041 45.7064 62.896C50.0629 61.4119 53.4718 58.7035 55.7731 54.6718C58.2836 50.2939 58.9359 45.5944 57.496 40.7465ZM30.4462 5.11683C33.449 8.29518 36.3657 11.3746 39.3685 14.5529C37.2271 14.5529 35.1966 14.6148 33.1783 14.5282C31.7261 14.4664 30.5078 13.1431 30.4585 11.5848C30.397 9.48242 30.4462 7.36765 30.4462 5.11683ZM23.5053 38.5699C23.3946 38.8543 23.1238 38.7554 22.9146 38.7554C19.3088 38.7554 15.6907 38.7554 12.0849 38.7554C11.8141 38.7554 11.5557 38.7554 11.2849 38.8048C10.6819 38.9038 10.2635 39.3737 10.2143 39.9797C10.1774 40.5981 10.5096 41.1051 11.088 41.303C11.3711 41.4019 11.6541 41.4019 11.9372 41.4019C15.2353 41.4019 18.5458 41.4019 21.844 41.4019C22.0655 41.4019 22.287 41.4019 22.5454 41.4019C22.1762 43.1704 21.9793 44.8895 22.1024 46.658C22.2255 48.4388 22.5331 50.1702 23.1731 51.8274C23.3331 52.2355 23.2961 52.3468 22.8285 52.3468C17.9428 52.3345 13.0694 52.3592 8.1837 52.3345C5.84545 52.3221 4.25791 51.1101 3.6672 48.9953C3.53182 48.513 3.50721 48.0183 3.50721 47.5237C3.50721 34.328 3.50721 21.1446 3.50721 7.9489C3.50721 5.54968 4.70095 3.89249 6.82998 3.27413C7.32224 3.12573 7.83912 3.10099 8.34368 3.10099C14.62 3.10099 20.8964 3.10099 27.1727 3.08862C27.665 3.08862 27.8249 3.18756 27.8249 3.71935C27.8003 6.2175 27.8003 8.70329 27.8126 11.2014C27.8373 14.1448 29.474 16.2967 32.243 17.0511C32.8214 17.2119 33.4121 17.2242 34.0151 17.2242C36.2303 17.2366 38.4455 17.2366 40.6607 17.2242C41.0914 17.2242 41.2145 17.3355 41.2145 17.7684C41.2022 20.8602 41.2022 23.9519 41.2145 27.0437C41.2145 27.39 41.1652 27.5508 40.7468 27.526C36.218 27.3653 32.2184 28.7875 28.6864 31.6072C28.3295 31.8916 27.9726 32.0153 27.5173 32.0153C22.3239 32.0029 17.1429 32.0029 11.9495 32.0029C11.6418 32.0029 11.3342 32.0153 11.0388 32.1142C10.4973 32.2997 10.1651 32.8192 10.202 33.4128C10.2389 33.994 10.6327 34.4764 11.1988 34.5877C11.4819 34.6371 11.7649 34.6495 12.0603 34.6495C16.3429 34.6495 20.6379 34.6495 24.9206 34.6495C25.1421 34.6495 25.3636 34.6495 25.7328 34.6495C24.8714 36.0099 24.0591 37.2219 23.5053 38.5699ZM40.07 61.1646C31.2339 61.0285 24.6499 53.8433 24.7237 45.5449C24.7975 36.8508 31.8492 30.0613 40.2792 30.1602C48.8445 30.2592 55.6623 37.2961 55.5639 45.7552C55.4654 54.2885 48.623 61.1522 40.07 61.1646Z" fill="#0465B0"/>
<path d="M11.7405 28.0457C13.8695 28.0457 16.0109 28.0457 18.1399 28.0457C20.2689 28.0457 22.4103 28.0457 24.5393 28.0457C25.4869 28.0457 26.0899 27.551 26.1145 26.7595C26.1392 25.968 25.5115 25.4362 24.5393 25.4238C24.4778 25.4238 24.4162 25.4238 24.3547 25.4238C20.2074 25.4238 16.0724 25.4238 11.9251 25.4238C11.7405 25.4238 11.5559 25.4238 11.3713 25.4486C10.6083 25.5475 10.1406 26.1535 10.2391 26.9203C10.3252 27.6252 10.8667 28.0457 11.7405 28.0457Z" fill="#0465B0"/>
<path d="M45.3127 44.4073C44.2297 44.3949 43.1344 44.3825 42.0514 44.4073C41.6207 44.4196 41.4238 44.3454 41.473 43.8508C41.5222 43.319 41.4853 42.7872 41.4853 42.1194C41.4361 41.5134 41.5838 40.759 41.4115 40.0293C41.2269 39.2378 40.4516 38.805 39.7132 39.077C39.1717 39.2749 38.8517 39.7943 38.8394 40.5735C38.8271 41.6247 38.8025 42.6759 38.8517 43.7271C38.8763 44.3083 38.704 44.432 38.1503 44.4196C36.9442 44.4073 35.7259 44.296 34.5321 44.4815C33.6953 44.6175 33.2399 45.4461 33.5476 46.2005C33.8183 46.8683 34.3721 47.0662 35.0367 47.0662C36.1197 47.0662 37.215 47.0909 38.2979 47.0538C38.7779 47.0291 38.864 47.2022 38.8517 47.6351C38.8148 48.6863 38.8394 49.7375 38.8394 50.7887C38.8394 51.3947 38.9871 51.9388 39.5655 52.248C40.4885 52.7427 41.4607 52.0501 41.4853 50.8753C41.5099 49.7375 41.4976 48.6121 41.4853 47.4743C41.4853 47.1528 41.5715 47.0538 41.8914 47.0538C42.999 47.0786 44.1066 47.0662 45.2142 47.0538C45.6942 47.0538 46.1618 46.9673 46.4818 46.5715C46.8018 46.1758 46.9002 45.7306 46.691 45.2482C46.4326 44.6299 45.9157 44.4196 45.3127 44.4073Z" fill="#0465B0"/>
</svg>
