<svg width="49" height="48" viewBox="0 0 49 48" fill="none" xmlns="http://www.w3.org/2000/svg">
<path d="M47.1371 12.2109C47.1371 11.561 46.9415 11.0707 46.481 10.6147C43.822 8.00374 41.1861 5.38141 38.5501 2.75909C38.2508 2.46265 37.94 2.21182 37.5141 2.12061C30.5501 2.12061 23.5861 2.12061 16.622 2.12061C16.3573 2.23462 16.058 2.18901 15.7933 2.30303C14.2508 2.95291 13.3184 4.34388 13.3069 6.03129C13.3069 11.39 13.3069 16.7486 13.3069 22.1073C13.3069 22.7572 13.3069 22.7572 12.6738 22.8712C9.88821 23.3729 7.56303 24.6954 5.75584 26.8275C4.19037 28.6631 3.20044 30.7724 3.07383 33.2237C2.98174 34.9567 3.02778 36.6669 3.66088 38.3201C4.97311 41.7063 7.33282 44.0436 10.763 45.332C11.6609 45.674 12.5817 45.8223 13.5256 45.9021C23.5976 45.9021 33.6695 45.9021 43.7415 45.9021C44.0638 45.7995 44.4206 45.8565 44.7429 45.7082C46.3199 44.99 47.1487 43.8042 47.1487 42.0598C47.1256 32.1292 47.1256 22.1757 47.1371 12.2109ZM38.458 6.61277C39.8278 7.96954 41.1861 9.3149 42.5789 10.6945C42.5789 10.6945 42.5213 10.6945 42.4638 10.6945C41.2321 10.6945 39.9889 10.6945 38.7573 10.6945C38.6307 10.6945 38.458 10.7743 38.458 10.5235C38.458 9.21229 38.458 7.91253 38.458 6.61277ZM14.6882 43.3482C9.69253 43.3368 5.62922 39.2892 5.64073 34.3296C5.65224 29.3928 9.73858 25.3909 14.7227 25.3909C19.7184 25.4023 23.7817 29.4498 23.7702 34.4094C23.7587 39.3463 19.6839 43.3596 14.6882 43.3482ZM44.5012 41.9344C44.5012 42.8237 43.9717 43.3596 43.0969 43.3596C36.2019 43.3596 29.3184 43.3596 22.4235 43.3596C22.3314 43.3596 22.2278 43.3938 22.1127 43.3025C22.9875 42.5615 23.7702 41.7292 24.4033 40.7828C25.3817 39.3235 26.0033 37.7387 26.2451 36.0056C26.2911 35.6978 26.3947 35.6636 26.671 35.6636C30.976 35.675 35.2695 35.6636 39.5746 35.675C40.1501 35.675 40.622 35.4926 40.8983 34.9681C41.3472 34.1016 40.7371 33.1211 39.7242 33.1097C38.4925 33.0983 37.2494 33.1097 36.0177 33.1097C32.9098 33.1097 29.8019 33.1097 26.694 33.1211C26.3947 33.1211 26.2911 33.0527 26.2451 32.7448C26.0263 31.103 25.4393 29.5866 24.5415 28.1843C24.5184 28.1387 24.4954 28.093 24.4263 27.979C27.5803 27.979 30.6537 27.979 33.7386 27.979C35.7415 27.979 37.7328 27.979 39.7357 27.979C40.4379 27.979 40.9904 27.4774 41.0479 26.8161C41.1055 26.189 40.6796 25.6075 40.0465 25.4593C39.8623 25.4137 39.6781 25.4251 39.494 25.4251C33.8076 25.4251 28.1328 25.4251 22.4465 25.4251C22.1702 25.4251 21.963 25.3567 21.7443 25.1971C20.1328 23.9771 18.3256 23.2474 16.3227 22.9738C16.0925 22.9396 16.0235 22.8826 16.0235 22.6432C16.035 17.1135 16.0235 11.5838 16.035 6.0541C16.035 5.2788 16.5875 4.73153 17.3702 4.73153C23.4364 4.73153 29.5141 4.73153 35.5803 4.72013C35.8796 4.72013 35.8911 4.84555 35.8911 5.07357C35.8796 7.30825 35.8911 9.54293 35.8911 11.789C35.8911 12.7923 36.3976 13.2826 37.399 13.2826C39.6436 13.2826 41.8882 13.294 44.1328 13.2712C44.4436 13.2712 44.5357 13.3168 44.5357 13.6588C44.4897 23.065 44.5012 32.494 44.5012 41.9344ZM30.2508 17.7064C33.3817 17.7064 36.5242 17.7064 39.6551 17.7064C40.6681 17.7064 41.3127 18.6071 40.9443 19.4736C40.7141 20.0094 40.2767 20.2717 39.6897 20.2717C38.412 20.2717 37.1343 20.2717 35.8451 20.2717C30.8494 20.2717 25.8652 20.2717 20.8695 20.2717C19.8566 20.2717 19.2004 19.4052 19.5458 18.5273C19.753 18.0028 20.2249 17.7064 20.881 17.7064C24.012 17.695 27.1314 17.7064 30.2508 17.7064ZM13.422 31.7985C13.422 30.9776 13.422 30.1453 13.422 29.3244C13.422 28.5377 13.9861 27.9676 14.7227 27.9676C15.4594 27.9676 16.012 28.5491 16.012 29.3358C16.012 30.4759 16.0235 31.6161 16.012 32.7562C16.012 33.0299 16.0695 33.1211 16.3573 33.1097C16.9443 33.0869 17.5314 33.0983 18.1299 33.1097C18.9012 33.1211 19.4652 33.6683 19.4767 34.3752C19.4882 35.0935 18.9127 35.6636 18.153 35.6636C17.0134 35.675 15.8853 35.675 14.7458 35.6636C13.9976 35.6522 13.445 35.1163 13.4335 34.3638C13.4105 33.5087 13.422 32.6536 13.422 31.7985Z" fill="white"/>
</svg>
