<svg width="24" height="24" viewBox="0 0 24 24" fill="none" xmlns="http://www.w3.org/2000/svg">
<path d="M20.9903 12.3297C20.8791 12.6343 20.7002 12.8616 20.3568 12.9052C19.9602 12.9584 19.5782 12.6585 19.554 12.2571C19.5395 12.0637 19.5395 11.8702 19.5492 11.6768C19.5588 11.2947 19.82 11.0142 20.1972 10.9659C20.5261 10.9224 20.8501 11.14 20.9613 11.4834C20.971 11.5075 20.9613 11.5414 21 11.5511C20.9903 11.8122 20.9903 12.0734 20.9903 12.3297ZM16.0575 5.651C16.1542 5.70904 16.1687 5.74773 16.101 5.84445C15.9269 6.08625 15.7528 6.32806 15.5932 6.57954C15.4675 6.77298 15.5497 6.90839 15.7818 6.91323C15.835 6.91323 15.8882 6.90839 15.9414 6.90356C16.2993 6.8697 16.6523 6.84069 17.0102 6.80683C17.4261 6.76815 17.8372 6.73913 18.2531 6.6956C18.5578 6.66175 18.727 6.4538 18.6496 6.17814C18.4369 5.37535 18.2096 4.57739 17.9871 3.77943C17.9629 3.68754 17.9291 3.59566 17.8227 3.57148C17.7066 3.5473 17.6389 3.62467 17.576 3.70689C17.4406 3.8955 17.31 4.08894 17.1746 4.28238C17.0005 4.52903 17.0054 4.52419 16.7539 4.37427C14.4858 2.99114 12.0629 2.64778 9.5094 3.36352C7.4202 3.95353 5.76142 5.17223 4.54755 6.96159C3.38689 8.67357 2.8791 10.5742 3.02418 12.644C3.13057 14.1287 3.56099 15.5167 4.36862 16.7692C5.7856 18.9745 7.79258 20.3383 10.3702 20.8509C10.7233 20.9234 11.0666 20.7348 11.1972 20.4108C11.3713 19.9707 11.1102 19.5258 10.6024 19.4242C9.36432 19.1824 8.24234 18.6746 7.26545 17.8815C5.69371 16.6145 4.78936 14.9702 4.5137 12.9729C4.3928 12.0879 4.42665 11.2077 4.62977 10.3372C5.05535 8.50914 6.0274 7.03413 7.53143 5.92183C8.85169 4.94493 10.3509 4.4855 11.9323 4.46132C13.533 4.49034 14.7711 4.85788 16.0575 5.651ZM12.1306 6.77298C12.1306 6.4006 11.8598 6.14912 11.5067 6.16847C11.1827 6.18781 10.9651 6.43445 10.9651 6.802C10.9651 8.68324 10.9651 10.5645 10.9602 12.4409C10.9602 12.5521 11.0038 12.6005 11.0956 12.6489C12.7931 13.5242 14.4858 14.3995 16.1832 15.2749C16.2461 15.3087 16.309 15.3377 16.3767 15.3619C16.7007 15.4731 17.0441 15.2797 17.1263 14.9508C17.1988 14.6558 17.0779 14.4237 16.7587 14.2544C15.2644 13.4807 13.7749 12.7069 12.2757 11.9379C12.1596 11.8799 12.1257 11.8122 12.1257 11.6865C12.1306 10.874 12.1306 10.0567 12.1306 9.24423C12.1306 8.42693 12.1354 7.59996 12.1306 6.77298ZM18.1322 16.4404C17.9532 16.6145 17.7888 16.8127 17.6631 17.0304C17.4841 17.3302 17.576 17.7316 17.8469 17.9444C18.1273 18.1669 18.5384 18.1475 18.7899 17.8912C18.9543 17.7268 19.1042 17.543 19.2251 17.3447C19.5105 16.8659 19.1623 16.2663 18.5916 16.2663C18.4272 16.2566 18.2628 16.3098 18.1322 16.4404ZM13.8716 19.3275C13.6636 19.3565 13.4557 19.4049 13.2574 19.4629C12.914 19.5693 12.7061 19.932 12.7834 20.2802C12.8608 20.6526 13.1994 20.9089 13.5669 20.8606C13.7845 20.8315 14.007 20.7832 14.2149 20.7155C14.5148 20.6236 14.7034 20.3479 14.7034 20.0384C14.7034 19.5935 14.331 19.2695 13.8716 19.3275ZM20.0521 13.7708C19.7088 13.6983 19.3751 13.8579 19.2397 14.1722C19.1574 14.3657 19.0849 14.564 19.0317 14.7671C18.935 15.1153 19.0946 15.4441 19.4186 15.5989C19.7184 15.744 20.0908 15.6714 20.2843 15.4006C20.4777 15.1249 20.5551 14.8009 20.6131 14.5349C20.6034 14.1335 20.3713 13.8385 20.0521 13.7708ZM20.5599 9.31194C20.5116 9.05079 20.4148 8.79447 20.2843 8.55751C20.1102 8.25283 19.7233 8.13193 19.3992 8.26734C19.0656 8.40759 18.8818 8.77029 18.9833 9.11366C19.0414 9.3071 19.1091 9.50055 19.1913 9.68915C19.3074 9.96965 19.5347 10.1051 19.7716 10.1196C20.2746 10.1389 20.6373 9.74235 20.5599 9.31194ZM17.194 19.2501C17.3391 18.9793 17.3004 18.6456 17.0924 18.4183C16.8845 18.191 16.5459 18.1088 16.2751 18.2442C16.0672 18.3506 15.8689 18.4715 15.6803 18.6118C15.4336 18.7955 15.3466 19.1292 15.453 19.4146C15.5594 19.6999 15.8399 19.8885 16.1494 19.8837C16.4395 19.8837 17.0537 19.5065 17.194 19.2501Z" fill="#979797"/>
</svg>
